<?xml version="1.0" encoding="UTF-8"?>
<svg id="Layer_1" data-name="Layer 1" xmlns="http://www.w3.org/2000/svg" viewBox="0 0 841.89 1190.55">
  <path d="M192.9,216.9c.54-2.46,2.29-2.04,1.92-5.28-3.55-.65-.75-4.73-1.92-7.44-1.59-3.68-8.32-9.25-7.2-14.88-2.03-1.99-4.94-3.45-4.32-7.44.08-1.12.16-2.24.24-3.36-.96-2.56-1.92-5.12-2.88-7.68-1.31-2.14-4.92-5.62-5.76-7.68,1.65-3.47-2.93-10.48-3.84-11.52-1.16-1.32-.56-2.49.48-3.84-.48-.72-.96-1.44-1.44-2.16-.7-.69-1.22-.87-2.16-.72-1.12-2.64-2.24-5.28-3.36-7.92-1.64-1.8-5.2-4.01-6.48-6.24-.16-.08-.32-.16-.48-.24.05-.43,1.33-1.73.72-3.36-1.55-4.11-5.54-7.19-6-12.96-.92-.24-1.1.44-2.4,0-2.73-2.16-1.67-10.79-3.36-13.68-1.68-2.32-3.36-4.64-5.04-6.96-.32-1.2-.64-2.4-.96-3.6-1.11-.98-3.31-1.56-4.32-3.36-1.04-2.64-2.08-5.28-3.12-7.92-1.76-.96-3.52-1.92-5.28-2.88-1.45-1.48-5.29-14.99-5.28-15.12-1.28-1.04-2.56-2.08-3.84-3.12h-2.88c-.32-.64-.64-1.28-.96-1.92-5.11-3.06-10.23-1.88-15.84-.72h-4.32c-1.52.96-3.04,1.92-4.56,2.88-.46,1.32-.45,2.28-.24,3.6-.8.16-1.6.32-2.4.48.22,4.6-2.29,4.47-3.36,7.2-.24,3.04-.48,6.08-.72,9.12-.79,2.01-3,2.5-3.84,4.08v1.44c-2.54,5.7-6.36,15.29-9.6,20.88-1.54,2.65-4.02,13.12-6.72,13.44-.72,2.78-3.36,13.39-5.52,14.4-.16,2.32-.32,4.64-.48,6.96-.51.94-.73.87-1.44.96-.83,3.14-.8,6.75-2.4,10.32-.25.56-1.52,1.33-1.68,1.68.16.72.32,1.44.48,2.16-.41,2.78-1.04,3.75-2.16,5.28v3.36c-.72.56-1.44,1.12-2.16,1.68.16,1.04.32,2.08.48,3.12-2.6,3.99-.56,3.11-1.92,6.48-.85,2.11-2.98,5.44-4.08,7.68-1.25,2.54-1.09,6.74-2.16,9.36-1.37,3.35-3.83,7.35-4.56,9.84.24,1.2.48,2.4.72,3.6-.48,2.47-2.35,3.24-3.6,4.8-1.65,2.07-2.96,10.14-2.88,12.72.88.96,1.76,1.92,2.64,2.88-.32.64-.64,1.28-.96,1.92,2.09,1.69,2.66,2.48,3.6,5.04,1.36-.24,2.72-.48,4.08-.72.96.48,1.92.96,2.88,1.44.83-.15,1.61-1.37,2.64-.96,1.37.54,2.94,1.73,4.56,1.92,4.23.5,5.87-2.48,9.12-.96v-.48c1.26-1.53-.08-2.68.24-4.32.46-.72.04-.4.96-.72.92-1.74-1.17-2.5-.24-4.8.56-1.38,1.92-3.01,2.88-4.08.64-2.4,1.28-4.8,1.92-7.2,1.86-6.72,4.4-13.43,6.48-19.92,1.02-3.19,2.24-12.07,4.32-14.64.08-.24.16-.48.24-.72,5.2.08,10.4.16,15.6.24,3.76-.24,7.52-.48,11.28-.72,4.89,1.1,11.06,1.2,15.84,0,5.89-1.48,15.55-5.94,20.64-4.32,1.44.48,2.88.96,4.32,1.44.47.45,6.53,11.89,6.48,14.16,3.96,1.41,7.42,6.64,6,10.32,1.47,1.32,3.29,2.59,4.32,4.32-.08.8-.16,1.6-.24,2.4.56.08,1.12.16,1.68.24,2.39,1.77.39,5.03,1.44,7.44.78,1.8,2.74,3.08,3.84,4.56,3.07,4.15,2.8,11.54,6.24,15.36.48-.72.96-1.44,1.44-2.16,1.76.16,3.52.32,5.28.48,2.58-.55,6.34-3.59,8.88-5.04.96-.08,1.92-.16,2.88-.24.66-.5.57-2.05.48-2.64.95-1.18,1.71-1.39,3.6-1.68.22-1.28-.82-1.82-.48-3.36ZM122.34,143.94c-2.32.4-4.64.8-6.96,1.2-2.97,0-3.13-1.25-4.56-2.64-.84,1.3-.71,1.8-2.16,1.92-2.63,1.52-3.85-1.25-5.28-2.4-4.49,3.14-11.82,4.33-14.64-1.92,5.74-8.39,5.25-19.83,10.08-29.04-2-2.86.74-7.61,2.64-9.36,2.24.8,3.59.86,5.04,2.64,1.66,2.6.47,4.54,3.36,6.48-.24.72-.48,1.44-.72,2.16,1.44,1.04,2.88,2.08,4.32,3.12.08,1.68.16,3.36.24,5.04.67,1.99,3.74,3.46,2.16,6.48.48.4.96.8,1.44,1.2,1.73.76,3.17,9.85,6.48,11.52-.35,1.17-.64,2.41-1.44,3.6ZM132.42,124.26c-.16.08-.32.16-.48.24-.62-.91-1.16-1.78-1.2-2.64.56.32,1.12.64,1.68.96v1.44Z" fill-rule="evenodd"/>
  <path d="M328.39,124.68c.96.16,1.92.32,2.88.48.65-.37,6.08-13.06,6.48-14.88-2.63-4.89,1.52-8.59-.24-16.32-1.14-4.99-3.41-11.83-6.24-15.36-1.36-.96-2.72-1.92-4.08-2.88-3.16-3.56-3.13-8.8-7.92-10.8-7.36-.88-14.72-1.76-22.08-2.64-2.7,2.29-5.13-.3-7.92.96-7.78,3.52-16.53.5-26.88,1.44-9.82.89-21.61.66-28.56.48-5.52.8-11.04,1.6-16.56,2.4-.24.08-.48.16-.72.24.4.88.8,1.76,1.2,2.64-.61,1.15-1.36,2.11-1.92,3.12-1.59,1.84,1.64,5.61.96,8.88-.72,1.2-1.44,2.4-2.16,3.6.24,1.68.48,3.36.72,5.04-.47,1.24-2.25,1.86-2.64,2.88-.76,1.98-.1,5.12-1.2,8.16.33.83,2.38,6.54,2.16,8.16-.48.8-.96,1.6-1.44,2.4-.85,3.82,2.98,8.91-1.44,11.76.2,2.97,2.02,3.34,2.4,5.76.67,4.24-3.6,15.41.48,18.24-.08.32-.16.64-.24.96h-2.4c-.16-.08-.32-.16-.48-.24-.57,5.17-.09,6.89,2.4,10.56-.5,1.18-.39,1.45-1.92,1.68.52,1.6,1.16,2.91.72,5.04-.48.32-.96.64-1.44.96.48,1.12.96,2.24,1.44,3.36-.85,1.44-1.05.92-2.4,1.44.89.86,1.46,1.28,1.68,2.88-.58,1.08-.55,1.31-2.16,1.44.16.56.32,1.12.48,1.68.8.24,1.6.48,2.4.72.13,1.25.28,1.22-.96,1.68.24.24.48.48.72.72v.96c-1.61.16-2.77.09-4.08-.48h-.24c.68,1.91,2.64,2.11,3.6,3.6,1.49,2.3,1.95,6.26,3.36,8.64-.15.96.02.71-.48,1.2-.96.73-3.33.7-4.32.96.95,1.66,3.39,4.16,4.8,6.72-.76.85-.46.77-1.68.72,2.05,3.68.97,5.12,1.68,8.88-.4.11,3.91,2.71,5.04,3.12,5.52,2.02,9.19,4.72,15.6,6.24,1.24.29,6.23,2.85,8.4,1.92,1.06-.46,2.75-1.58,4.32-1.2,3.11.74,7.32,3.42,11.28,2.64,2.82-.55,4.73-3.14,8.16-2.88,4.18.32,12.38.68,15.36-.96.96-1.2,1.92-2.4,2.88-3.6,5.36-.05,8.23,3.28,13.92,3.36,1.36-1.04,2.72-2.08,4.08-3.12,2.85-.79,8.9.68,11.76.24,2.05-.32,3.84-2.65,5.52-3.12,1.59-.44,2.99.71,3.84,1.2,1.04-7.7,1.9-5.2,5.04-9.36.83-1.09.36-3.4.72-4.32,1.44-1.76,2.88-3.52,4.32-5.28-.24-1.92-.48-3.84-.72-5.76.56-.48,1.12-.96,1.68-1.44-.32-1.52-.64-3.04-.96-4.56-.29-2.25,1.11-4.26,1.92-6-2.89-2.14-2.94-9.69-4.08-13.92-1.06-3.93-5.17-9.43-8.16-12.48-2.08-2.12-5.17-5.21-8.16-6.24-4.26-1.46-10.44.68-14.4-3.36-.48-.43-.18,0-.48-.72v-.24c4.7-2.37,11.22-1.19,15.84-3.84,3.88-2.22,5.23-6.7,10.08-8.4.48-1.84.18-3.45.24-5.04.4-.24.8-.48,1.2-.72ZM304.87,161.4c5.93,9.02-3.63,22.65,1.2,31.68-2.43,3.35-11.01,5.96-17.52,4.56-1.52-.48-3.04-.96-4.56-1.44-4.07.92-26.77,5.61-29.52,4.08-1.73-.96-1.84-2.95-4.32-3.36-1.03.81-1.64,1.43-2.88,2.16-4.49-.55-4.37-3.63-9.36-3.36-2.6-3.86.37-5.27-.24-10.56-.9-7.72-2.51-20.16.24-27.6,5.7-1.53,13.67.21,19.2-.24,7.04-.56,14.08-1.12,21.12-1.68,3.93-.34,7.25.55,9.84-1.44,1.84.7,2.58,2.32,4.08,2.88,2.88.48,5.76.96,8.64,1.44,2.12.95.28,2.66,4.08,2.88ZM310.63,104.04c-.74,2.05.38,4.75-.48,7.2-.41,1.17-2.01,1.69-1.68,3.12.3,1.3,1.55,2.79.72,4.8-1.31,1.15-5.17.16-7.44,0-.08.08-.16.16-.24.24.21,1.51.62,1.53.24,2.4-.54.77-2.12.99-3.12,1.2-.08.8-.16,1.6-.24,2.4-1.78,1.55-8.62,1.87-12,.72h-1.92c.12.97-.02,2.33-.72,3.12-1.37.94-3.91-1.8-6-2.16-1.38-.2-2.09,1.35-3.6,1.68-2.24.49-4.87-1.06-6.48-1.68-3.94,3.37-4.38.33-9.12.24-.49,1.2-1.09,2.23-2.16,2.88-8.72-2.75-15.07,5.26-19.44-3.6,1.98-2.54,5-11.94,3.6-14.64-.45-.88-1.63-1.92-1.92-3.84,1.2-.24,2.4-.48,3.6-.72h.48c-.6-1.09-2.02-2.32-3.12-2.88.24-1.2.48-2.4.72-3.6-1.43-3.5-2.67-6.16-1.92-10.08,3.37-1.23,12.18-1.88,17.04-1.68,1.44.16,2.88.32,4.32.48,1.28-.56,2.56-1.12,3.84-1.68.24.56.48,1.12.72,1.68,5.17.1,11.73-1.16,15.84-1.92,5.43-1,9.9,1.98,15.84-1.2,2.89.05,11.15,2.94,12.48,4.32,1.96,2.03,3.43,7.35,5.28,9.84-.19,1.86-1.25,3.17-3.12,3.36Z" fill-rule="evenodd"/>
  <path d="M473.05,54.3c7.21,1.35,7.41,5.58,13.44,7.44.47,1.75.43,3.9,1.2,5.76.51,1.24,2,1.97,2.64,3.36-.17,1.35-.93,2.28-.24,3.84,1.19,2.71,3.16,4.24,2.4,8.4-.64-.08-1.28-.16-1.92-.24-.84,2.99.37,6.8.48,10.08-1.22.01-.86-.11-1.68.24-.23,2.22.73,3.67,1.2,5.28.51,1.75-.49,6.93,0,10.56-2.73.29-2.21,1.95-3.84,2.88-1.28.08-2.56.16-3.84.24-1.31.57-2.81,3.12-4.08,4.08-2.03-4.8-7.09.61-9.84-.24-.29-1.14-.51-1.65-1.44-2.16-2.61-.72-3.26.98-4.8,1.92-.64-3.6-1.28-7.2-1.92-10.8-1.2-1.28-2.4-2.56-3.6-3.84-.93-2.29-.19-5.24-1.92-8.64-1.72-.28-5.52-.67-6.96-1.44l-1.68-1.68c-1.44.16-2.88.32-4.32.48-4.06-1.46-4.24.23-7.2-.24-1.05-.17-2.31-1.12-3.36-1.44-1.92-.59-11.69,2.19-13.44,2.4-4.92.6-11.55-2.37-13.68,2.16-2.19-.63-6.41-2.71-8.16-.24-3.17,5.46,1.16,9.95,0,16.32-.08,15.12-.16,30.24-.24,45.36.64,4.08,1.28,8.16,1.92,12.24-.56,1.2-1.12,2.4-1.68,3.6-1.3,5.39,2.24,9.15,3.12,13.2v7.92c-.41,1.05-1.68,1.85-1.68,3.12-.5.91,1.62,2.9,2.64,3.36,1.52-.32,3.04-.64,4.56-.96l-.24.96.72.96c4.5,1.67,10.31-1.3,15.36.96,4.13-1.01,6.42-1.55,9.36-.24,2.97-.66,4.19-2.27,5.52-.72.29.6-.15.24.48.48,1.6.64,3.18.75,4.8,0,.24,1.09.31,1.16.96,2.16,2.48.64,12.34,1.46,14.4-.48,1.02-.78.85-1.84,1.44-2.64,2.68.73,6.63,2.21,9.6.24-.11-3.71.74-4.12,2.4-6.24-.8-2.72-1.6-5.44-2.4-8.16-.58-2.35.02-4.57-.48-5.76.74-.43,1.42-.03,2.16-.48.72-1.2,1.44-2.4,2.16-3.6,1.64-1.42,2.4.1,4.32-.72l2.4-2.4,1.2.96c.8.48,1.6.96,2.4,1.44,2.56-1.04,5.12-2.08,7.68-3.12.64.88,1.28,1.76,1.92,2.64h.96l1.92-1.92c2.32,1.41,1.38,4.62,3.12,6.96,2.81,3.77,1.82,6.05,2.88,10.32.39,1.59,1.67,2.99,1.68,5.04.01,1.86-1.09,3.6-.96,5.52.16,2.8.32,5.6.48,8.4-.2,1.4-1.49,1.68-1.92,2.64-.56,2.24-1.12,4.48-1.68,6.72-1.16-.13-1.48-.4-2.16.24-1.38,1.81-2.02,3.65-3.12,5.76-2.12-.07-2.28.25-2.88,1.68.7,4.24-3.08,2-5.76,3.36-9.54,4.85-20.85-2.1-29.52,2.4-.4.8-.8,1.6-1.2,2.4-3.92.08-7.84.16-11.76.24-1.68-.64-3.36-1.28-5.04-1.92-1.36.48-2.72.96-4.08,1.44-2.16-.24-4.32-.48-6.48-.72-.64.48-1.28.96-1.92,1.44-1.44-.4-2.88-.8-4.32-1.2-1.17-.22-2.7,1.14-3.36,1.44-2.08.94-4.17-.93-5.28-1.2-1.68.24-3.36.48-5.04.72-4.89.86-11.44.32-15.84-.48-1.68.08-3.36.16-5.04.24-3.73-.94-8.07-4.15-12.72-5.28-.13-3.66-2.92-11.52-5.04-13.44.78-2.11,2.42-3.93,2.88-5.28.82-2.41-.67-5.43-1.2-7.44-.43-1.62.7-1.94.96-3.6-.86-1.35-1.24-2.53-2.64-3.36l.48-.48c.68-.99,1.13-.65,1.44-2.16-3.07-1.97-.17-7.42-3.36-11.76,1.87-3.44,2.28-14.48.24-16.8,0,0,1.72-9.14,1.68-9.36-.56-2-1.12-4-1.68-6-.56-10.35-1.26-21.34,2.16-32.16-.43-2.1-2-2.46-2.16-5.04.8-1.12,1.6-2.24,2.4-3.36-.84-3.56-1.49-5.39-2.64-8.64.92-.11,1.44-.2,1.92-.72,1.93-3.46-1.31-7.58-.72-9.84.56-.96,1.12-1.92,1.68-2.88.01-1.99-1.52-2.57-.96-4.08,1.56-.96,4.56-8.93,4.8-10.32-.24-1.92-.48-3.84-.72-5.76,1.69-6.76,14.35-7.48,19.92-5.76,3.54-2.86,10.42-.44,14.64-.96l.24-1.2c2.37.69,6.16.49,8.64,1.2,1.29-.32,2.51-1.31,4.56-.96,1.52.32,3.04.64,4.56.96,1.52-.32,3.04-.64,4.56-.96,3.62.87,9.44,3.2,13.92,2.16.16-.8.32-1.6.48-2.4h.24c7.4,1.21,8.51,4.3,15.12-.96,1.16.31,12.73,2.84,13.2,2.64l1.44-1.2c-.06-1.71-.39-1.66-.96-2.64l.72-.24Z" fill-rule="evenodd"/>
  <path d="M670.31,136.56c-.24-3.68-.48-7.36-.72-11.04-1.28-3.04-2.56-6.08-3.84-9.12-.56-2.64-1.12-5.28-1.68-7.92-2.64-5.04-5.28-10.08-7.92-15.12-1.51-3.13-.98-5.47-4.08-6.96-.96-.56-.46.05-1.68.48-2.18-1.72-4.51-6.66-5.76-9.12-1.74.35-3.03.94-5.04,0-1.28-1.52-2.56-3.04-3.84-4.56-1.4-1.4-10.77-5.27-12.96-6.24-2.74-1.21-3.6.37-6.72-.72-1.31-.46-2.86-2-3.84-2.4-1.2.16-2.4.32-3.6.48-.64-.48-1.28-.96-1.92-1.44-1.9-.38-3.19,1.28-5.04.96-4.08-1.28-8.16-2.56-12.24-3.84-2.7-.55-15.76.48-18,1.2-1.54.13-1.36.16-1.68,1.44-2.73,1.3-7.45-.68-9.12-2.16-5.53,3.61-9.87,3.85-16.56,2.16-3.47-.88-4.22,1.38-6.24,1.92-1.2-.32-2.4-.64-3.6-.96-1.32-.4-2.3.78-2.4,2.4-2.78,1.42-3.34-.45-6.24.24-1.44.34-2.36,1.3-4.32,1.44.18,2.31,1.41,2.52,1.44,4.08.49,2.52-3.27,3.4-4.32,5.28-2.19,2.18,2.97,11.18,2.64,14.4-.32,1.76-.64,3.52-.96,5.28.32,1.21,1.91,2.7.96,5.04-.63,1.57-3.55,3.14-2.88,5.76.89,3.46,5.19,9.47,3.6,14.16-.96,1.13-2.78.42-3.84,1.2.8.4,1.6.8,2.4,1.2.16,1.12.32,2.24.48,3.36-.64.32-1.28.64-1.92.96,1.85,3.15,1.27,4.84,2.64,8.64-.88,1.67,1.07,2.09,2.16,3.12.79,4.23-2.37,6.96-2.88,10.32-.42,2.76,2.01,3.22,2.4,5.52.33.62-1.85,8.01-1.44,10.32.64,2.56,1.28,5.12,1.92,7.68-.03,1.02-.85,3.88-.72,4.32.8,2,1.6,4,2.4,6-.48,1.44-.96,2.88-1.44,4.32.16,4.48.32,8.96.48,13.44.67,1.26,2.47,1.77,2.88,3.6.69,3.1-1.08,5.75,0,9.12-.24,1.71,2.2,3.14,2.88,6,8.75,1.94,17.31,5.14,26.4,6.72,9.83,1.71,12.73-4.41,18.72-6.48,3.28.16,6.56.32,9.84.48,6.24-2.08,12.48-4.16,18.72-6.24,3.6-1.36,7.2-2.72,10.8-4.08,1.57-.89,3.1-3.18,4.56-3.84,1.43-.65,5.89.78,8.16-.48,1.29-.72.71-1.45,1.2-3.12,1.12-3.81,5.51-3.78,10.08-3.6.51-1.38.49-2.3.72-3.84,3.64-2.41,7.45-2.54,10.56-5.28,4.57-4.03,17.83-25.11,18-32.16.05-1.96-2.22-2.52-1.44-5.04.37-1.2,1.58-1.09,2.16-1.92,1.04-2.72,2.08-5.44,3.12-8.16.27-1.82-.98-5.31-1.44-7.2ZM642.95,149.04c-1.21,2.67-4.13,4.03-5.52,6.48-1.53,2.7-.83,6.62-2.88,8.16-.77.91-2.29.54-3.12.24-.89,1.45-.62,1.97-.72,3.6-1.12.48-2.24.96-3.36,1.44-.24.48-.48.96-.72,1.44.85.18.69.17,1.2.48-.08.24-.16.48-.24.72-2.08,3.24-12.15,5.51-16.08,7.44-.16.88-.32,1.76-.48,2.64-2.2,3.08-10.72,2.07-13.92,3.84-.72.8-1.44,1.6-2.16,2.4-2.07,1.07-4.33.9-6.72,1.92-2.99,1.28-6.38,3.96-9.84,5.04-3.19.99-5.56-1.72-8.4-.48-.8.88-1.6,1.76-2.4,2.64-1.31.86-5.17,2.05-6.48,1.2-.72.8-1.44,1.6-2.16,2.4-3.48,1.59-7.96-1.37-6.96-4.32-.96-.32-1.92-.64-2.88-.96-.08-.24-.16-.48-.24-.72.76-1.5,2.19-2.11,2.88-3.36.24-3.36.48-6.72.72-10.08-.96-1.05-2.33-1.7-3.12-2.88,3.25-6.85.16-16.66-.96-22.32.8-.96,1.6-1.92,2.4-2.88-4.93-11.79-3.68-36.78-1.68-49.2.77-4.78-2.97-9.85-1.44-16.56,3.66-2.02,9.91-.12,14.88-3.84,5.22,1.73,8.89-.32,13.92.48,5.42.86,8.36,2.65,13.44,2.88,1.2-.4,2.4-.8,3.6-1.2,2.25.04,3.37,1.82,5.04,1.92.99.06,1.47-.56,2.4-1.2,2.92.14,3.33,1.97,5.52,2.64,3.52.56,7.04,1.12,10.56,1.68,3.61,1.38,3.5,3.61,8.64,4.56,1.81,2.39,1.25,6.5,3.12,8.64,2.72,3.11,7.91,5.94,9.36,10.08.64,2.8,1.28,5.6,1.92,8.4,1.04,1.6,2.08,3.2,3.12,4.8,1.29,4.66-1.4,7.83-.96,11.76.35,3.18,2.33,6.55.72,10.08Z" fill-rule="evenodd"/>
  <path d="M811.78,196.79c-.81-1.45-2.48-2.41-3.84-3.36-1.84.08-3.68.16-5.52.24-12.59,2.41-28.89,4.7-42.24,4.56-3.22-.03-6.48,1.48-8.88,2.4-4.93,1.89-9.83-1.89-12.48-3.36-.74.91-1.21,1.82-1.44,3.6-.48.08-.96.16-1.44.24-2.32-1.6-4.24-1.64-6.48-3.12-1.21-.8-1.39-2.29-3.36-3.36-.5-3.08,2.11-4.84,1.92-7.68-.56-1.68-1.12-3.36-1.68-5.04-.71-5.82-.4-17.84,1.44-24.48,4.16.24,8.32.48,12.48.72,7.91-1.44,19.83-2.56,27.84-1.92,5.03.4,6.66-3.68,11.76-.24,1.69-.46,4.88-.53,5.76-1.2,1.69-1.28,1.82-2.66,3.84-3.36.49-3.01-.42-5.86-.96-10.32.32-1.76.64-3.52.96-5.28-2.08-2.56-4.16-5.12-6.24-7.68-1.44.16-2.88.32-4.32.48-1.04-.37-2.64-2.22-4.8-1.44-1.13.41-1.58,2.23-3.6,1.92-1.36-.8-2.72-1.6-4.08-2.4-1.52.8-3.04,1.6-4.56,2.4-2-.32-4-.64-6-.96-2.94.1-4.29,2.3-7.68.48-.16.56-.32,1.12-.48,1.68-3.34.77-4.92-.63-8.16-1.2-4.41-.78-7.5,3.43-12.24.96-.72-.46-.4-.04-.72-.96-.26-1.25,1.35-3.65,1.68-5.04.45-1.87-.89-3.12-.72-4.8.8-2.08,1.6-4.16,2.4-6.24-.95-1.24-1.63-2.28-2.4-3.84.87-1.03,1.57-1.04,2.88-1.68.72-.46.4-.04.72-.96-3.75-1.75-1.24-5.21-2.88-9.12-.54-1.3-1.61-2.31-2.16-4.32,2.47-3.12,15.4-5.2,20.88-2.4,3.81-3.88,7.36.38,13.44-1.2,1.74-.45,4.73-1.98,7.2-1.44,2,.48,4,.96,6,1.44,3.12-.72,6.24-1.44,9.36-2.16,3.2-.69,6.26.3,9.84-.48,8.52-1.86,8.53,3.16,15.36-3.36.25-1.37.13-3.42-.24-5.28-.93-4.63.97-8.8-1.44-12.24-1.01-1.44-2.6-1.07-4.08-1.44-5.49-1.37-9.28-.85-15.84-.96-1.76.16-3.52.32-5.28.48-1.28-.64-2.56-1.28-3.84-1.92-2.79,4.7-15.17,1.64-19.68,2.16-3.97.45-7.47,1.77-11.52,2.16-7.36-.48-14.72-.96-22.08-1.44-2.24.72-4.48,1.44-6.72,2.16-4.15.83-9.56-.03-12.72,2.64.45.92.7,1.39.72,2.88-.56.72-1.12,1.44-1.68,2.16-.4.16-.8.32-1.2.48.8,2.24,1.6,4.48,2.4,6.72-.08,1.2-.16,2.4-.24,3.6-.72.72-1.44,1.44-2.16,2.16.16,2.16.32,4.32.48,6.48-.56.32-1.12.64-1.68.96-1.22.97.18,13.26.48,14.64.19.9-1.32,2.73-1.2,3.6.4,2.56.8,5.12,1.2,7.68-.4,1.76-.8,3.52-1.2,5.28.57,2.34,1.33,3.08,1.68,5.04-1.39,3.86-2.13,14.89.48,17.52-.23.87.02.49-.48.96-.71.42-1.85.09-3.12.24-.74,1.72.11,3.11-.48,5.52.1,2.2,2.11,3.85,3.12,5.52-.51,1.16-.28,1.32-1.92,1.44.35,1.88,1.89,2.71.24,4.32-.51.86-.83.92-2.16.96.69,1.37,1.44,2.06,2.64,2.88-.16.48-.32.96-.48,1.44l-.72.72c-.32-.08-.64-.16-.96-.24.28,1.79.79,1.86,1.68,2.88-.18,1.35-.19,1.92-1.2,2.4-.05,1.21,1.75,1.71,2.16,3.12-.92.44-.73.38-.72.72.21,1.75-.2,2.04-1.92,2.4,1.58,3.29,4.78,7.83,4.32,12.24-.87.5-2.79.55-3.36,1.44h-.48c.65.63,1.82,1.01,2.88,1.2.64,3.7,1.84,5.73,2.4,9.12.46,2.83-.51,3.48-.48,6.48,4.08-.17,5.95,4,8.64,5.52,2.16.32,4.32.64,6.48.96,7.75,2.55,9.14,3.87,17.28,2.16,2.52,1.01,8.35,2.59,12,1.92,2.91-.54,3.97-2.7,6.24-3.36,2.08.24,4.16.48,6.24.72,3.91-.84,9.88-1.13,14.4-2.64.88-.56,1.76-1.12,2.64-1.68,4.4.72,8.8,1.44,13.2,2.16,1.44-.56,2.88-1.12,4.32-1.68,2.64-.46,8.46,1.11,11.52-.96,1.47-1,.94-2.91,3.36-2.64,1.26-.25,2.08.25,3.36.72,1.29-1.16-.77-17.58-1.68-19.2ZM710.26,204.47c-.08.32-.16.64-.24.96-.38-.47-.33-.33-.48-1.2h.72v.24ZM720.82,124.07c-.08.16-.16.32-.24.48-.16-.32-.32-.64-.48-.96-.66-.65-.63-.49-.48-1.44.95.34,1.81.87,1.2,1.92Z" fill-rule="evenodd"/>
  <path d="M142.44,290.82c.7-1.87-1.94-7.14-2.4-9.84-2.68-1.98-7.18-1.69-10.08-2.4-3.84.72-7.68,1.44-11.52,2.16-1.17-.24-1.58-1.7-3.36-1.44-16.08,2.31-36.01,4.58-52.32,2.64-7.47-.89-15.07,4.56-20.16,4.08-1.22,2.87.49,3.93-3.12,6.72.72,1.76,3.65,6.62,2.64,8.88-.6,1.34-2.06,2.11-2.4,3.84.32,1.84.64,3.68.96,5.52-.72.64-1.44,1.28-2.16,1.92-.86,1.74.6,2.6.24,4.08-1.18,4.8-.62,7.28,1.68,11.52-.08.24-.16.48-.24.72h-2.64c.38,3.3,2.7,6.72,2.16,9.36-.72,2.24-1.44,4.48-2.16,6.72,4.63,4.62.56,10.01,1.2,18.48.18,2.34,1.43,2.53,1.2,4.8-.88-.24-1.76-.48-2.64-.72-.16,2-.32,4-.48,6,.82.68,1.46,1.03,2.64,1.44.24,1.12.48,2.24.72,3.36-.08.16-.16.32-.24.48-1.08.41-2.26-.08-3.6-.72l-.72.24c1.16,2.28,3.27,1.26,3.36,5.04-.08.16-.16.32-.24.48-1.38.23-1.98-.03-3.36-.24-.08.16-.16.32-.24.48,2.16,1.63,2.67,2.25,3.36,4.8-.56.56-1.12,1.12-1.68,1.68.56.48,1.12.96,1.68,1.44v1.92c-.8.55-1.09.74-2.64.72,1.56,1.64,5.05,1.61,2.4,4.32-.59.99-1.65,1.15-3.12,1.2l-.24.96c5.61,1.34,3.52,4.17,5.28,8.16.52,1.18,1.59,1.88,2.16,3.36-.48.48-.96.96-1.44,1.44-1.12-.24-2.24-.48-3.36-.72-.08.4-.16.8-.24,1.2,2.5.72,3.38,2.96,4.08,4.8-.48.48-.96.96-1.44,1.44,4.6,4.85.8,3.82,2.4,9.36.31,1.08,1.18,1.85,1.44,3.36-.72.4-1.44.8-2.16,1.2,1.02,1.94,3.99,1.34,5.28,1.68,2.72.72,5.44,1.44,8.16,2.16,4.66-1.27,7.15-5.22,11.76-6.24-.38-2.89,1.04-3,1.92-5.04-.56-4.48-1.12-8.96-1.68-13.44-.96-1.36-1.92-2.72-2.88-4.08,2.32-6.43-.92-13.02,0-19.44.56-5.12,1.12-10.24,1.68-15.36,4.49-2.21,10.15-.05,15.84-1.2,1.99-.4,8.12-.22,9.6-.96,1.33-.67,2.9-1.71,4.8-1.44,3.7.54,8.51,1.71,12.72.72,5.9-1.39,10.33-2.47,17.76-4.08,1.33-2.16,1.57-3.84,3.6-5.28.04-1.19-.29-1.41-.96-2.4.11-1.75.61-1.74,1.44-2.64-2.08-2.44-1.26-7.08-1.2-9.6-.51-.57-1.96-.55-3.12-.96v-1.92c-.08-.16-.16-.32-.24-.48-2.19.73-3.68,1.37-6.48.72-3.11-.72-7.41-4-9.36.72-.32.08-.64.16-.96.24-1.96-1.67-4.25-2.31-6.72-3.6-1.46,4.52-5.92,3.01-8.88,1.44-1.52.18-1.25.28-1.68,1.44-.48.08-.96.16-1.44.24-1.84-1.82-2.49-3.98-5.52-3.36-.08,1.16-.32,2.28-.96,2.88-.48.24-.96.48-1.44.72-2.23.69-4.46-2.86-6.48-1.92-2.43,1.13-9.05,3.66-12,1.68h-.48c-.53-3.83,4.99-11.86,2.64-17.28-.64-.64-1.28-1.28-1.92-1.92-.74-2.08,1.59-3.09,2.88-3.36v-.96c-.8-.4-1.6-.8-2.4-1.2-.29-1.8.78-1.43,1.2-2.64.79-2.26-2.12-7.73-2.88-9.36,1.59-2.46,19.86-4.28,23.04-2.64.96-.8,1.92-1.6,2.88-2.4,2.08.32,4.16.64,6.24.96,7.12-.32,14.24-.64,21.36-.96,3.27.27,6.7-1.88,7.68-.96,3.24.39,7.47-1.3,12-.48,2.76-2.19,1.31-2.52,3.12-5.04.73-1.02,2.1-1.52,2.88-2.64-.48-1.18-.85-1.64-1.68-2.4.22-1.37.72-1.63,1.68-2.16ZM58.68,396.18c-.48.24-.96.48-1.44.72-.16-.16-.32-.32-.48-.48.24-.56.48-1.12.72-1.68h.96c.08.16.16.32.24.48v.96Z" fill-rule="evenodd"/>
  <path d="M269.82,269.31c1.81.34,3.67.39,5.76.72.64.96,1.28,1.92,1.92,2.88,2.22-1.06,2.73,2,4.32,3.6.88-.32,1.76-.64,2.64-.96.24,1.72-.45,5.04.24,6.48.35.73,1.43.66,1.92,1.2.1.11,3.86,13.73,3.6,14.88.38.68.4.92.24,1.68-1-.84-1.14-1.06-2.64-.96v.48c-1.23,2.36.52,5.72.72,7.92-1.41-.04-1.16-.18-1.92.72,1.21,4.46,1.74,10.87,2.64,14.88-.96.16-1.92.32-2.88.48-.92,4.88-4.1,2.07-7.44,4.08-.23,1.17-.63,2.03-1.44,2.64-6.62-1.38-6.08.34-12,1.2-.4-1.07-.84-1.34-1.68-1.92-1.91-.07-2.51.66-3.6.48l-.24-.48c-.01-2.85-.69-8.92-2.4-11.76-.88-.96-1.76-1.92-2.64-2.88-.51-1.21.6-1.77.48-2.88-1.36-1.84-2.72-3.68-4.08-5.52-1.68-.08-3.36-.16-5.04-.24l-1.2-1.44c-.21-.11-9.36-1.53-9.84-1.44-1.44.48-2.88.96-4.32,1.44-1.65.29-2.6-1.53-4.32-1.92-3.08-.7-8.71,2.05-11.28,2.64-2.44.56-5.37-.88-7.68-1.68-4.09.94-5.03,3.41-7.92,5.04-1.12-.72-2.24-1.44-3.36-2.16-.8.32-1.6.64-2.4.96-3.09,9.59-1.95,28.29.24,39.12.5,2.47-1.06,5.56-1.44,7.68.16,4.24.32,8.48.48,12.72.8,4.72,1.6,9.44,2.4,14.16-.42,1.99-1.75,3.15-1.92,5.52-.27,3.76,2.51,6.72,3.36,9.36.92,2.88-1.09,3.71-.96,5.52.56,1.2,1.12,2.4,1.68,3.6-1.76.39-1.99,1.2-2.88,2.4.4,1.52.8,3.04,1.2,4.56.72.31.54.15.96.72,1.2-.4,2.4-.8,3.6-1.2.8,2.12,2.35,2.92,4.32,3.84.93-.68,1.07-.6,1.44-1.92,2.25.65,14.12.56,16.08,0,.75-.21,1.9-1.22,2.88-.96,1.62.89,2.1,1.8,4.8,1.92,1.14-.79,1.3-1.46,3.12-1.68,2.78,3.41,6.65,2.52,11.52,2.88,1.28-.24,2.56-.48,3.84-.72,1.47.43,2.85,1.52,4.56.72.5-1.86,1.92-2.25,3.12-3.36,3.52,1.74,9.33.49,14.16,1.68.63-.96,3.49-4.1,3.6-5.04-2.13-1.42-1.47-8.1-1.68-10.32.95-.64,1.39-1.05,1.92-2.16-1.04-1.52-2.08-3.04-3.12-4.56-.33-1.05,1.12-2.83,1.44-3.84,1.29-4.11-1.38-6.4-3.36-9.12.6-2.4.86-4.36,0-6.96-3.25-.69-3.64.77-6.48,1.44-2.72-.16-5.44-.32-8.16-.48-.95.22-2.65,1.58-3.12,2.4-2.69,5.7,5.09,14.98-4.8,16.08l-.24.48c.64.72,1.28,1.44,1.92,2.16l-.24.48c-4.97.26-18.4,2.38-22.32.72l-.24-.72c-.74-1.9-2.31-2.02-3.12-3.6-.56-2.16-1.12-4.32-1.68-6.48-.63-.57-1.58-.07-1.92-.96.72-1.76,1.44-3.52,2.16-5.28.72-4.07-1.47-5.98-2.88-8.4.56-1.12,1.12-2.24,1.68-3.36.67-1.92-.94-2.3-.48-3.84.69-2.32.19-4.15,1.92-5.76.03-.03-.07-4.43,0-4.56.98-1.83.34-5.82,1.44-6.72,1.14-.84,2.43-.14,3.84-.48,3.41-.81,9.56-2.05,13.2-1.92,4.68.17,5.91,3.12,10.32.96.96.13.62.44.96,1.2.96.4,1.92.8,2.88,1.2.96-1.11,1.94-1.91,2.88-3.12,7.72,2.95,6.51-.29,12.72-.96,3.22-.35,4.69,2.97,8.16,1.68,1.28-1.2,2.56-2.4,3.84-3.6,1.52.88,3.04,1.76,4.56,2.64,2.8,1.01,5.45.04,7.68-.96l.48.48c-1.18,1.51-2.13,1.99-2.16,4.8.94,1.51,2.01,1.83,3.36,2.88-.8,1.12-1.6,2.24-2.4,3.36.8,1.92,1.6,3.84,2.4,5.76.62,3.44-1.14,7.13.96,10.08.56-.08,1.12-.16,1.68-.24v.24c-.96,3.63,1.37,6.4.96,9.6-.38,3-1.39,4.76-2.16,6.72l.24.72c.85,3.14,1.2,7.74,1.92,12-.16,3.28-.32,6.56-.48,9.84.4.88.8,1.76,1.2,2.64,1.11,3.49-1.54,15.04-3.6,18-.96,1.37-3.27,1.89-4.32,3.36-1.73,2.42-2.02,4.04-4.8,5.28v3.36l-1.44.48c-.72-.32-1.44-.64-2.16-.96-.36.7-.26,1.23-.48,2.16-3.52.18-9.62,1.64-13.68,1.2-2.74-.29-5.91-2.33-8.16-1.92-.96.56-1.92,1.12-2.88,1.68-3.65,1.08-6.08-2.05-6.96,2.64-2.8.4-5.6.8-8.4,1.2-2.56-.56-5.12-1.12-7.68-1.68-2.32.32-4.64.64-6.96.96-1.66-.15-2.74-1.61-4.56-1.2-1.3.29-2.12,2.35-4.32,1.68-1.02-.31-2.22-1.56-4.08-1.2-1.36.64-2.72,1.28-4.08,1.92l-1.44-.96c-3.2.32-6.4.64-9.6.96-2.73.33-6.98-.73-9.36-.48-4.65.48-20.12-3.57-21.12-5.04-.24-1.04-.48-2.08-.72-3.12l-1.44-.96c-1.32-2.76,1.95-5.65,1.2-6.96-.61-2.7-3.85-3.23-5.04-4.8.88-1.44,1.76-2.88,2.64-4.32.4-2.4.8-4.8,1.2-7.2-.43-.84-.93-.81-1.2-2.16,1.02-.92,1.66-.56,1.92-2.4-1.02-.1-3.27-1.43-2.64-2.16.16-.8.32-1.6.48-2.4l-2.64-5.28c-.41-2.08,1.28-3.18,2.16-4.08-.64-.88-1.28-1.76-1.92-2.64-.52-1.74.71-2.57.72-3.84.03-5.97,0-9.72-2.4-14.4,2.08-.9,2.54-7.79,2.4-10.8-.04-.92-1.07-1.28-1.44-2.16-.51-1.23-.92-16.84-.48-19.44.71-4.18,1.6-8.94,2.16-12.24-.56-2.08-1.12-4.16-1.68-6.24.72-1.12,1.44-2.24,2.16-3.36.01-.04-1-7.43-1.2-8.4h1.2c.12-7.2,1.1-10.53-1.2-16.8,3.84-2.97,2.79-5.95,3.12-10.56.97,0,1.22-.09,2.16-.48v-6.72c1.27-1.61,11.26-7.83,13.68-6.24.79.5,1.14,1.44,1.68,2.16,2.32-.32,4.64-.64,6.96-.96.32-.64.64-1.28.96-1.92,3.24.72,7.89,2.19,11.28.24l.48-.96c1.52.79,7.09,2.81,9.84,2.16,1.04-.25,2-1.72,4.08-1.2,1.4.35,2.68,1.37,4.56.96,1.2-.4,2.4-.8,3.6-1.2.8.48,1.6.96,2.4,1.44,1.36-.4,2.72-.8,4.08-1.2,1.88.63,3.25,1.91,5.76,2.88.56-.48,1.12-.96,1.68-1.44l-.24-1.44c3.7.15,7.12,3.43,11.76,1.92,1.84-.6,2.42-3.21,4.8-3.6,2.73-.44,4.52,1.36,6.24,1.92.43.14,6.14.04,6.72,0l.72-1.2c-.16-.56-.32-1.12-.48-1.68Z" fill-rule="evenodd"/>
  <path d="M418.71,276.13c1.02.36,2.08,1.09,2.64,1.92,4.71,6.69.55,16.5,1.2,24.24.25,2.99.78,15.37,1.44,17.76-.96,2.8-1.92,5.6-2.88,8.4-.37,2.25.88,7.22,1.68,8.64-.16,3.36-.32,6.72-.48,10.08-.82,5.21,1.43,9.78,1.92,14.16-2.35,2.79.16,7.06-3.12,9.12.38,6.02,7.93,11.49,2.64,17.76l-1.2-.72c-.53.81-.46.43-.48,1.44.64-.08,1.28-.16,1.92-.24.05,1.18-.11,16.81-.48,17.76-1.07.33-.94.38-1.44,1.2,2.71,9.3,1.65,16.5,2.64,25.2-6.6.81-5.42,1.04-8.88,5.28-.85,1.04-2.48.32-4.08.72-1.34.33-1.12,1.48-1.92,1.92-3.6,1.98-10.65-1.64-12.72-2.88.76-5.42-.22-18.93-2.64-24.72.64-.4,1.28-.8,1.92-1.2-2.2-11.92,2.25-23.94-2.88-35.52,3.77-3.1,2.72-5.98,3.84-10.08l-1.2-.72c-2.76,1.21-5.09,2.34-8.16,2.88h-5.04c-1.45.79-2.62,2.34-4.8,2.64-1.84-.56-3.68-1.12-5.52-1.68-1.49,1.76-3.01,4.37-6.72,3.84-1.36-.24-2.72-.48-4.08-.72-1.36,1.04-2.72,2.08-4.08,3.12,1.94,8.64.18,15.62-.24,24.96.56,7.76,1.12,15.52,1.68,23.28-.32,1.84-.64,3.68-.96,5.52.34,1.49,1.69,2.58,1.68,3.84-3.45.09-7.07,3.02-7.2,6.48-1.57-.64-2.84-.92-4.32-.72-.82.59-1.31,1.05-1.2,1.92-2,.07-12.91-1.93-13.44-2.64-1.94-2.58-.47-16.01-1.2-19.68-.37-1.86-2.01-2.16-2.16-4.32v-.24c1.35-.89,1.76-1.47,2.4-3.12-.48-1.28-.96-2.56-1.44-3.84-.53-1.78.56-4.66,1.2-6.48-.16-6.56-.32-13.12-.48-19.68-.64-.96-1.28-1.92-1.92-2.88,1.28-3.59.38-5.25,0-8.4-.14-1.15,1.5-2.04,1.2-4.08-.36-2.42-1.96-5.56-2.16-8.4-.04-.52.68-2.68.96-3.84-.24-4.96-.48-9.92-.72-14.88.8-2.24,1.6-4.48,2.4-6.72.45-2.12-.02-6.04.24-7.68.31-1.96-1.1-4.84-1.44-6.24.24-1.28.48-2.56.72-3.84-.56-2.08-1.12-4.16-1.68-6.24-.49-2.88,1.81-5.57,2.16-7.92-.4-2.08-.8-4.16-1.2-6.24.64-1.2,1.28-2.4,1.92-3.6v-.24c-.48-1.76-.96-3.52-1.44-5.28,1.09-.28,3.2-3.1,3.36-5.04,2.71-.06,8.27-.88,10.08.24,1.94-.84,7.87-4.13,9.6-2.88,1.33,1.26,4.57,14.89,3.84,17.76-.48,1.9-2.24,3.74-2.64,5.28.8,4.4,1.6,8.8,2.4,13.2,1.08,6.21-2.4,9.91.48,14.64,3.12,1.44,6.24,2.88,9.36,4.32,2.32-.08,4.64-.16,6.96-.24,1.65-.14,5.44.11,6,.96,2.56-.4,5.12-.8,7.68-1.2,6.99-1.01,15.59,3.13,14.64-6.96-1.6-.82-2.63-2.87-3.36-4.56,1.13-3.5-.11-6.13-.72-8.88.48-1.6.96-3.2,1.44-4.8-.08-1.76-.16-3.52-.24-5.28v-.24c.64-1.04,1.28-2.08,1.92-3.12-1.78-3.03-3.35-4.33-3.36-8.88,4.66-2.86,5.28-7.63,8.16-12.24,3.66.13,8.87,1.21,12-.48Z" fill-rule="evenodd"/>
  <path d="M474.26,291.7c2.88-.48,5.76-.96,8.64-1.44,2.27.49,5.5,1.11,8.4.48,1.29-2.05.14-3.15,1.2-6,.91-2.45,2.71-2.85,3.6-6.24h-.96c-1.46-.17-1.88,1.68-3.6,1.2-2.28-.64-2.83-4.05-4.8-5.04-1.45-.73-2.4.43-4.08-.24-.72-.72-1.44-1.44-2.16-2.16-1.12.16-2.24.32-3.36.48-.56-.32-1.12-.64-1.68-.96l-1.44,1.44c-3.98-.29-5.32-.76-9.12-.48-.45,3.29-3.24,4.14-4.8,7.2-.24,2.96-.48,5.92-.72,8.88h5.28c3.02,1.35,5.13,2.26,9.6,2.88ZM492.98,408.82c1.42-3.26.84-11.64,0-16.56-.9-5.27.91-10.77.72-16.08-.56-2.4-1.12-4.8-1.68-7.2.56-1.44,1.12-2.88,1.68-4.32-.79-2.16-2.33-4.35-2.64-6.72-.32-2.47,1.3-11.03,1.92-14.16-2.03-4.99.74-12.01-.72-17.04-.64-2-1.28-4-1.92-6,.84-2.82,1.62-15.21.48-18-.56-.48-1.12-.96-1.68-1.44-.88-1.67-1.05-3.87-1.68-5.28-.24-.08-.48-.16-.72-.24-2.05,1.75-7.48,2.92-10.32,2.4-1.52-.24-3.04-.48-4.56-.72-2.55.95-4.53,3.72-7.44,4.8-.94,2.16.86,3.7.48,6.48-.45,3.33-2.35,6.85-1.68,10.32.57,2.96,1.94,8.18,1.68,11.04.08,4.48.16,8.96.24,13.44-.96,5.23-1.17,9.54-.96,14.64.16.96.32,1.92.48,2.88-.28,1.89-1.73,3.51-1.68,5.76.06,2.6.29,5.21.24,8.64-.05,3.34,2.92,5.97,2.64,9.36-.11,1.29-1.46,2.02-.96,4.08.46,1.9,1.58,3.99.96,6-.48.49-.24.34-1.2.48.64,3.12,1.28,6.24,1.92,9.36-.16,2.34-1.82,5.49-1.44,7.44.31,1.61,1.42,1.76,2.16,3.12.16,2.88.32,5.76.48,8.64.05,3.11.6,10.01-2.88,11.52.41.96,2.73,2.42,3.6,2.88.36,2.17-.42,2.79-2.4,3.12,1.43,1.42,3.11.33,5.04.96,1.28.96,2.56,1.92,3.84,2.88,5.44,2.13,12.76-4.9,18.48-5.76.16-2.16.32-4.32.48-6.48-.35-1.02-1.81-2.04-1.44-3.84,1.33-6.57,2.7-13.58.48-20.4Z" fill-rule="evenodd"/>
  <path d="M669.94,260.01c2.02.35,2.16,1.59,4.36,1.87,4.62-2.14,7.41-.19,12.05-1.25.35.48.69.97,1.04,1.45-.07,1.66-.14,3.33-.21,4.99.55.35,1.11.69,1.66,1.04v.21c-2.34,2.14.35,2.08-.21,4.78-.65,3.13-5.38,5.09-3.53,8.73l-.42.21c-4.22-1.31-8.55-.62-10.39,2.49-1.46-.22-10.88-1.15-12.89-.42-1.3.48-1.87,1.07-3.74,1.25-4.06.38-8.91-1.75-13.3-.42-1.55.47-2.75,2.18-4.57,2.7-1.91.54-10.51-2.12-9.98.83-.07,11.22-.14,22.45-.21,33.67.61,4.18,4.77,11.03-.83,12.47-.01,3.77,1.19,10.8,1.66,14.96-.28,5.33-.55,10.67-.83,16,.48,3.98,2.06,6.71,1.87,10.81-1.32,7.97-2.63,15.93-3.95,23.9-.1,2.39,1.2,5.68.83,8.52-.65,5.08-.9,10.27-2.7,14.34-.76,1.11-1.52,2.22-2.29,3.33.35,1.7-1.67,7.01-2.91,8.11-1.59.55-3.19,1.11-4.78,1.66-2.09,12.68-12.48,13.63-23.69,17.25-1.25.83-2.49,1.66-3.74,2.49-2.28,1.08-3.02-.16-5.4.42-1.59.62-3.19,1.25-4.78,1.87-2.18.56-4.4-.87-5.82-.62-1.64.29-3.04,2.38-5.2,1.66-1.88-.63-5.82-1.21-8.73-2.49-2.15-1.18-4.3-2.36-6.44-3.53-1.75-.19-3.03.82-4.57,0-.48-1.04-.97-2.08-1.45-3.12-1.11-.21-2.22-.42-3.33-.62-.22-.2-3.8-7.16-3.95-7.48-.97-.28-1.94-.55-2.91-.83-.64-3.36-2.77-3.82-4.36-6.03.48-.42.97-.83,1.45-1.25-.32-.93-.97-.77-1.25-1.45-.8-2.01,1.44-3.39.62-5.2-.72-1.65-2.84-3.29-5.2-3.33.48-1.04.97-2.08,1.45-3.12-.28-.97-.55-1.94-.83-2.91.26-1.13,2.15-2.71,1.45-4.78-.76-2.25-3.14-3.61-3.74-6.44,1.37-.06,1.49-.27,2.08-1.04-.31-2.75-.81-11.6.21-14.55.59-1.71,2.42-2.17,2.49-3.95,6.04-.24,22.11-.05,23.9,5.4.51,1.86-.07,3.14-.42,4.78-.31,1.47.82,8.22,1.04,8.73l-1.04,1.04c.44,4.25,2.74,3.5,3.74,8.73,2.01.61,3.52,1.78,4.99,2.91l-.42.62c-.48.28-.97.55-1.45.83.14.62.28,1.25.42,1.87,1.19.78,1.9,1.64,3.33,2.29.83-.42,1.66-.83,2.49-1.25.55.48,1.11.97,1.66,1.45-.21.69-.42,1.39-.62,2.08.56.98.98,1.21,2.08,1.66.55-.48,1.11-.97,1.66-1.45,4.15-1.67,7.03,3.37,11.43,2.7.28-.62.55-1.25.83-1.87,3.98.29,7.25.03,9.35-2.91-.28-.55-.55-1.11-.83-1.66,2,.13,4.02-.25,5.4-1.25-.21-.62-.42-1.25-.62-1.87,1.56.35,3.56-.79,4.57-2.08-.37-1.41-.95-1.9-1.25-3.33,1.4-.71,1.82-1.05,2.49-2.49l-.83-1.04c1.73-.35,3.46-.69,5.2-1.04v-1.66l-.62-1.25c-.9-.14-1.8-.28-2.7-.42.19-2.46-.47-2.69-1.04-4.57-.56-1.83,1.21-2.46.62-4.16-.48-.75-.76-.6-1.04-1.66.48-.55.97-1.11,1.45-1.66-.35-2.56-.69-5.13-1.04-7.69.62-1.18,1.25-2.36,1.87-3.53-.85-1.06-1.17-1.64-2.49-2.29v-.62c1.22-1.01,2.61-1.75,2.7-3.95-.76-.43-1.23-1.1-1.45-2.08,1.07-.65,1.23-.98,1.87-2.08-.74-1.51-1.4-2.43-2.49-3.53.48-.62.97-1.25,1.45-1.87-.97-2.49-1.14-5.9-.62-8.52-.76-.49-1.53-1.4-1.87-2.29,1.56-.3,2.51-.77,3.12-2.08-.4-1.48-1.07-2-1.87-3.33,1.86-.86,1.04-1.82.21-3.12.63-1.91.82-3.39,1.87-4.78-.28-1.09-.96-1.77-.62-2.29.55-.35,1.11-.69,1.66-1.04v-.83c-.81-.94-1.75-1.47-3.12-1.87.42-.55.83-1.11,1.25-1.66-.43-.8-.62-1.3-.62-2.08l1.04-1.04c-.22-.99-.44-1.12-1.04-1.66,1.12-1.65.84-2.18-.62-2.91l.42-.62c.65-.43.43-.1.62-1.04-.51-.26-.37-.22-.62-1.04,1.23-.14,1.56-.48,2.29-1.04v-.83c-.55-.69-1.11-1.39-1.66-2.08.33-1,.86-1.13.62-2.08-.18-1.14-.22-1.17-1.25-1.45.16-1.52.84-2.79,1.25-4.16.32-1.05-.59-2.09-.83-2.91-.62-2.1.52-3.27.83-5.4-.21-2.36-.42-4.71-.62-7.07.62-3.39,1.25-6.79,1.87-10.18-3.3-1.54-7.7-1.23-10.39.21-1.32-.62-2.63-1.25-3.95-1.87-2.75.3-4.29,1.5-6.44,2.08-3.95-.07-7.9-.14-11.85-.21-1.8-.48-3.6-.97-5.4-1.45-3.52-.64-7.65.31-10.6-1.04-2.55-1.17-3.36-4.23-5.82-5.4-3.3-.86-7.38,1.34-9.98.21-.21-.62-.42-1.25-.62-1.87,1.8-2.35,2.25-3.99,1.04-6.86,1.88-.62,2.68-2.33,3.74-3.74-.55-.28-.72-.49-1.45-.21-.81-.01-1.16.36-2.29.21v-.21l.62-.42c1.53-1.51,8.39-1.27,11.43-2.29,1.94-.9,3.88-1.8,5.82-2.7,2.15.07,4.3.14,6.44.21,1.32-.48,2.63-.97,3.95-1.45,2.77.07,5.54.14,8.31.21,5.6-.17,16.29-.5,23.9.83,1.52-.21,3.05-.42,4.57-.62,2.54-.34,5.36.49,7.27.83,2.18.38,12.8-.62,14.76-1.04,5.69-1.23,9.85,1.3,13.93,2.08,2.56-.35,5.13-.69,7.69-1.04,1.76.09,4.08,1.18,5.4,1.04l6.86-2.29c1.5.39,1.57,1.6,3.95,1.66,1.04-.83,2.08-1.66,3.12-2.49Z" fill-rule="evenodd"/>
  <path d="M705.2,265.94c2.08.05,8.33-.48,8.88-1.16v-1.35c3.55-.42,7.5,1.03,10.43,1.35,4.3.47,9.42-.48,12.94-.97v.39c1.36,3.64-1.19,6.31,3.67,7.92l-.39.19c-.32.3-.68.43-.97.77l-.19.97c.72.37.88.56,1.74.39l-.19.58c-.84.19-1.67.39-2.51.58v.39c-.46,2.15,1.21,3.61,1.74,5.41-1.35-.21-1.82-.13-2.51.77,3.33,5.53,2.62,14.06,1.16,22.01-1.19,6.48.88,14.13.58,18.54-.14,2-.78,8.08-.58,8.88.42,1.69,2.43,2.07,1.74,4.44-1.25-.09-1.26-.21-1.93.58-.39,2.77-.77,5.54-1.16,8.3-.23,1.26.98,4.71,1.54,6.18,1.06,2.76-1.34,5.63-1.93,6.95-1.26,2.81,3.31,4.77,1.54,7.34-1.05.17-.73.07-1.16.77.47,4.18-1.07,9.24-1.74,13.32.39,1.8.77,3.6,1.16,5.41.13,3.86.26,7.72.39,11.59-.84.97-1.67,1.93-2.51,2.9.83,1.15,2.66,3.66,2.7,4.83.46,2.24-1.54,2.47-1.93,4.44.33,1.08.63,1.73,1.16,2.51,2.5.43,3.99,2.07,6.76,2.51,2.51-.06,5.02-.13,7.53-.19,2.82.35,4.41.8,6.76,1.16,3.28.5,9.22-.25,11.78-.77,4.44-.9,12.05.54,16.41,1.35,4.4.82,8.24-2.7,11.78-1.93,2.38.52,3.55,2.98,7.34,3.09l.39-.77.58.39c.46,4.33,4.06,4.98,7.34,6.57l-.39.19c-.64.32-1.29.64-1.93.97v1.35c1.44.93,3.31,1.45,5.41,1.74-.35,5.69-2.45,8.65-2.7,14.87.51.39,1.03.77,1.54,1.16v.19c-5.96,2.17-1.52,11.92-11.59,13.13-4.05-3.72-8.63-.04-10.23-.97-1.26-.63-1.24-1.8-3.09-1.35-.9,3.27-5.2-.16-8.88.39-2.59.38-4.03-.03-6.37-.77-1.74.19-3.48.39-5.21.58-1.71-.28-3.65-3.11-5.79-2.12-.84.38-1.26,1.26-2.51,1.54-1.84-2.47-5.82-.64-8.3-.58h-14.68l-8.11,2.7h-4.25c-1.47-.38-1.45-1.75-2.51-2.32-2.36-1.26-4.5.72-5.21,2.32-.97-.51-1.93-1.03-2.9-1.54.58-.37.31-.04.58-.77l-2.51-2.51c-2.04.39-2.96-.76-4.25-.97-2.14-.35-6.57,1.39-8.11,2.32-.69.41-.78.33-1.35,0-.49-.51-.19-1.83-.39-2.12-1.12-1.73-2.98-2.22-3.86-4.44h-1.74c1.38-4.1.74-13.97,2.51-16.22-.77-1.29-1.54-2.57-2.32-3.86l.39-.19c.74.29,1.46.44,2.32.19-.19-2.51-.39-5.02-.58-7.53-.5-1.02-1.64-1.04-2.12-2.12,1.7-.25,2.25-1.48,2.51-3.09-.78-.47-.77-.29-.39-.97.32-.58.64-1.16.97-1.74-.54-1.19-1.92-2-1.74-3.09.51-.64,1.03-1.29,1.54-1.93-1.34-3.06-.15-9.87.39-11.97.4-1.57-1.45-4.01-.97-5.21.57-1.41.96-3.4-.39-5.02.63-.86,1.09-1.37,1.54-2.51,0,0-2.62-5.4-2.7-5.99.99-1.5,2.48-2.01,3.86-3.09-.01-1.15-.11-1.46-.77-1.93-.71-.19-1.42-.39-2.12-.58-.17-1.15-.87-2.76-.19-4.25,1.88.8,3.52-.43,5.02-1.16l.19-.97c-.68-1.2-1.68-1.88-2.7-2.7.29-1.08.65-1.15.77-2.51-2.42-1.67-.7-3.66-2.32-5.21-.58-.26-1.16-.51-1.74-.77l.39-.58c2.57-.91,3.48-7.07,3.67-9.85-.84-.77-1.67-1.54-2.51-2.32.06-.51.13-1.03.19-1.54,1.07-.06,1.14-.07,1.54-.77.34-.47.48-1.04,0-1.93-.62-1.04-1.28-.98-2.7-.77v-1.16l2.51-5.02c-.32-.58-.64-1.16-.97-1.74.45-1.22.9-2.45,1.35-3.67-.28-4.6-2.92-2.14.58-7.92-2.04-2.48-2.15-4.86,0-7.14-.51-2-1.03-3.99-1.54-5.99.25-.91,1.69-2.8,1.16-4.06l-.97-.39v-6.95c1.09-.5,1.86-.72,1.93-2.32-.39-.45-.77-.9-1.16-1.35.58-.84,1.16-1.67,1.74-2.51-.32-.97-.64-1.93-.97-2.9,2.17-1.36.83-3.25,1.16-5.21.45-.13.9-.26,1.35-.39-.18-2.03-1.38-2.77-1.35-5.02.69-.28.71-.53,1.35-.39,1.53-.28,2.34-.45,3.28-1.74v-1.54Z" fill-rule="evenodd"/>
  <path d="M136.88,515.64c2,.14,2.79-.12,4.33-.72.95-2.66.45-5.02.24-8.42,3.17-1.4,2.59-2.63,3.13-6.26,4.04-.58,5.53-5.2,10.11-6.02,1.55,1.81,7.46,5.92,9.87,6.74,2.52.86,6.14.56,7.94,2.17.64,1.28,1.28,2.57,1.93,3.85,1.51,2.19,4.29,3.46,5.54,6.02.32,1.52.64,3.05.96,4.57,1.18,2.12,4.08,3.6,5.54,5.78-.14,2.01-1.25,2.45-1.44,3.85.32.72.64,1.44.96,2.17-.24,1.6-.48,3.21-.72,4.81-3.7.84-.04,4.27-.48,6.74-.2,1.1-1.41,1.66-1.68,3.13,1.27,1.21,1.74,2.71,1.68,5.3-.96.4-1.93.8-2.89,1.2-.43,3.61,3.88,5.64,3.13,9.15-.72,1.6-1.44,3.21-2.17,4.81.18,1.46,1.91,2.52,1.68,4.57v.72c-.72,1.6-2.3,2.26-2.17,4.81.48,2.65.96,5.3,1.44,7.94-.34,2.17-2.93,11.21-2.17,13.48.55,1.63,1.82,2.51,1.93,5.05-1.34.52-1.04.88-1.2,1.93.81.59,3.79,6.39,3.85,7.94-.95,2.35-2.39,3.55-3.85,5.3.98,2.1,2.46,2.97,2.65,6.02l-1.44,1.2c.95,1.26,1.77,7.24,1.2,10.59-.32,1.52-.64,3.05-.96,4.57l2.17,2.17c-2.11,5.89-.33,5.41,1.44,10.11l.72,9.39c-.01,2.86-2.07,4.68-2.89,8.18-.66,2.8,4.12,7.14,2.65,9.39-1.66,3.25-5.26,3.41-9.63,4.57-12.38,3.3-14.17,2.51-21.9-6.02l.24-1.2c1.08-.16,1.57-.37,2.17-.96-1.65-4.52-1.15-10.33-2.65-15.4-.8-1.85-1.6-3.69-2.41-5.54-.52-2.7.96-4.38,1.2-6.5.21-1.8-1.06-2.19-1.44-3.13.32-2.73.64-5.46.96-8.18-.48-1.04-.96-2.09-1.44-3.13-1-4.61,3.41-7.89,2.17-11.07-.69-1.07-1.74-1.34-2.89-1.93.08-4.81.16-9.63.24-14.44-.56-2.01-1.12-4.01-1.68-6.02-.18-2.44,1.71-3.95,2.41-5.54,1.55-3.55-1.44-6.45-1.93-7.94-.57-1.75.97-3.21,1.2-4.33.33-1.56-2.83-13.91-3.37-14.68h-1.93c-2.42,1.19-1.69,4.4-3.61,5.78-.72.08-1.44.16-2.17.24-.64,1.28-1.28,2.57-1.93,3.85-1.46,1.94-3.81,3.48-5.3,5.54-1.04,2.17-2.09,4.33-3.13,6.5-1.13,1.66-3.76,1.97-4.81,3.85-.98,1.75-.99,3.99-1.93,5.54-1.12.24-2.25.48-3.37.72-2.67,6.49-2.39,9.23-7.46,13.48.24,1.2.48,2.41.72,3.61-.7.56-.55.42-.72.96h-.96c-1.11-4.02-3.61-2.67-6.74-4.09-1.76-5.47-5.02-3.83-6.98-6.98-1.48-2.38-2.92-5.93-5.78-6.74-1.47-.42-3.13.8-4.57.72-1.64-1.81-1.87-2.43-4.57-3.37.24-1.98.25-2.28-.72-3.85-1.42-.14-2.01-.27-2.65-1.2v-2.41c-.64-1.94-2.55-2.23-3.61-3.61-.88-2.01-1.77-4.01-2.65-6.02-1.35-1.05-3.76-.59-4.81-1.93-2.3-2.7.1-6.03-3.37-7.7-1.53-.61-2.92.46-4.09.96v-.48c-1.91-3.96-.91-4.62-4.09-7.46-1.33,0-1.92.05-2.41.96-3.4,2.28-.01,19-.48,23.35-.26,2.42.63,5.57.96,8.91-.48,4.17-.96,8.34-1.44,12.52.4,1.85.8,3.69,1.2,5.54.43,2.73.67,8.1,1.2,11.79-.48,1.85-.96,3.69-1.44,5.54-.58,4.72,1.43,12.86,2.41,18.77.45,2.71-1.73,4.02-.72,8.18.88.56,1.77,1.12,2.65,1.68.27,3.01.79,6.45-.48,9.39l-1.93,1.93c.4,2.89.8,5.78,1.2,8.67-.4,4.17-.8,8.34-1.2,12.52-5.2,2.2-4.3.76-9.87-.24-1.93.24-3.85.48-5.78.72-9.48-1.47-11.44-6.49-13-14.2-.67-3.31-2.84-5.18-2.89-8.42.72-.48,1.44-.96,2.17-1.44.07-3.78-.81-6.62-1.68-9.39,1.39-.24,1.4-.38,1.93-1.44-2.16-5.6-1.83-12.42-3.13-18.05,2.33-1.82-.76-5.84,0-7.94,1.34-3.7-1.47-8.84-.48-13.72.48-2.39,1.82-4.58,1.44-7.22-.21-1.49-1.58-2.88-2.41-3.85,1.82-3.02-.94-5.19-1.68-7.7,1.43.02,1.55.1,2.17-1.2,2.5-4.67-1.36-13.62.48-19.26.45-1.38,1.37-1.77,1.44-4.09-.72-.64-1.44-1.28-2.17-1.93.22-2.39,1.49-2.15,2.17-3.61,2.05-4.39-1.19-7.73-1.93-10.83.64-.24,1.28-.48,1.93-.72.82-4.69.47-5.64-.72-9.63-.73-2.44,2.3-3.21.24-7.22.62-.59,1.36-.75,2.41-.96.67-4.37,2.59-7.36,3.61-10.59,1.08-3.41-.37-5.25,1.44-7.7,4.64-.89,5.82-4.21,12.04-3.13l-.72-.72c1.86-2.62,2.41-2.31,5.54-3.85.96-1.12,1.93-2.25,2.89-3.37,1.83-1.45,6.92-1.47,9.15-.96.32.72.64,1.44.96,2.17,1.33.06,1.72.05,2.65.48-.03,1.69-.04,1.66.48,2.89,2.7.77,6.84-.34,7.94.96,1.22.94,1,2.79,1.2,4.57,2.88.81,6.21,2.96,7.46,5.3.32,1.28.64,2.57.96,3.85,1.44.88,2.89,1.77,4.33,2.65-.15,6.64,9.9,7.56,12.04,12.76,1.56-.09,2.76-.2,3.37.72,1.37,3.33,1.83,4.14,5.54,5.05.11,3.42,3.4,6.15,5.78,7.94,1.12-.16,2.25-.32,3.37-.48.77-1.58.91-2.64.48-4.57,2.94-.38,1.26-1.05,2.41-3.13.24-.44,2.22-1.32,2.65-1.68-.25-4.03,1.21-4.75,1.93-7.7,1.3.12,1.49.19,2.41-.24,1.21-4.9,3.55-8.21,4.09-13,1.49.26,1.67.08,2.41-.96-.12-1.83-.73-2.45-1.44-3.61l.24-.24c.85.31.8.66,1.44,0,2.16-1.4,2.28-4.17,2.17-7.46Z" fill-rule="evenodd"/>
  <path d="M358.05,503.55c2.46.69,5.18,3.18,7.27,3.91,1.25.44,3.18-.23,4.47.56.58.57.38.28.56,1.4-2.65,6.59-1.79,26.85,1.12,31.02-.84.93-1.68,1.86-2.52,2.79-.19.45-.43,16.34-.28,17.33.65,2.14,1.3,4.29,1.96,6.43v8.11c-.75,2.42-1.49,4.84-2.24,7.27.56,1.58,1.12,3.17,1.68,4.75-.56.75-1.12,1.49-1.68,2.24-.84,2.54.91,4.03,1.12,6.15-1.71.8-2.11,2.72-2.24,5.03,1.16,1.16,2.06,1.98,2.79,3.63-1.81,1.53-2.99,2.21-3.07,5.59.56.75,1.12,1.49,1.68,2.24v.28c-1.47.2-1.61.51-2.52,1.12.18,4.42,3.27,7.05,5.31,9.78-.71,2.75-2.77,3.1-3.35,5.59-.89,3.79.22,7.59.56,10.9-.19,8.1-.37,16.21-.56,24.32-1.4,1.02-2.8,2.05-4.19,3.07.19,1.99.75,2.8.56,4.47-5.61,2.44-9.48.49-14.81,1.96-3-2.23-3.95-6.18-5.31-9.22h-1.12c-.69.62-1.43.85-1.96,1.68-2.09,4.18-.64,5.58-.28,9.22l-.28.28h-.28c-1.7-2.08-2.39-5.42-4.19-7.55-2.42-1.58-4.84-3.17-7.27-4.75-1.12-1.94-.24-4.75-1.12-6.43-1.77-.56-3.54-1.12-5.31-1.68-.48-3.19-1.04-3.65-3.91-4.47-.02-1.27-.06-1.61-.56-2.24l-.56.28c-.37,1.02-.75,2.05-1.12,3.07h-1.96c-2.71-4.42-4.26-9.85-10.06-10.9.2-2.66-.31-3.16-.84-5.31-5.47-.92-5.16-3.2-11.46-3.63-.12-2.16-.44-3.08-1.4-4.75-12.19-1.47-6.78-6.26-12.02-8.94-1.77-.28-3.54-.56-5.31-.84-.39-1.61-.95-3.42-2.24-4.19-1.4-.99-2.05.09-3.63.56.19-4.44-1.74-5.27-5.31-5.87.31-1.68.39-2.12,0-3.91-1.72-1.11-4.72-1.44-6.71-2.52,1.95-5.07-4.72-5.26-6.43-8.38-1.87-3.4-1.13-4.2-3.91-6.43-2.54.57-4.52,3.58-5.59,5.59,1.08,1.56,4.22,4.44,3.07,7.83-.37,1.1-1.93,1.34-2.24,2.79.28,1.3.56,2.61.84,3.91-.65.56-1.3,1.12-1.96,1.68-1.82,2.75,1.55,6.37,2.52,7.55-1.02.65-2.05,1.3-3.07,1.96l-.28,1.68c.88,1.12,1.98,1.6,2.52,3.07-.9,1.17-2.17,3.15-2.79,3.91,2.15,3.23,5.41,4,5.87,9.22-4.35.98-1.75,4.74-1.96,8.66-.7,13.03,2.15,29.17-4.19,38.01-1.68.75-3.35,1.49-5.03,2.24v2.24c.98,1.5,2.08,1.92,3.35,3.07-9.47.92-11.31-1.81-16.77,3.91-.84-.47-1.68-.93-2.52-1.4.05-8.59-6.92-14.55-5.59-22.08.46-2.62,2.44-2.78,3.07-4.47-.09-1.49-.19-2.98-.28-4.47,1.26-1.58,2.87-2.85,3.63-4.75.66-1.64-4.25-11.12,0-14.53l-.56-.56c-.09-2.79-.19-5.59-.28-8.38.26-6.17-1.76-14.09.84-19.84-.93-.75-1.86-1.49-2.79-2.24.8-2.22-.36-3.98-.56-6.71.93-2.42,1.86-4.84,2.79-7.27-.75-3.82-1.49-7.64-2.24-11.46-.57-3.97.58-8.33,1.4-12.02-.47-2.33-.93-4.66-1.4-6.99l.28-.28c1.94-.06,2-.31,2.79-1.4-.75-2.52-1.49-5.03-2.24-7.55.68-1.06,1.56-1.5,2.52-2.24v-.84c-2.26-2.01-2.45-4.31-3.35-6.43.65-1.02,1.3-2.05,1.96-3.07-1.18-3.46-2.67-8.38-5.31-9.78-1.68.53-3.1.15-4.19-.56-.47-1.49-.93-2.98-1.4-4.47,2.05-2.89,4.1-5.78,6.15-8.66.79-2.25,2.86-13.94,4.19-15.37,2.64-1.27,5.55.17,6.99,1.68l-.56.56c-.65.37-1.3.75-1.96,1.12l.28,1.4c2.33.37,4.66.75,6.99,1.12,1.21-.4,1.07-1.55,2.79-1.12,1.3,1.02,2.61,2.05,3.91,3.07.75-.65,1.49-1.3,2.24-1.96.65,1.49,1.3,2.98,1.96,4.47,2.3,2.61,5.65.85,9.5,1.68,2.24.48,8.76,4.77,9.78,6.15.89,1.2-.07,2.14.84,3.35,2.14,1.58,4.29,3.17,6.43,4.75.93,1.89.29,3.52,1.4,5.03,2.05,1.77,4.1,3.54,6.15,5.31,1.1,1.68,1.36,3.77,2.79,5.03,2.14.65,4.29,1.3,6.43,1.96,1.79,1.13,1.82,5.14,2.79,6.15,3.09,3.18,7.81,4.61,11.18,7.55,2.09,1.82,1.46,5.15,3.07,7.55,2.52,3.73,6.63,3.66,10.34,5.31,1.63.73,1.61,3.78,2.79,5.03,1.75,1.86,4.43,2.8,6.15,4.75,2.79,3.54,5.59,7.08,8.38,10.62,1.92,1.12,5.05.76,6.71,1.68-.27,4.54,6.43,8.76,10.06,6.15-.28-2.05-.56-4.1-.84-6.15.65-.75,1.3-1.49,1.96-2.24v-7.27c.21-3.67-2.28-7.33-3.07-10.62.47-2.89.93-5.78,1.4-8.66-2.52-8.46-2.95-16.04.56-23.76-2.07-3.12-4.12-8.95-3.91-13.97.28-1.58.56-3.17.84-4.75-.84-1.96-1.68-3.91-2.52-5.87.08-2.41,6.26-12.92,7.83-13.97,1.62-1.09,8.77-1.74,12.02-3.63Z" fill-rule="evenodd"/>
  <path d="M524.04,696.65v-4.44c-.67-1.08-1.35-2.15-2.02-3.23-.58-2.13,1.2-3.92,1.41-5.25-.2-1.01-.4-2.02-.61-3.03-1.41.13-2.83.27-4.24.4-.53-.75-.77-.83-.81-2.22,1.21-.67,2.42-1.35,3.63-2.02.13-.2.27-.4.4-.61-.53-.23-1.24-.24-1.61-.61-.88-.58-.97-2.29-1.01-3.63.2-.34.4-.67.61-1.01,1.35.07,2.69.13,4.04.2-.87-.27-1.75-.54-2.62-.81-.34-.34-.67-.67-1.01-1.01.1-2.1.88-2.3,1.82-3.43-.65-.28-.67-.22-1.82-.2-.13-.87-.27-1.75-.4-2.62-3.68.99-6.99-.38-11.3-.4-.13-.27-.27-.54-.4-.81v-.2c.47-.47.94-.94,1.41-1.41,2.98-.6,7.15-.14,10.7-.2-.13-.54-.27-1.08-.4-1.61.81-.34,1.61-.67,2.42-1.01-.13-1.34-.86-2.09.61-3.83h-1.41c-1.09-1.57-1.56-2.54-.61-4.44-.95-.74-1.56-2.21-2.02-3.43.93-.97,1.55-1.32,3.23-1.61-.92-1.09-2.18-1.73-1.21-3.63-.47-.13-.94-.27-1.41-.4-.87-1.46-1.19-3.92-.2-5.65.47-.34.94-.67,1.41-1.01.24-.93-.87-1.76.2-2.62,1.01-.2,2.02-.4,3.03-.61-.5-.75-1.58-.35-2.02-1.01-2.64-3.98-3.23-3.19-2.42-8.88.34-2.4.72-3.53,2.83-4.04-.74-.74-1.48-1.48-2.22-2.22-1.49-2.44-.43-7.65-.81-10.9-.61-5.27-1.23-18.38,1.01-24.62.67-.27,1.35-.54,2.02-.81-1.06-1.9-2.64-1.94-3.83-3.83.48-1.55.37-2.36,2.42-2.42-1-1.72-1.89-2.1-2.83-4.64.5-.63.28-.71,1.21-1.01-.47-.74-.94-1.48-1.41-2.22.14-1.16.32-1.13.81-1.82-.34-.4-.67-.81-1.01-1.21.48-.71.54-.84,1.61-1.01-.61-2.09-1.21-4.17-1.82-6.26.81-.34,1.61-.67,2.42-1.01-.44-2.1-.79-1.85-.4-4.24-1.08-.06-1.53-.18-2.02-.81-.77-.98-.42-2.37-.2-3.43.87-.48.8-.45,2.02-.4-1.08-5.92-2.66-14.43-2.22-20.79.23-3.33,1.09-7.79.4-10.7-.62-2.63-2.59-2.94-3.43-4.84-.41-.93-.59-6.23-.4-8.07-1.65-1.66-4.03-2.54-5.65-4.24.18-1.51.71-1.86,2.22-2.02-1.61-1.31-6.49-.79-8.88-.81-2.36,2.85-6.97,1.21-10.7,1.41-6.59.36-30.75-.12-34.11,2.62-1.89-.24-3.2-2.19-4.84-2.62-1.28-.34-5.32,1.7-6.46,1.41-3.87-.99-6.92-1.89-10.9-.4-3.18-2.95-8.24-1.64-13.32-.2l-1.61-1.61c-.2.07-.4.13-.61.2-2.8,1.41-3.46,1.5-7.47,1.41-.48-.97-.89-1.5-2.42-2.02-.07.07-.13.13-.2.2.27.34.54.67.81,1.01-1.4,1.58-3.38,2.32-5.45,3.23l-1.82-1.82h-.81c.13.4.27.81.4,1.21-.74,1.39-1.75,1.81-3.63,2.02.61.83.97,1.11,1.01,2.62-.2.34-.4.67-.61,1.01-.87.07-1.75.13-2.62.2-1.47,4.81-2.37,9.2-.4,13.52-.05,1.86-.72,1.54-1.61,2.42.52.31-.21,11.17,0,12.71-.47.07-.94.13-1.41.2.32.85.63.9,1.41,1.21.54,1.85,1.14,2.73.4,5.05-.4.75-.52.76-1.41,1.01.45,1.86,2.4,5.9,1.82,8.07-.47.47-.94.94-1.41,1.41-.06.13-.3,4.34-.4,5.25.27,2.29.54,4.57.81,6.86-.12,4.19,2.27,7.65-.2,10.7.44,1.62,1.56,2.82,1.61,4.24.34,1.15-.73,1.5-1.61,2.02.57,1.3,1.79,2.32,1.82,4.04-.47,1.01-.94,2.02-1.41,3.03.07,2.62.13,5.25.2,7.87.51,2.18,1.78,2.06,1.61,5.05-3.27,1.53.37,4.06,1.61,5.85v1.21c-.77.56-1.57.87-2.83,1.01.2.47.4.94.61,1.41-.54.67-1.08,1.35-1.61,2.02,1.79,3.54,1.59,7.05,2.22,10.49-.47.2-.94.4-1.41.61.37.94,1.07.88,1.41,1.61.83,1.77-.51,2.86-.61,4.84.07.13.13.27.2.4,3.55.58,4.12.83,5.85,3.03-.07.27-.13.54-.2.81-.95,1.4-4.07.44-5.25,2.02-1.47,2.26.43,7.18-.4,9.49v.61c1.39-.08,1.79-.01,3.03.2.55,2.84-.9,3.06-2.83,4.44-.18,1.15-.22,2.51.4,3.63.74.61,1.48,1.21,2.22,1.82v.2c-.77.5-1.25.77-2.02.81-.07.2-.13.4-.2.61.8,1.17,1.47,1.65,2.02,3.23-.61.27-1.21.54-1.82.81.37,1.32.77,2.36,1.01,3.63-.7.34-.93.47-1.61.4-.87.99.49,2.46,1.41,3.43-2.27,4.8.64,8.84,0,12.71-.27,1.62,1.86,5.71-.2,6.66.54,1.08,1.08,2.15,1.61,3.23.2,2.96.4,5.92.61,8.88,1.48,1.91,3.55,2.48,4.84,4.84,1.71.36,3.16-.44,5.25,0,1.75.81,3.5,1.61,5.25,2.42,5.31-3.87,17.56-4.41,23.21-2.42.57.21.1.34.61,0,4.13-2.77,8,1.38,11.3,1.41,1.87.95,3.38-.64,3.83-1.82,4.27.03,4.47,2.16,7.87,2.02l2.02-2.02c2.14.3,3.32,2.08,5.25,2.42,2.02-.34,4.04-.67,6.05-1.01,7.68,1.93,6.4,3.33,14.33,0,2.5,1.61,9.71,4.02,12.51,1.41.74.46.92.69,1.21,1.61,2.26-.55,7.49-.93,8.88-2.02,1.01.4,2.02.81,3.03,1.21.81-1.08,1.61-2.15,2.42-3.23,1.35-.13,2.69-.27,4.04-.4,3.75-1.72,1.17-2.53,7.06-2.62v-.4c-1.18.18-3-.21-3.83-1.41ZM491.55,668.39c-1.38.85-12.64,1.31-13.52,1.01-.94-.47-1.88-.94-2.83-1.41-2.49.54-4.98,1.08-7.47,1.61-1.39-.33-1.53-1.79-3.83-1.41-3.82.63-9.04,2.8-11.91.81h-.2c-1.28.81-2.56,1.61-3.83,2.42-1.74.7-8.48-1.91-10.09-2.42-2.04-.65-5.03,1.39-7.67.2-2-1.89.14-8.73-.61-12.51-.43-2.19-1.71-7.78-.61-11.1.56-1.68,3.08-4.48,2.42-6.66-.54-.47-1.08-.94-1.61-1.41-1.67-3.18-1.53-11.89-.4-14.53-.49-1.96-2.76-4.37-3.43-6.26v-4.24c1.33-6.75,1.11-17.79.4-24.22-.47-4.23-.48-8.72,1.21-11.71-.19-1.92-1.2-1.42-1.61-2.62-.9-2.62.5-14.57,1.01-17.56.89-5.23-.95-9.76-1.61-13.12-.64-3.24,1.39-5.47,1.82-7.47-.27-1.68-.54-3.36-.81-5.05,1.93-2.35,6.38-3.92,10.7-2.62,1.68.51,2.73,2.07,5.45,1.61,8.64-1.44,15.47-1.12,22.4-3.03,1.91-.52,3.65.74,5.05,1.01,3.94.76,7.5.13,11.1-.2l.2-1.01c.38.32,2.32,3.54,2.42,3.83-.07,3.7-.13,7.4-.2,11.1.34,1.95.67,3.9,1.01,5.85-.61,1.21-1.21,2.42-1.82,3.63.65.71,3.07,6.83,2.83,8.48-.27,1.08-.54,2.15-.81,3.23.47.67.94,1.35,1.41,2.02-.2,1.28-.4,2.56-.61,3.83.43,1.11,1.53,4.18,1.82,6.05-.81.67-1.61,1.35-2.42,2.02-.63,2.44-.1,3.47,1.01,5.05l-2.22,2.22c.36,1.36,1.71,1.53,2.83,2.02.07,5.26,1.35,8.48-1.21,13.12.4.27.81.54,1.21.81,1.13,3.16-3.19,6.05,1.21,9.49-1.16,1.96-1.44,4.57-.81,7.67.67.27,1.35.54,2.02.81-.47,2.96-.94,5.92-1.41,8.88.27,2.29.54,4.57.81,6.86.67,2.35,1.35,4.71,2.02,7.06.34,2.44-1.52,8.28-.81,11.3.26,1.12,1.42,11.08,1.82,11.71.57.89,1.39.91,1.82,2.22-.72.89-1.38,1.18-1.61,2.62Z" fill-rule="evenodd"/>
  <path d="M659.29,587.32c-.43-1.22-.87-2.44-1.3-3.65.26-2.78.52-5.57.78-8.35-1.16-.4-1.81-.81-2.35-1.83-.53-1.41,1.25-3.42,1.83-4.7-.7-1.74-1.39-3.48-2.09-5.22,3.31-6.93-1.36-10.55-.52-14.09.43-2.35.87-4.7,1.3-7.05-.96-2.7-1.91-5.39-2.87-8.09.09-1.3.17-2.61.26-3.91-1.13-.96-2.26-1.91-3.39-2.87-2.17-2.6-1.33-7.8-1.3-11.48-3.48-1.39-6.96-2.78-10.44-4.18-1.83.43-3.65.87-5.48,1.3-2.36-.65-3.36-2.89-6.26-3.39-1.41-.25-10.51,1.26-11.74.78-.43-.52-.87-1.04-1.3-1.57-5.57-.52-11.14-1.04-16.7-1.57-3.88,3.38-9-.33-14.62.52-4.09.62-7.4,2.87-11.74,3.65-8.69,1.58-22.87-2.59-26.36,4.96-.17,2.87-.35,5.74-.52,8.61-.52.97-1.65,1.61-2.61,2.09-.04,2.79,1.4,3.21,1.83,5.74.47,2.8-.73,10.52-1.57,13.31.61,6.44,1.22,12.88,1.83,19.31.17,2.74-1.93,6.12-1.83,9.13.7,2.52,1.39,5.05,2.09,7.57-.43,1.39-.87,2.78-1.3,4.18,1.28,5.7,3.5,5.26.26,11.22.9,1.56,2.07,2.28,2.35,4.44-1.22.17-2.44.35-3.65.52.69,3.07,1.8,8.61,1.04,13.31-.26,1.65-.52,3.31-.78,4.96.65,2.93,3.46,4.02,4.44,6.26-1.51,2.19-1.31,3.31-1.3,6.79-.78.35-1.57.7-2.35,1.04,1.05,5.18,3.7,7.62,2.35,14.09-.52.26-1.04.52-1.57.78,1.01,1.33,1.79,2.29,2.09,4.44-.78.52-1.57,1.04-2.35,1.57.3,1.63.3,1.47-.52,2.87.7.87,1.39,1.74,2.09,2.61-.43,1.3-.87,2.61-1.3,3.91.83,1.28,1.92,1.78,2.87,2.87-.57,1.15-.37,1.23-2.09,1.3-.09.26-.17.52-.26.78.5,1.74,1.75,1.96,2.61,3.39-.09,1.7-.26,1.88-1.57,2.35-.09.26-.17.52-.26.78,4.86,2.36,6.03,6.07,7.05,10.44,5.49,3.19,12.46,2.93,19.31,2.35,1.3.09,2.61.17,3.91.26.52-.7,1.04-1.39,1.57-2.09,2.38-1.7,3.44-.3,6.26-.26.61-.78,1.22-1.57,1.83-2.35-3.75-7.15-1.16-9.71-.52-17.75-.35-1.57-.7-3.13-1.04-4.7.43-1.48.87-2.96,1.3-4.44v-.52c-.35-.64-1.63-.92-1.57-2.09.43-1.13.87-2.26,1.3-3.39.92-3.23-.85-5.92-1.3-7.31.54-.71.57-.73,1.57-1.04.09-.17.17-.35.26-.52-5.41-2.48-3.1-6.39-2.09-11.22-2.01-5.38-.17-9.79.26-14.62,1.36-.87,11.79-4.15,14.88-3.13,2.77.91,4.93,1.58,8.35,1.3.35-.78.7-1.57,1.04-2.35,2.86-.38,4.38,1.72,6.52,2.61,3.65,1.51,12.94-.86,15.4-1.3.26-.35.52-.7.78-1.04-.26-.45-.94-3.18-.52-4.18,2.18-3.12,3.89,1.6,5.74,1.57,2.45-.04,3-3.18,4.7-3.91,3.74.35,7.48.7,11.22,1.04.31-1.26.04-1.68-.52-2.61v-1.3c1.82-.37,3.31-.38,5.48-.26-.35-1.13-.7-2.26-1.04-3.39,1.27-.79,1.57-.94,3.39-.78.09-.17.17-.35.26-.52-1.38-3.9-.11-8.8.52-12.01ZM633.98,561.48c-.89.56-1.22.79-2.87.78-2.23,5.88,1.59,11.62.26,17.49-7.66,1.71-17.4,2.95-24.53,5.74-1.7-.2-2.34-.76-3.39-1.57-5.54,2.59-16.79,5.91-20.62-.52.25-.95-.02-.53.52-1.04.4-.82-.48-3.74,0-6.26,1.06-1.59-5.46-10.39,1.3-11.74-.05-4.99-.51-12.35,3.91-13.31,2.71-.59,4.22,2.23,7.57,1.3,1.57-.43,2.8-1.53,4.96-1.83,1.74.75,2.98,1.86,3.91,3.39,2.49-.33,2.51-1.89,4.18-2.61,4.21-1.83,9.74.72,13.57-2.61,4.05.35,7.61,3.72,10.18,3.13,2.4,1.64,2.09,6.83,1.04,9.66Z" fill-rule="evenodd"/>
  <path d="M823.55,679.07c2.05-.82,4.1-1.64,6.15-2.46-.29-2.88-2.39-4.72-3.75-6.86.64-1.61,1.2-2.3,2.13-3.46-4.66-1.48-13.19-15.28-18.15-17.25.38-2.97,2.9-3.72,3.73-6.12,1.72-4.98-.44-8.5.53-11.98.71-2.75,1.42-5.5,2.13-8.25.65-7.08-3.5-15.44-2.66-21.3.51-3.54,3.46-5.9,3.2-8.52-.72-7.1-1.58-10.83-2.4-17.84-.58-4.96,1.59-10.31.27-17.04-1.22-6.23-5.83-12.77-4.53-18.64.56-2.51,3.1-3.67,3.99-5.59.18-2.13.36-4.26.53-6.39.56-.64.96-.7,2.09-.8.03-.13.03-.12.06-.25-3.35-2.26-3.69-6.46-3.48-11.73-4.45-2.06-4.21-2.52-5.49-7.29-.66-.05-.65-.05-1.3-.09-.43,1.09-.7,2.27-1.72,2.85-2.17.61-3.31-.72-5.86.27-2.04-.48-2.99-1.69-4.26-3.2-5.3,1.59-8.43-2.39-13.58-1.33-5.82,1.2-16.95-.1-24.23-2.13-4.73,1.45-8.72-.24-12.51-.8-2.37-.35-12.79,1.25-14.91,2.13-1.39-1.15-1.6-2.08-3.46-3.2-7.41.33-5.63,3.1-13.85.27-.62.53-1.24,1.07-1.86,1.6-2-.16-1.91-.62-2.93-1.6-2.48,4.49-9.83-.47-13.31-.8-2.93,1.83-5.72,3.31-9.59,3.99-2.11,3.33-3.56,6.07-5.86,9.32-1.24.62-2.49,1.24-3.73,1.86-1.96,2.17-1.88,6.86-3.2,9.05-.37.61-1.73,1.21-1.86,2.13-.51,3.51,1.69,7.57,2.4,10.12-.27,2.31-.53,4.62-.8,6.92.97,4.24,3.59,8.23,2.4,14.38-.27,5.5-.53,11.01-.8,16.51-.51,1.97-2.44,2.45-2.13,5.33v.53c.59,2.31,2.36,3.31,2.13,5.59-1.26,12.26-1.03,22.52-1.33,32.48-.13,4.36,2.9,8.63,2.66,12.25-.67,10.17,2.5,17.82-1.07,26.63.71.44,1.42.89,2.13,1.33.11,2.07.19,2.64-.53,3.99,1.9,2.91,4.86,5.11,7.19,7.72,1.03-.85,1.34-1.43,2.93-1.86-.09-.71-.18-1.42-.27-2.13.83-1.51,1.15-1.27,3.2-1.07,1.1,3.15,3.19,5.99,6.66,7.19,1.77-.18,3.55-.35,5.33-.53,4.07,1.18,7.56,2.06,12.78,1.33,3.32-.47,8.86.78,12.78.27,4.05-.53,6.87-2.04,11.54-1.16,3.45.06,6.81.13,10.26.19,8.35-1.45,16.71-2.91,25.06-4.36,1.77.18,3.55.36,5.33.53,1.95-.73,2.53-2.47,5.33-2.93,3.62,2.58,7.83,12.25,9.89,14.59,1.95,1.33,3.91,2.66,5.86,3.99,4.11,5.16-.52,8.21,9.48,10.72.17-.13.24-.19.4-.33-.1-1.69-.2-3.38-.3-5.06,4.34-2.78,9.47-5.43,14.38-7.46,1.36-1.1.71-2.35.8-4.26ZM690.91,524.7l.27-.53c-.12.29.23.2-.27.53ZM779.84,554.25c-1.15.44-2.31.89-3.46,1.33.18.98.35,1.95.53,2.93-.78,1.23-.64,1.04-2.13,1.07v.27c.71.89,1.42,1.78,2.13,2.66-.45,1.58-.5,1.67-1.6,2.93.98.44,1.95.89,2.93,1.33-.02.96-.04.69.27,1.6-.8,1.62-3.86,3.37-3.73,5.06.26,1.22,2.08,2.61,2.93,4.26-.01,3.46-2.02,1.95-2.4,3.99-.53,2.87,3.31,5.38-1.07,7.19.06,2.2.64,3.7,2.4,4.26v1.86c-.8.62-1.6,1.24-2.4,1.86,3.43,4.12,3.77,7.21.8,11.45.14,3.73,2.49,4.72,3.2,7.19.07.23,1.07,6.66,1.07,6.66v.27c-.53,2.66-1.07,5.33-1.6,7.99.41,2.32,2.31,4.56,1.86,6.66-.89,1.6-1.78,3.2-2.66,4.79-4.93,1.23-21.7,3.92-25.56-1.33-4.81.76-9.59,3.17-14.38,3.73-2.6.3-5.92-1.57-8.52-2.13h-.8c-1.69-.03-3.27,1.73-6.12,1.07-1.09-.25-2.64-1.78-4.53-1.07-.8.62-1.6,1.24-2.4,1.86-4.41,1.13-7.32-1.92-11.18-2.66-.63-4.75,1.84-2.2-1.86-7.72.3-2.09,1.9-2.85,2.13-4.53.31-2.27-1.82-3.33-.53-6.12,1.07-2.32,2.85-2.55,2.93-6.39-1.81-2.24-4.23-6.58-3.46-10.65.27-1.24.53-2.49.8-3.73-.8-1.51-1.6-3.02-2.4-4.53,2.17-6.92-2.13-11.49-.8-21.3,1.52-11.18-.67-23.47,2.13-35.41,2.31-.09,4.62-.18,6.92-.27.89.62,1.78,1.24,2.66,1.86,1.15.18,2.4-.77,4.26-.8,1.06.89,2.13,1.78,3.2,2.66.71-.09,1.42-.18,2.13-.27.7-5.04,3.27-8.69,9.32-8.52.44.44.89.89,1.33,1.33.19,2.13-.82,3.11-1.07,5.06,1.99,1.17,3.2.68,6.39.53.09-1.24.18-2.49.27-3.73,2.53-1.38,4.74,1.73,6.39,1.07,4.34-1.76,5.86-4.03,8.52-6.92,3.24,1.28,5.21,2.55,6.92,5.33,6.76-.92,12.06-2.03,18.37-2.93,1.37,1.19,2.7,1.89,3.73,3.46-.23,2.52-1.49,2.62-2.13,4.26,1.39,3.48.88,7.9.27,11.18Z" fill-rule="evenodd"/>
  <path d="M137.53,771.34c.44-2.21-.36-8.38-1.37-10.68,1.01-2.2.9-3.13,1.1-4.65.53-4.25-2.52-10.94-4.93-12.59-1.02-.44-14.8-1.43-15.06-1.37-.86.2-1.89,1.28-3.56.82-2.1-.64-4.2-1.28-6.3-1.92-1.62.63-4.57,1.43-7.12.82-6.16-1.47-11.66-4.18-19.44-4.11-2.8,2.86-6.37,1.08-9.58,1.92-2.01.91-4.02,1.83-6.02,2.74-1.55-.55-3.1-1.1-4.65-1.64-2.19-.32-4.07,1.76-6.02,2.46-4.7-2.02-15.17-.16-19.16,1.1-.49.31-.64,3.08-.82,4.93-1,.46-2.01.91-3.01,1.37-.46,1.53,1.62,3.11,1.37,5.2-.27,2.23-1.26,3.38-1.92,5.48-.94,3.02.8,6.67-.27,9.03-.64.64-1.28,1.28-1.92,1.92-1.38,3.66,3.03,7.76,2.19,9.58-.55,5.84-1.1,11.68-1.64,17.52-1,2.74-2.01,5.48-3.01,8.21.14,5.92.52,12.55-.27,18.89-.91,7.34,2.86,25.92-.82,29.84,4.47,7.36.04,12.44.82,21.08.37,4.12-.85,15.75-1.92,20.81,1.86,5,1.83,9.47,2.46,14.78.53,4.41-1.85,9.59,0,13.69,1.53,2.57,12.49,2.45,15.33,3.29,3.74-2.77,6.7-2.41,9.03-7.12,1.29-.53,2.74-.06,4.38.55.18-.64.37-1.28.55-1.92-.53-2.1-1.28-4.7-1.64-6.84,4.15-5.2.65-7.74,1.37-14.51.37-1.73.73-3.47,1.1-5.2-.59-3.92-1.91-7.35-1.1-10.95.55-1.09,1.1-2.19,1.64-3.29,1.19-4.04,1.71-21.84.55-26.28.91-.27,1.83-.55,2.74-.82,1.19,2.25,3.3,5,5.48,6.57.82.27,1.64.55,2.46.82.64,1.73,1.28,3.47,1.92,5.2,2.15,3.76,4.52,8.04,8.76,9.86-.45.93-.78,1.82-1.92,2.74v.82c.73.18,1.46.36,2.19.55.09.09.18.18.27.27.82,1.55,1.64,3.1,2.46,4.65,1.38,1.92,4.47,2.51,5.75,4.65.55,1.55,1.1,3.1,1.64,4.65,1.29,1.69,3.75,1.59,4.65,3.83.82,3.74,1.64,7.48,2.46,11.22,1.43,3.06,9.14,11.26,11.77,13.96,1.59,0,2.91.03,4.11-.82.99-.99.17-3.09,1.64-4.65,1.22-1.3,2.62-.73,4.38-1.64v-.27c1.56-1.04,1.12-3.64,2.46-4.65,1.19-.37,2.37-.73,3.56-1.1.62-.62.71-.93.55-1.64.02-2.27-4.23-4.86-3.29-7.94.57-.57.71-.52,1.92-.55-1.05-1.76-2.34-3.08-3.29-5.2.33-1.43.31-1.28,1.92-1.37.03-5.45-7.62-9.99-10.68-13.69-3.63-4.39-4.54-11.21-7.94-15.88-2.41-3.31-7.22-3.51-10.13-6.3-.82-2.28-1.64-4.56-2.46-6.84-3.11-4.43-6.4-1.72-7.67-9.31-2.9-1.97-3.17-5.66.82-7.12.91.27,1.83.55,2.74.82,1.44-1.65,2.42-2.96,4.11-4.38h1.1c.75,1.35,1.03,4.18,2.19,5.2,1.89-.95,3.14-.09,5.48-.82,1.64-.82,3.29-1.64,4.93-2.46,2.01.09,4.02.18,6.02.27,3.29-.82,7.34-2.32,10.68-4.11,3.2-.13,4,.71,5.2,2.46h.55c1.45-1.12,2.59-2.49,4.65-3.01.55-1.61,1.8-11.04,1.37-13.14-.46-3.38-.91-6.75-1.37-10.13.73-2.65,1.46-5.29,2.19-7.94.45-3.57-1.3-6.58-.27-11.77,1.19-4.65,2.37-9.31,3.56-13.96ZM108.79,807.21c-2.41,1.49-7.79-.04-11.22.27-7.48.68-30.3-1.42-36.14-5.2-3.55-2.3-1.61-7.73-3.29-9.03-.46-.46-.91-.91-1.37-1.37,6.5-7.05,1.22-16.33,1.64-24.37,4.8-2.43,9.14.87,15.33.55,3.37-.18,6.69-1.52,9.86-2.19,6.6-1.4,7.28,1.62,13.14-1.64,4.5.17,11.48-.12,14.51,3.01-2.39,3.83-2.33,7.8-1.1,11.77-2.89,3.16.24,12.96-1.64,17.8-.18.09-.36.18-.55.27,1.4,1.56,2.93,2.2,4.11,4.11-.16,1.81-2.2,5.23-3.29,6.02Z" fill-rule="evenodd"/>
  <path d="M290.16,761.33c.15-1.19.3-2.39.45-3.58-.6-.37-1.19-.75-1.79-1.12-.3-1.87-.6-3.73-.9-5.6-1.06-.72-1.89-.15-3.14-.9-3.38-2.03-4.74-6.12-9.86-6.5-.3.22-.6.45-.9.67.3.75.6,1.49.9,2.24-2.76,3.09-9.62-2.71-12.99-1.57-1.49,1.12-2.99,2.24-4.48,3.36-4.17,1.37-6.93-2.09-10.53-2.24-.66.89-1.22,1.42-1.57,2.69-.37.15-.75.3-1.12.45-1.94-1.12-3.88-2.24-5.82-3.36-.37.6-.75,1.19-1.12,1.79-1.87-.52-3.73-1.05-5.6-1.57-1.27.6-2.54,1.19-3.81,1.79-1.81-.32-3.62-2.51-5.82-2.02-1.34.75-2.69,1.49-4.03,2.24-1.37.18-2.63-1.45-4.48-1.79-.9.9-1.79,1.79-2.69,2.69-5.39-.94-5.76-2.47-11.2.22-2.62-2.26-9.57-2.39-13.22-1.12-1.74.61-2.58,2.16-5.15,2.46-.95,3.57-.22,5.01-.22,9.19-4.84,2.07.44,6.16-5.15,8.74.14,1.9.95,2.86,2.02,3.81-.14,2.3-.73,3.8-2.24,4.7.5,2.25,2.14,5.29,1.34,7.39-.87,1.44-1.95,1.04-3.14.45l-.22.22c1.19,1.64,2.39,3.29,3.58,4.93-.24,3.19-1.47,4.99-3.14,6.72,1.27.62,1.98,3.18,2.02,5.15-1.06,1.24-1.73,2.44-3.14,3.36.36,2.05,1.81,2.3,2.24,3.81,1.14,3.95-2.78,9.57-2.02,14.34.13.84.83,1.03,1.12,1.79.66,1.73-1.08,3.38-1.34,4.48-.43,1.77.07,7.79.22,9.86.07.15.15.3.22.45-.51,2.55-2.61,6.32-2.02,8.96,1.12,2.39,2.24,4.78,3.36,7.17,4.1-1.73,6.92.9,10.31,1.12.82-.45,1.64-.9,2.46-1.34,4.27-1.73,6.79.25,9.86,1.79,1.34-.82,2.69-1.64,4.03-2.46,2.28.24,3.52,2.15,6.27,1.57,2.09-.52,4.18-1.05,6.27-1.57,4.32.74,3.28,2.54,7.62,0,3.56.68,6.68,1.15,10.31,2.24,1.43-.71,1.57-1.9,2.91-2.24,3.21.15,6.42.3,9.63.45,1.11-.45,1.75-1.49,2.91-1.79,1.36,1.98,4.17,3.14,5.15,4.93-.07,1.34-.15,2.69-.22,4.03,1.27,5.65,3.2,8.9,2.91,15.68-.6.22-1.19.45-1.79.67-.15,1.72-.3,3.44-.45,5.15.84,2.66,1.85,4.72.67,7.62-3,1.76-4.74-.26-8.51.22-1.19.37-2.39.75-3.58,1.12-1.38.05-2.48-1.44-4.48-.67-1.21.46-2.65,1.9-4.26,2.24-1.98.42-3.48-.87-4.93-1.34-2.02-.65-3.27.68-4.7.9-.79-.89-1.07-2.05-1.34-2.91-1.22.35-1.67,1.05-2.02,2.24-.15.07-.3.15-.45.22-1.02-.81-2.12-1.16-2.69-2.46-1.19.6-2.39,1.19-3.58,1.79-1.22-.38-2.86-1.54-4.03-2.02-1.46-.6-17.79,1.78-18.15,2.02-1.6-.43-2.45-1.88-4.03-2.46-1.81-.66-3.05.55-4.7-.22-1.12-.97-2.24-1.94-3.36-2.91-5.06-2.1-8.15,2.91-10.53,3.58-1.64-.22-3.29-.45-4.93-.67-1.45.05-1.76,1.19-2.91,1.57-2.05-.6-4.9-.39-6.5.22-.4,2.18-2.17,9.94-1.79,11.65.46,2.07,2.23,2.82,2.46,5.6-.37.22-.75.45-1.12.67,2.43,2.59,1.22,7.33,4.7,9.41,3.75,2.24,29.49,4.58,33.83,3.81,2.24-.6,4.48-1.19,6.72-1.79,1.1.09,3.82,1.31,5.15,1.57,1.43.28,1.47-1.68,3.36-1.12.88.26,1.78,1.31,3.14,1.34,1.72.04,2.81-1.71,5.38-1.12,2.57.59,12.33,2.41,15.91.9,1.05-.9,2.09-1.79,3.14-2.69.31-.14,7.68-.86,8.07-.9.15-.07.3-.15.45-.22h.9c1.15.77,1.77,2.54,4.03,2.24,3.43-.37,6.87-.75,10.31-1.12,1.42-.82,2.84-1.64,4.26-2.46.99.78,2.36.47,3.14.45.46-.49.51-1.4.45-2.91,1.02-.72,1.15-.99,2.46-.45.15-.6.3-1.19.45-1.79.36-.41.58-.44,1.12-.67,1.47.3,1.12-2.07.9-3.58,1.09-.12,1.11,0,2.02.45,1.64-.66,2.03-4.19,4.7-5.38.51-7.26.56-16.26-1.57-24.42.03-.11,1.12-9.41,1.12-9.41-.52-.75-1.05-1.49-1.57-2.24-.93-2.13,1.91-2.93,1.79-4.26-.22-3.14-.45-6.27-.67-9.41-.73-1.21-1.81-2.07-2.24-3.81-.2-1.43,1.74-2.13,1.12-4.48-.52-1.05-1.05-2.09-1.57-3.14-.38-1.59,1.26-2.02.45-3.58-.57-1.1-2.18-1.91-2.91-3.36.52-.45,1.05-.9,1.57-1.34-.36-3.92-1.61-4.79.9-7.62v-.22h-.22c-4.52-1.04-5.22,1.87-8.51,1.34-2.18-.34-4.62-1.96-7.39-1.34h-.22c-1.39.43-2.14,1.82-2.69,3.14-4.23.91-16.61-1.14-19.04-3.14-1.19.75-2.39,1.49-3.58,2.24-2.03-.19-2.37-1.42-3.81-1.79-.45.07-.9.15-1.34.22-1.87.74-4.36,1.91-7.62,1.12-1.16-.28-2.37-1.79-4.03-1.34-1.19.67-2.39,1.34-3.58,2.02-3.24-.63-4.85-3.67-8.74-2.91-3.44-3.17,1.5-8.15,0-14.11-.52-1.19-1.05-2.39-1.57-3.58,1.49-3.95,1.5-22.81.67-27.33,4.94-4.43,5.03-.14,9.86-1.79,1.57-1.05,3.14-2.09,4.7-3.14,2.31.37,4.63.75,6.95,1.12,3.29-.6,6.57-1.19,9.86-1.79,1.98.33,2.3,2.15,5.15,1.57,1.75-.36,9.65-1.92,11.2-1.12,1.61.83,2.35,2.9,4.48,3.36,1.73-.58,2.43-1.2,4.03-.9.88,1.41,2.6,4.27.9,5.6-.17,2.98,2.09,2.79,3.14,4.93,1.25,2.58,2.19,9.39,2.24,12.1l.9.45c1.09.54,2.04-.7,4.03-.9.45.52.9,1.05,1.34,1.57.22.15.45.3.67.45.75-.97,1.49-1.94,2.24-2.91,2.76-.01,4.57.69,6.05,1.12,1.72-2.03,2.02-4.18,5.82-3.58.65.1,1.17.71,2.02.22,1.04-.59.22-2.09,2.46-2.91.58-2.15-1.67-3.35-1.12-6.05.37-1.81,1.28-3.51,1.79-4.93-1.41-3.02-.34-8.62-.45-12.77.78-.39.64-.28,1.79-.22.07-.07.15-.15.22-.22-.19-2.66-3.06-6.7-2.91-9.41ZM164.48,891.71h.67c-.54.26-.29.56-.67,0ZM235.5,854.53h.45c-.22.15-.45.3-.67.45.07-.15.15-.3.22-.45Z" fill-rule="evenodd"/>
  <path d="M355.69,737.95c4.3,1.22,9.11.26,13.53.9,11.8,1.7,22.53,1,35.18-.23,2.41.45,4.81.9,7.22,1.35,4.46,1.02,10.29,1.23,14.88.45,2.08-.35,3.78-1.81,5.41-2.03h.23c1.13.38,2.26.75,3.38,1.13,2.1-.38,4.21-.75,6.31-1.13.83.38,1.65.75,2.48,1.13,4.17-.79,10.53-1.37,15.33,0-.55,2.98,1.08,4.64,1.8,6.76-.53.15-1.05.3-1.58.45.02,2.55.94,3.16,1.35,5.19-2.64,2.23-3.3,6.71-4.06,9.25-3.16.44-7.3.79-9.47,0-.27,1.07-1.7,1.72-2.71,2.71-2.1-.21-5.17-1.48-7.89-.68-2.64.78-7.29,2.24-9.92,2.48-3.31-.45-6.61-.9-9.92-1.35-2.81.5-5.76,2.14-7.89,3.16-3.68-.15-7.37-.3-11.05-.45l-1.13,1.13c.15,3.31.3,6.61.45,9.92-.19.54-1.48,1.15-.9,2.48.9,2.08,1.02,12.88.23,17.14.3,3.46.6,6.92.9,10.37-.41,4.51,2.32,9.46-1.13,11.73,2.33,6.68-.06,17.29.23,24.35.08,3.91.15,7.82.23,11.73.46,2.32,2.02,4.24,1.8,6.54-.21,2.25-1.18,3.94-1.58,5.64-.08,3.53-.15,7.07-.23,10.6-.68,4.73-1.35,9.47-2.03,14.21.15,3.23.3,6.46.45,9.7-.82,4.28-1.83,10.53-3.38,14.43-1.91,4.79-6.6,7.87-8.12,12.4-5.71.88-11.97-1.9-14.66-4.96.09-3.48,1.72-6.67-.23-9.47-1.08-1.55-3.21-1.47-3.83-3.61,2.98-1.98-.67-4.75,0-6.31.49-.71.69-.77,1.8-.9.09-1.73-.36-1.64-1.35-2.71,2.76-.5,3.57-.78,6.31-1.58-.06-1.37-.17-1.42-.9-2.03-.7-.74-2.24-.62-3.38-.9v-.23c.46-1.45,1.39-3.99-.45-5.19.4-1.64,1.15-1.82,1.35-3.83-.69-.76-1.04-.55-1.35-1.8,2.08-4.17-.17-5.47.45-9.47.53-1.35,1.05-2.71,1.58-4.06-.97-.69-1.95-1.55-2.25-2.93,1.13-1.5,2.26-3.01,3.38-4.51-.71-1.34-1.42-1.39-1.58-3.38.45-.6.9-1.2,1.35-1.8-.13-1.69-2.52-3.21-1.58-4.28l.45-.9c-.38-1.05-.75-2.1-1.13-3.16l.9-.45c-.31-1.55-1.07-4.18-1.13-4.96l1.13-.68v-.68c-.76-.74-1.62-1.14-2.48-1.8,1.05-.68,2.1-1.35,3.16-2.03v-1.8c-.83-.6-1.65-1.2-2.48-1.8,1.21-.18,1.8-.37,2.25-1.35l.45-.23c-.6-1.21-1.47-1.39-2.03-2.48,2.89-.81,2.18-5.91.9-7.44,1.41-.34,1.87-.67,2.48-1.8v-.9c-1-.76-1.74-1.39-3.16-1.8,1-1.69,1.97-5.19,1.35-7.89-.6-1.05-1.2-2.1-1.8-3.16.8-.46.76-.44.9-1.58,1.91.76,2.56.03,3.16-1.8-3.02-4.39-.44-2.89-1.8-7.22-.41-1.3-1.4-1.23-1.58-2.48.99-.66,3.21-17.71,2.48-21.42-.3-1.35-.6-2.71-.9-4.06.53-1.2,1.05-2.41,1.58-3.61-4.24-3.04-9.15-1.76-13.53.23-1.95-.84-3.99-2.89-7.44-2.03-2.48.62-5.96,3.09-10.15,1.8-6.76-.9-13.53-1.8-20.29-2.71-4.04-1.27-4.67-5.35-8.57-6.31-3.15-.78-4.99,2.07-8.12,2.25-1.07-.51-1.75-.94-2.25-2.03-1.17-3.93,3-5.07,1.35-9.47,1.02-1.08,1.88-1.32,2.03-3.38l-.23-.45c-.81-.11-.31.34-.9-.45l.9-.68c4.4.86,8.78-2.31,12.4-3.38,3.23-.6,6.46-1.2,9.7-1.8,2.86.08,5.71.15,8.57.23,5.91.7,15.75.36,20.75-1.8Z" fill-rule="evenodd"/>
  <path d="M592.98,912.31c-9.17.49-18.06,2.07-25.68,4.32-1.2-.88-2.4-1.76-3.6-2.64-3.12.91-2.68,1.4-4.32,3.6-3.85.7-8.48-4.54-11.76-1.68-1.2-.64-2.4-1.28-3.6-1.92-2,.16-4,.32-6,.48-9.63-1.26-20.6-1.18-30-.48-5.28-.56-10.56-1.12-15.84-1.68-1.52-.72-3.04-1.44-4.56-2.16-.6-4.06-3.84-9.8-6-12.96.88-1.82,2.17-2.72,2.4-4.32.28-1.17-.6-1.87-1.2-2.88l1.68-1.68-.24-1.2c-1.03-.2-1.58-.34-2.16-.96l.96-.96c.32-.88.64-1.76.96-2.64-3.72-7.72,2.9-13.91-1.92-19.2,1.37-.5,1.52-1.42,2.16-2.64-4.71-12.15,2.45-29.32-.96-41.28-.54-1.88,2.03-3.26,1.44-5.52-.41-1.55-2.35-2.13-3.36-3.12,1.12-.16,2.24-.32,3.36-.48l.48-1.44c-.37-4.17-2.68-4.36-4.56-7.2,4.74-.86,1.43-5.58,3.6-6.96.84.89.73.47,1.68-.24.82-3.64-.44-4.13-.48-8.16.64-.56,1.28-1.12,1.92-1.68-.43-2.83-1.92-5.8,0-8.88,1.41-.14,1.57-.29,2.16-1.2-.25-1.57-.22-4.22-2.16-5.28.24-1.06.16-.96.96-1.44,3.01-1.11,4.89-1.09,6.96-2.88-.16-.72-.32-1.44-.48-2.16l.72-.72c3.76-1.49,7.15.18,9.36.96,2.42.85,5.31-.91,6.96-.96-.24,2.56-.48,5.12-.72,7.68.96,3.36,1.92,6.72,2.88,10.08-.72,1.44-1.44,2.88-2.16,4.32.4,1.36.8,2.72,1.2,4.08-.4,3.44-.8,6.88-1.2,10.32-.82,15.04,3.49,31.8.96,46.56-.48,5.6-.96,11.2-1.44,16.8-.36,1.35-1.56,4.03-1.2,6.24.48,1.2.96,2.4,1.44,3.6.15,2.31-1.68,3-.72,6,.64.96,1.28,1.92,1.92,2.88.72,2.21-.91,6.06.96,7.92l.96.96c3.36-.6,6.94-1.08,10.32.72,2.23,1.19,3.64,3.64,7.92,2.88,7.76-1.84,15.52-3.68,23.28-5.52,2.96-.24,5.92-.48,8.88-.72,6.17-.98,20.48,2.94,22.08-.48.08-1.04.16-2.08.24-3.12.96-.88,1.92-1.76,2.88-2.64-.98-7.94-1.41-17.06.72-24.24l-.24-.24c-.98-3.22-1.28-5.72,0-8.64-.36-1.21-1.86-1.89-1.44-3.12.5-.89,1.36-1.3,1.2-2.16-.23-1.35-2.06-2.38-2.4-4.08.64-2.88,1.28-5.76,1.92-8.64-.4-3.76-.8-7.52-1.2-11.28.48-2.96.96-5.92,1.44-8.88-.48-1.68-.96-3.36-1.44-5.04,1.6-.25,1.72-.85,2.64-1.68-.23-4.65-2.95-5.39.48-8.4-1.64-4.28-3.17-5.53-.96-10.8-1.36-.86-2.72-3.83-2.88-6.48,5.27-3.09-1.33-7.89,0-12.72,1.31-4.77,2.49-9.08,1.92-14.16h.48c2.28-.82,5.28,1.04,6.72,1.92-.23,1.67-.36,2.36.48,3.84,4.27-.06,8.63-1.7,11.76.48.38,2.92,2.35,5.34,2.16,7.68-.72,2.88-1.44,5.76-2.16,8.64-.72,3.42,1.27,6.14.96,8.4-.14,1.04-1.57,2.07-.96,3.84l2.16,2.16c.32,1.76.64,3.52.96,5.28-4.21,1.14-.87,4.15-1.2,6.72-.17,1.36-1.55,2.46-1.2,4.56.31,1.85,4.03,9.94,3.84,11.76-.36,3.47-3.1,6.93-4.08,9.6-.78,2.13,1.11,2.82,1.44,3.84,1.04,3.24-.99,6.13.24,8.16v.48c-1.66.41-1.88,1.12-2.64,2.4.57,2.34,1,4.16,2.88,5.76l-.24.48c-1.8.22-2.69,1.08-3.6,2.16.9,1.59,1.41,2.78,2.4,4.08h-.48l-1.44,1.44c.61,4.26,4.39,4.63,5.04,9.12-.8,1.04-1.6,2.08-2.4,3.12-.81,2.21.65,2.98.72,4.8-.24,5.36-.48,10.72-.72,16.08-.16,3.12-.32,6.24-.48,9.36-.8.72-1.6,1.44-2.4,2.16-.82,1.68.73,3.13-.48,4.56-1.55,1.83-6.39,1.63-4.32,5.04.8.32,1.6.64,2.4.96l-.24.48c-2,.32-3.63,1.4-6.24.96-2.08-.35-4.4-1.38-6.96-.72v.24c.16.8.32,1.6.48,2.4Z" fill-rule="evenodd"/>
  <path d="M661.78,814.36c-.39-3.61-3.99-7.67-5.28-11.28-.8-3.52-1.6-7.04-2.4-10.56-.97-1.66-2.53-1.86-3.84-3.12,1.64-5.84-5.11-11.79-6.24-16.08-.16-2.16-.32-4.32-.48-6.48-.64-1.42-1.9-1.22-2.16-3.36,2.32-1.5.39-4.98.72-6.72,1.86.21,2.41.59,3.84-.24-.53-1.69-.29-2.01.48-3.12,2.68-.42,2.95-.73,4.08-2.64,1.12.84,1.56,1.18,2.64-.24,1.85-.6,2.73-1.83,4.08-2.88,2.65.21,3.47,1.16,5.76.72.34-1.05.47-2.01.96-2.4l.96-.24c3.99,3.48,3.6,10,6.24,14.88.9,1.66,3.24,2.33,4.08,3.84v6.72c.48,1.76,1.95,2.15,2.88,3.36-.35,1.2-.33,1.7.24,2.88,4.3,1.37,4.05,6.39,6.48,10.32,1.11,1.78,2.91,1.46,4.08,3.12-.99,2.66,5.45,11.15,6.72,14.4.88,2.88,1.76,5.76,2.64,8.64.99,2.05,3.68,3.07,5.04,4.8,2.17,2.76,4.03,6.13,5.76,9.12,1.36,3.52,2.72,7.04,4.08,10.56.82,1.29,2.58,2.67,3.6,3.84.4,1.52.8,3.04,1.2,4.56.48,1.03,1.56,1.08,2.4,2.16-1.19,2.5,2.78,13.42,6.24,14.16.12,1.79-.18,3.2.24,5.04,1.42.44,2.08.17,2.64,1.2,1.29,3.23,1.99,4.87,5.04,6.24l.48-.48c5.32-2.37,2.62-18.68,6.72-24.72.56-.32,1.12-.64,1.68-.96.57-.62,1.02-6.57.96-6.72,2.56-5.52,5.12-11.04,7.68-16.56,1.56-3.91,1.69-8.45,3.36-12.72,2.01-5.12,6.76-9.11,8.88-13.68,1.58-3.39.54-11.18,2.16-15.36,1.36-3.49,3.93-6.99,5.28-11.04,1.04-4.88,2.08-9.76,3.12-14.64,1.67-3.86,3.24-5.37,1.92-10.08,1.52-.14,1.73-.56,2.64-1.2-.08-1.04-.16-2.08-.24-3.12,3.47-.62,5.26-.62,8.88-.24.88-.16,1.76-.32,2.64-.48,1.65.31,2.01,1.25,4.08,1.44.4-.56.8-1.12,1.2-1.68.8.72,1.6,1.44,2.4,2.16.72-.24,1.44-.48,2.16-.72,2.31,2.63,4.45,4.87,6.96,6-.94,1.2-1.35,1.38-1.44,3.6.64.56,1.28,1.12,1.92,1.68-.25,2.39-1.81,2.26-2.4,4.08-.32,2.24-.64,4.48-.96,6.72-.62,1.39-2.63,2.24-2.88,4.08.32,1.04.64,2.08.96,3.12.57,2.88-1.03,5.86-1.92,7.92-2.33,5.37-7.67,12.73-6.96,18.72-.72.16-1.44.32-2.16.48-1.22,7.21-2.05,12.8-6,17.28.32,1.28.64,2.56.96,3.84-.72.24-1.44.48-2.16.72.12,5.99-.36,3.89-1.68,7.92-.08,1.52-.16,3.04-.24,4.56-.36.89-1.41,1.3-1.68,2.64-.55,2.77.2,6.75-1.2,10.56-.55,1.49-2.67,1.75-3.6,3.36-.32,2-.64,4-.96,6h-2.16c-1.23,2.64-.93,5.02-1.44,7.92-3.02,1.47-4.64,6.87-6,11.52-2,5.12-4,10.24-6,15.36-1.31,2.12-3.06,2.83-4.32,5.28,1.27,3.9-.74,8.49-2.4,11.52-1.33,2.44-3.42,9.03-5.52,10.56-2.16,1.58-16.53,4.76-19.68,3.84-1.52-1.36-3.04-2.72-4.56-4.08-1.44-.75-2.44.45-3.36-.24-5.21-3.77-4.24-12.64-9.12-17.52-1.44-.56-2.88-1.12-4.32-1.68-1.28-5.39-5.04-8.85-8.16-13.2-.16-.88-.32-1.76-.48-2.64l-2.4-2.4c-2.67-3.2-4.68-12.48-5.76-17.28-1.23-.55-1.89-.29-2.88-.48-.58-6.15-4.35-8.2-6.24-12.48v-5.28l-.24-.24c-.67-1.47-1.81-.94-2.88-1.92-3.65-3.32-4.08-9.68-7.68-12.48-1.14.37-1.06.31-2.16,0-.47-1.76.43-3.49.24-5.28l-.24-.24c-.64-1.57-2.41-3.42-3.12-5.04-1.33-3.01.91-5.03-1.2-7.2h-1.2Z" fill-rule="evenodd"/>
  <path d="M208.21,977.19c.1,4.17,4.96,7.6,3.37,11.01-.88.23-1.56.8-2.31,1.24.12,1.01.24,2.01.36,3.02-1.56-.62-3.35,0-4.26,1.07.06,3.38-1.33,5.22-2.31,7.28-.55,1.16.15,2.5-.36,3.55h-1.78c-1.02,3.47-7.69,12.85-7.1,15.27-1.16-.01-1.64.16-2.31.53-.27,1.49-.42,1.83.18,3.02-.86.51-.6,1.29-1.24,1.95-.59.18-1.18.36-1.78.53-.96.84-1.17,3.47-1.24,5.51-.99-.22-1.38-.43-2.66-.18-.04,1.53.48,3.34-.36,4.44-.65.86-1.32.69-1.6,2.13.43.6.62.86.36,1.78-.69.11-1.6.78-2.84,1.07v.89c.49.6,1.34,1.12,1.07,1.95-.71.53-1.42,1.07-2.13,1.6-.91,1.49.06,1.88-1.24,3.02.75,1.29.41,3.49,1.24,4.26,1.12,1.03,2.68,1.23,3.73,2.31-.37.62-.53.8-.36,1.6l.36.18c2.88-.46,2.82,2.12,4.44,3.2,1.22.81,2.97.95,4.09,1.78-.03,1.38.17,1.4.89,2.31,1.26.04,1.55.17,2.49.71.66,2.75,2.8,7.5,6.93,6.57-.08,1.8,1.86,4.12,3.55,4.62-.06.71-.12,1.42-.18,2.13,1.11.7,2.5,1.09,3.02,2.31,2.58-.02,6.57,3.36,7.46,4.44l-.18.36c-.59.47-1.18.95-1.78,1.42-.07,1.21-.13,1.07,0,2.31.95.3,1.89.59,2.84.89-.49,1.64.49,3.21,2.31,3.2.83-.3,1.66-.59,2.49-.89-.01.85.03,1.15.36,1.95,3.02.29,3.66,3.85,5.68,5.33.41-.18.83-.36,1.24-.53l.53.18c-.36.71-.71,1.42-1.07,2.13.71,1.8,2.9,1.63,4.8,1.42-.37,1.32-.85,1.73-.71,3.02-1.26.22-1.99.8-2.66,1.6v.71l.89,1.07c2.67.59,4.15-.3,6.75-.71.72.99,1.85.9,3.02,1.42.15,1.56-.03,3.18.53,4.26.65.12,1.3.24,1.95.36-.53,1.01-1.07,2.01-1.6,3.02,1.9.94,3.04,2.16,4.44,3.55,1.25.02,1.22.03,2.13-.36.11,2.49.98,3.34,2.66,3.73-.33,4.12,2.21,2.93,2.49,5.15l.18.71c-2.45,1.46-2.83,3.63-4.26,5.68-.83.53-1.66,1.07-2.49,1.6-.58.94.23,1.02-.71,1.42-2.06,1.07-5.48.9-7.1,1.42-1.54.5-3.22,2.29-4.44,2.66-1.91.59-3.94-3.59-6.39-1.42l-.53-.53c-.1-1.26-.41-1.33-1.07-1.95-1.51.16-3.09.92-4.26,0,.34-3.02-.71-4.23-2.31-6.39h-.18c-.86.6-1,1.18-1.6,1.6-.64-.68-1.06-1.52-2.31-1.6l-.71.36c-1.64-2.3.25-3.56-2.84-5.15-.59.36-1.18.71-1.78,1.07.11-1.09.28-1.7,1.07-2.13.23-1.9-.34-2.41-1.24-3.73-2.39-.11-2.63-1.64-5.15-1.95-.64.62-.97,1.11-1.42,1.95l-.53-.36v-.71c.81-.42,1.04-1.11,1.07-2.31-.57-.99-1.19-1.38-1.95-2.13-1.25.04-2.59.49-2.84.18-.41-.18-.83-.36-1.24-.53.82-3.51.08-5.04-2.49-7.1-1.58.1-2.25.98-2.84.71l-.71-.18c-.03-3.55-1.74-6.85-4.26-8.88-1.02.24-.63.44-1.42.18-.46-.79-1.19-.79-2.49-.71l-.18-.89c.78-.6,1.1-.86,1.24-2.13-1.07-1.16-1.26-1.46-3.37-1.6.15-1.03.42-1.79-.36-2.31-1.29-.41-2.38.24-3.37-.53v-1.78c-1.27-.18-1.72-.39-2.49-1.24.31-.52.38-1.16.36-2.13-3.11-1.11-2.24-4.54-6.22-4.8-.53.36-1.07.71-1.6,1.07l-.36-.18c-.32-.8-.57-.85-1.24-1.24.03-1.87.83-2.65.18-3.73l-.71-.53c-1.29.13-3-.18-3.91.18-.92,2.89-2.03,1.63-4.09,3.2-.59,1.48-1.18,2.96-1.78,4.44-.83.47-1.66.95-2.49,1.42-.39.35-.15.09-.36.71.3.65.59,1.3.89,1.95-1.63.53-2.07,2.43-2.31,4.26-.64-.3-.73-.28-1.6-.18.09.75.32,3.56-.36,4.97-.89.18-1.78.36-2.66.53-.16.77-.56,3.87-1.42,4.44-.89.18-1.78.36-2.66.53-.74,3.19-2.83,6.15-5.33,7.64v3.37c-.99-.24-1.1-.42-2.13-.36.04,3.86-1.83,4.82-3.37,6.93-.94,1.29.52,2.04-.18,3.2-1.78,2.25-3.55,4.5-5.33,6.75.3.59.59,1.18.89,1.78-3.32,2.23-1.73,4.37-3.91,6.75-.71.36-1.42.71-2.13,1.07-.41,1.36-.83,2.72-1.24,4.09-.96,1.41-2.86,2.05-3.91,3.55.24.41.47.83.71,1.24-.69,1.05-1.32.51-2.31,1.24-.3.77-.59,1.54-.89,2.31-2.21-.98-2.54.25-4.44.71-1.07-1.6-8.74-1.15-11.37-.18-.86-1.66-2.46-1.99-4.09-2.84.49-.71.98-1.31.71-2.31-.37-.99-1.56-1.23-2.49-2.13.11-1.59-1.87-5.18-.89-7.46.47-1.08,1.69-1.28,1.78-3.37-2.04-4.69,1.81-2.14,2.66-6.22,1.97.4,3.23-.98,5.15-.36.08-.47-.11-.27.36-.71-.32-1.19-.62-3.71-1.95-4.44.59-1.17,1.83-2.72,2.49-3.55.59.25.35.22,1.07.18.16-1.1.04-1.72-.18-2.66,3.22-.58.97-2.16,2.13-3.73.92-.88,2.45-.43,3.73-1.24.67-.6.5-1.16.36-2.31,1.4-.37,1.97-2.08,1.95-3.2-.95-1.17-1.82-2.26-3.73-2.49l.18-.53.36-.36c2.09-.37,6.65-1.12,7.46-2.66v-2.66c1.18.08,1.28.25,1.95,0,1.29-3.66-.62-3.38,2.84-5.33.58-3.1.38-6.3.53-9.06,1.71,1.51,2.03,2.04,3.91.53.12-1.3.24-2.61.36-3.91.65-.12,1.3-.24,1.95-.36.24-.71.47-1.42.71-2.13.41.36.83.71,1.24,1.07l1.07-.36c-.22-2.53,1.33-3.94,1.24-6.39-.65-.41-1.3-.83-1.95-1.24h.36c.89-1.02,4.14-2.44,5.86-2.66.5-3.24.92-4.58-.53-6.93,2.1-.47,5.02-2.71,2.84-5.15-.53-.3-1.07-.59-1.6-.89-.45-1.03.55-1.47-.71-2.49h-.89c.12-1.07.24-2.13.36-3.2-.78-.8-2.04-1.38-2.66-2.31,2.74-2.01-5.44-5.74-7.28-5.15l-1.07.36-.18-.36c-.08-1.82-1.92-1.42-2.66-2.49-2-3.73-1.08-2.12-4.62-4.09.75-2.69-2.21-3.05-4.44-3.37l-.18-.36c.52-.88.53-1.61.36-2.49-.41-.3-.83-.59-1.24-.89-.71.18-1.42.36-2.13.53-.14-1.96-1.83-3.2-3.73-3.37.41-.75.46-.96.36-1.95-1.13-1.12-2.89-1.42-3.91-2.66.18-1.42.1-1.78-.53-2.66-.75-.14-1.06-.15-1.42-.71-1.39-1.44-2.09-4.37-3.55-6.22-.83-.71-1.66-1.42-2.49-2.13.06-.77.12-1.54.18-2.31-.83-.71-1.66-1.42-2.49-2.13-.59.36-1.18.71-1.78,1.07-.26-5.95-1.5-4.17-5.33-5.86,1.58-3.63-2.59-5.29-4.26-6.93l.18-.71c.83-.06,1.66-.12,2.49-.18.27-.65.3-.82.18-1.6-.99-.42-1.8-.17-2.84-.53-1.05-.37-1.45-1.4-3.02-1.78.58-.77.86-.85.89-2.31-1.57-.7-1.88-1.67-4.09-2.31.19-1.34-.59-1.97-1.78-2.49.59-1.36.63-1.69.18-3.02.65-.24,1.3-.47,1.95-.71l.18-1.07c-.47-.71-.95-1.42-1.42-2.13v-.18c1.77-.38,1.71-1.88,2.66-3.02.64.19.96.41,1.6.18.93-.52,1.07-1.68,1.78-2.13.41.06.83.12,1.24.18,1.01-.24.9-1.04,1.6-1.42.09-.05,1.76.12,2.31,0,.36-.71.71-1.42,1.07-2.13.53-.35,1.39.17,1.95-.53.24-.77.47-1.54.71-2.31,1.76-.79,1.81,1.3,4.09-.18,1.85.74,2.91,1.64,4.97,1.95v.89c-.41.24-.83.47-1.24.71.06.47.12.95.18,1.42,1.34.54,4.42.82,5.33,1.24,1.62.75,1.65,2.55,3.91,3.2-.23,3.49,3.32,4.06,2.49,5.86,1.1,2,3.23,2.56,4.44,4.26,1.55,2.18,1.89,4.23,3.91,5.86,1.03.83,2.83.4,3.55.71-.75,3.69,2.16,2.27,3.91,3.73.38,1-.51,1.54.18,2.31.62,1.78,1.78.97,3.37,1.78,1.29.65.6,1.64,1.24,2.66.83.65,1.66,1.3,2.49,1.95h.36c.96,1.31,1.13,3.64,2.49,5.15,1.98,2.2,4.83,2.81,6.93,4.62,1.1.95,1.2,2.39,2.13,3.55.93,1.16,2.56,1.19,3.73,2.13.24.65.47,1.3.71,1.95.89.83,1.78,1.66,2.66,2.49h2.49c.06.41.12.83.18,1.24,1.07.5,2.27.67,3.55.53.54-1.18.51-1.15.36-2.84,3.8-.8,2.53-8.96,7.81-10.3.07-1.16,1.81-7.84,2.31-8.35.29-.32,2.36-1.54,3.02-1.95l-.18-.53c-.3-.47-.59-.95-.89-1.42.89-.53,1.78-1.07,2.66-1.6-.15-1.76-.67-2.62-1.24-3.91h1.78l2.13-2.13c.68-1.34-.18-2.71.18-3.91.77-.71,1.54-1.42,2.31-2.13.3-1.24.59-2.49.89-3.73.83-.59,1.66-1.18,2.49-1.78.12-.77.24-1.54.36-2.31.77-.36,1.54-.71,2.31-1.07,1.02-1.1.05-3,1.42-3.91,1.16-.49,1.65-.62,2.49-1.24.03-1.59-.8-3.92.36-4.97,1.05-1.62,3.62-.62,4.09-2.49l.71.36c2.24,1.68,3.97,2.97,6.04,4.97,1.82-.02,2.57-.5,3.37,0,1.46,3.42,5.31,1.94,6.57,7.46h1.78Z" fill-rule="evenodd"/>
  <path d="M367.74,959.33c1.44.27,1,1.11,1.86,1.49.87.38,2.03-.31,2.8,0,.46,1.57,1.37,2.42,2.24,3.54,2.45.07,6.27-1.14,6.15,1.3-.41.4-.41.54-.19,1.12l.37.75c1.37.06,2.73.12,4.1.19-.36.94-.3,1.32,0,2.24,1.16.44,2.27.96,2.8,2.05.37,1.15-.11,2.75.56,3.91,1.6,2.78,3.6,3.19,3.91,8.01-1.13-.15-1.69-.61-2.24.19-1.11,1.59-.09,3.29.19,5.03-1.75-.56-3.46-.17-5.03.19v3.54c-.48.67-1.3,1.07-1.86,1.68.12.68.25,1.37.37,2.05-.43.31-.87.62-1.3.93.37,1.02.57,2.24.37,3.35l-.93.56c-.5-.19-.99-.37-1.49-.56-.76.68-4.77,7.08-5.22,8.2-.45,1.13.48,1.65,0,2.42-.58.89-1.79,1.42-2.8,1.86.2,1.79.49,2.54-.19,4.29-.91-.12-1.66-.38-2.24.19-.4.39-.34.48-.37,1.3l.56.75c-.62.43-1.24.87-1.86,1.3-1.24,1.95.65,2-2.61,2.98.25,1.5.75,2.07.56,3.73l-.93.19c-.5-.61-.88-.65-1.3-.37l-.56.56c-.78,1.75.73,3.6-1.12,5.22-1.07-.04-1.59.47-2.42,1.12.62.5,1.24.99,1.86,1.49l-.37.75c-.87.06-1.74.12-2.61.19l-.56.75c.28,1.24.85,1.61,1.49,2.42-.88,1.58-2.73,2.31-4.29,3.17.19.68.37,1.37.56,2.05-2.36,1.24-4.72,2.48-7.08,3.73,0,1.82-.25,2.4-1.12,3.54-1.62.4-2.63,1.15-3.73,2.05-.19,1.12-.37,2.24-.56,3.35-.9.36-1.44.86-2.05,1.49.12,1.43.25,2.86.37,4.29-.25,1.09-1.1,1.45-.93,2.61.15,1.07,1.03,1.23,1.3,1.86-.19,1.12-.37,2.24-.56,3.35.25.62.5,1.24.75,1.86v.19c-1.04-.22-1.15.05-1.86.56.25,1.56.34,3.39,1.3,4.66-.53.37-.96.53-1.3,1.12-.41,1.14.4,2.47.56,3.91-1.06.69-1.87,1.62-2.24,2.42.19,1.3.37,2.61.56,3.91-.49,2.89-.49,5.96-1.3,8.01.31.62.62,1.24.93,1.86-2.73,1.5-.43,3.92-1.12,6.71-.9,3.64.39,2.07.75,4.1-.5.87-.99,1.74-1.49,2.61-.87,2.04-.32,6.76.75,8.2-1.01,2.69,1.16,4.6.37,7.08-.5.75-.99,1.49-1.49,2.24.12,1.68.25,3.35.37,5.03-.28,1.47-1.34,2.13-1.49,4.1-.08,1.01.85,1.32.37,2.24-.63,1.62-1.09,2.12-1.68,4.1-1.65.14-2.27.84-2.24,2.24-4.7-.27-8.77,3.89-12.11,5.96-1.81-.85-2.03-1.24-4.66-.93v-2.24c-1.43-.31-2.86-.62-4.29-.93-.74-2.39-2.54-2.31-3.91-3.91.37-4.01.62-5.5-1.86-8.01.21-2.49,1.44-2.68,1.3-5.78,2.26-.39,3.87-2.17,4.66-4.1-1.09-1.89-2.34-2.45-3.73-3.91.58-1.64,1.95-3.02,1.12-4.84-.99-.43-1.99-.87-2.98-1.3,2.13-.27,2.81-.29,4.1-1.68l-.37-.75c-.66-.92-1.79-.93-2.8-1.49l-.19-.93h2.98c1.32-2.33,2.31-6.12,1.68-8.76-1.85-.7-5.83-.2-6.15-.37.66-.99,2.27-.99,2.8-1.86.55-.91.39-1.85.93-2.61v-.37c1.12-1.01,3-.16,2.61-2.24.1-.58,1.05-4.97.93-5.4-.3-1.09-1.15-1.77-1.3-3.35.51-.68.87-.85,1.12-1.86-1.86-1.54-2.16-4.92-3.54-6.89l.19-.19c4.27,2.33,2.71-4.5,2.24-6.34.62-.31,1.24-.62,1.86-.93-.45-.73-.8-1.14-.93-2.24,2.86-.45,2.27-6.21,1.49-7.45l-.56-.19c-.62.25-1.24.5-1.86.75v-.56c.75-1.15,1.75-1.97,2.05-3.54-5.33-2.53-5.17-2.54-6.34-8.2-.93-.56-1.86-1.12-2.8-1.68.08-.98-.21-2-.75-2.8-.6-.21-2.52-.28-2.98-.56-.64-.38-.66-1.86-1.49-2.24-1.38-.63-2.4.03-3.35-.37-.17-2.12-1.66-2.28-3.35-2.8.24-1.03,0-1.97-.93-2.42-.75-.12-1.49-.25-2.24-.37-.36-2.27-1.39-3.48-2.61-4.84-.81.25-1.62.5-2.42.75l-.19-.56c.99-1.3-.1-3.36-1.3-4.1-.83.44-1.82.66-1.68-.37-.57-1.4-2.01-1.79-2.42-2.8-.76-1.88.61-2.29-2.24-3.91-1.4-.8-2.01.1-2.98-1.12.61-.49.67-1.25,1.12-2.05-1.1-1.88-3.75-2.14-4.84-3.91-.72-1.17.2-1.55-.19-2.61-.99-.87-1.99-1.74-2.98-2.61-1.41-2.15.65-4.18-1.86-5.59-1.38-.72-2.07-.08-2.98,0-.67-4.38-1.41-4.35-5.22-5.59v-1.12c.77-.29,1.22-.7.93-1.49-.44-2.32-4.98-5.13-4.66-6.71h2.98l-.37-1.12c-4.82-1.88-3.76-3.04-6.15-6.52-1.3-.93-2.61-1.86-3.91-2.8.32-.8.29-3.92,0-5.03.99.02,1.49-.1,2.05-.37.27-1.28.02-1.62-.56-2.42-.92-.15-.55.12-.93-.56,2.13-.5,3.02-.69,3.35-3.35,1.54-.25,5.01-1.05,6.15-1.68.46-1.66,7.63-5.4,10.06-5.59,1.61.81,3.23,1.62,4.84,2.42.25,1.12.5,2.24.75,3.35,1.3.57,3.28.3,4.66.75l.19.19c.56.81,1.12,1.62,1.68,2.42.87.43,1.74.87,2.61,1.3.19.93.37,1.86.56,2.8.87.68,1.74,1.37,2.61,2.05.19,1.06.37,2.11.56,3.17.87.75,1.74,1.49,2.61,2.24,2.83,3.43,1.65,5.89,6.89,7.27.51,3.66,3.09,1.98,4.29,4.1-.86,3.16,3.16,4.34,5.03,5.4-1.04,2.95,2.15,3.23,3.35,5.03-.19.56-.37,1.12-.56,1.68,5.34,3.18,8.77,8.38,12.67,13.04,1.06.75,2.11,1.49,3.17,2.24.84,1.33.96,2.89,2.24,3.73,1.05.68,1.83.05,2.8.56.2,1.89,1.34,1.87,2.8,2.42.56-.19,1.12-.37,1.68-.56,1.06-2.99,1.28-5.07,1.86-8.39,3-.59,2.46-4.34,3.73-6.52.98-.03,1.81-.11,2.24-.75.06-.62.12-1.24.19-1.86,1.12-.02,1.25-.17,1.86-.56.18-4.05,2.66-7.47,4.47-10.06-.25-.68-.5-1.37-.75-2.05,1.5-.18,2.29-1.27,2.98-2.24-.12-.5-.25-.99-.37-1.49.81-.17.88-.25,1.3-.75-.19-.43-.37-.87-.56-1.3,1.12-.37,2.24-.75,3.35-1.12.25-2.05.5-4.1.75-6.15,1.75-.72,2.22-2.1,2.24-4.47,5.17-.76,2.8-4.09,5.22-5.96.74-.57,1.24-.53,1.86-1.12-.67-1.31-.77-3.19.56-4.29.93-.06,1.86-.12,2.8-.19.86-3.04,1.52-4.68,3.73-7.08Z" fill-rule="evenodd"/>
  <path d="M651.19,959.7c-.12,4.91-4.11,7.76-2.9,13.24,1.11,5.02,4.4,10.92,3.63,16.32-.34,2.33-2.18,4.22-2.54,5.8.18,1.27.36,2.54.54,3.81-.36,1.27-.73,2.54-1.09,3.81-.24,2.16,1.07,3.22.91,5.8-.31,4.95-.87,11.18-.54,16.32.11,1.7,1.2,9.01,1.09,9.43-.25.9-.93,1.24-1.09,2.54.65,1.4,1.67,2.79,2.9,3.63h5.26c1.74-4.94,5.25.25,7.43-.73.54-.91,1.09-1.81,1.63-2.72.53-.34,1.55.19,2.18-.36,1.71-1.59.38-2.89.91-5.26l1.81-3.63v-3.45c1.78.36,2.23,1.6,4.35,1.27.48-.54.97-1.09,1.45-1.63-.11-1.28-.46-1.26-.73-2.36,1.67.15,2.8-2.81,3.99-3.99-.24-.6-.48-1.21-.73-1.81,1.84-.52,1.84-2.09,2.18-3.63h2.18c.04-1.4,3.52-8.52,4.53-9.97h1.45v-.18c-.24-.48-.48-.97-.73-1.45,1.82-1.53,3.06-3.36,2.9-6.35,1.91.11,2.83-.4,3.81-1.63v-4.35c1.9-.67,2.44-2.31,2.36-4.9,1.22-.24,2.33-.96,2.9-1.81.65-.97-.15-1.55,0-2.54.38-2.58,3.72-3.63,4.35-6.71.6.06,1.21.12,1.81.18.95-2.36,3.48-6.27,5.44-7.8l.91.36c.12.48.24.97.36,1.45,3.85.57,4.43,2.24,6.35,4.53.97-.3,1.93-.6,2.9-.91,1.18,2.32,1.95,3.23,5.62,3.63.02,3.35,1.37,2.34,2.72,3.99.92,1.13-.23,3,.54,4.35,2.05,3.58,3.31,1.97,3.99,8.34-1.2.04-.94-.12-1.99-.36-1.02,1.67-1.94,3-1.27,4.9-1.85-.12-2.32-.06-3.45.73-.39,2.4-1.21,3.63-2.72,5.08.19,1.23.48,1.33.18,2.18-.48.24-.97.48-1.45.73.64.92,1.13,1.14.91,2.54l-.36.18c-1.05-.41-1.3-.83-2.36-.36-1.45,3.09-5.24,7.46-5.26,10.7-.77.22-1.94.64-2.36,1.27-.63.96-.08,2.79-.91,3.45-.79.12-1.57.24-2.36.36l-.18.54c.36.66.73,1.33,1.09,1.99-.83.82-1.5,1.33-1.99,2.54-.54.12-1.09.24-1.63.36-.25,1.87.35,4.43-.91,5.62h-.18c-.24-.48-.48-.97-.73-1.45l-.73.36c-1.96.91-1.34,4.03-1.81,5.8-.48.18-.97.36-1.45.54-.06.42-.12.85-.18,1.27.36.42.73.85,1.09,1.27l-.36.73-.73.54c-.73-.58-1-.86-2.36-.91l-.18.54c.39,1,1.23,2.31,1.09,3.08-.36.48-.73.97-1.09,1.45-.68-.11-1.11-.19-2.18.18.05,1.49.44,1.44.91,2.36-.96.43-1.25,1.01-1.81,1.81,1.55,1.88,3.45,3.58,4.9,5.44-.38.55-.45.46-.54,1.45h.36c.97.36,1.93.73,2.9,1.09,1.29,3.31,2.53,2.99,5.08,4.9.46.48.68,1.49,1.09,1.99,4.06-.02,3.59,5.35,6.16,7.25,1.27.3,2.54.6,3.81.91-.19,1.3-.36,1.37.18,2.36,1.6.52,2.8,1.98,3.63,3.26-.4.93-.29,1.04.18,1.81.73.06,1.45.12,2.18.18.18.48.36.97.54,1.45,3.14.67,4.67,2.65,6.35,4.71v.73c-.6.42-1.21.85-1.81,1.27.06.6.12,1.21.18,1.81.77.43,1.04.75,2.18.91-.47,4.54,3.07,2.65,5.8,3.81.25,2.73,2.04,1.54,3.45,2.9.54,1.03,1.09,2.06,1.63,3.08,1.19,1.16,2.52-.41,3.26,1.27-.83.28-1.1.51-1.45,1.27-.25,1.34.74,2.07,1.27,3.26,1.85-.15,2.45-.96,4.17-.91-.42,1.09-.85,2.18-1.27,3.26-.78-.1-2.47.09-3.08.73v1.99c2.47.79,5.33-.54,7.98.18.72.2,1.55,1.09,2.54,1.45-.08,2.68.74,3.77,2.36,4.71-.23,1.07-.69,1.17-1.45,1.63.12.66.07.55.36.91.58.74,1.5.29,2.18.91.42.38.81,2.06,1.27,2.72.73-.18,1.45-.36,2.18-.54-.33,3.37,1.92,3.38,3.45,5.26-.34.81-.62,1.01-.73,2.18.94.52,1.34.8,1.81,1.81-1.97,3.62-3.66,8.16-7.62,9.61-1.98.72-3.52-.77-5.44.54-1.3.88-7.48,4.72-8.7,3.99-1.3-.49-2.61-1.22-4.17-1.81.12-.9.14-1.14-.18-1.81-2.15.03-4.81.66-5.98-.91-.05-1.98.18-3.16-.91-5.08-1.46-.25-2.1-.26-3.08-.18-.61-1.85-2.89-1.51-4.53-1.81-.63-2.38-.09-4.41-3.08-4.9-.42.36-.85.73-1.27,1.09l-.36-.18.18-.54c.97-.85,1.93-1.69,2.9-2.54-.12-.54-.24-1.09-.36-1.63-1.19-.53-4.09-2.03-5.08-2.9-1.05.19-1.49.72-2.18,1.27l-.36-.18c.15-2.32.34-4.31-1.27-5.26-1.12-.47-2.15.26-2.9.73-.71-.31-1.08-.4-1.45-1.09-.43-1.77.67-1.77.91-3.45-.86-1.68-1.54-2.5-2.18-4.71-.36.06-.73.12-1.09.18-.73.54-1.45,1.09-2.18,1.63-2.95-2.06-2.73-8.51-5.26-9.79-.66.06-1.33.12-1.99.18-.54-1.29-1.04-2.31-2.72-1.99.36-.97.73-1.93,1.09-2.9-.98-1-2.16-1.45-2.9-2.72.81-.88,1.05-.42.54-1.45-3.41.17-4.39-.38-5.8-2.54.02-1.51.19-2.12-.36-3.08-1.24-.07-1.35-.34-1.99-.91,1.25-3.78-2.11-2.57-3.81-3.63l-1.09,1.09c-.89-.46-1.66-.96-1.99-1.99.73-.54,1.45-1.09,2.18-1.63l-.54-.54c-1.48-2.77-5.2-1.11-7.43-2.54-1.73-1.11-2.85-4.06-4.53-5.44-1.69-1.09-3.38-2.18-5.08-3.26-1.15-.06-2.3-.12-3.45-.18-3.95-1.4-6.89-4.6-11.97-5.26-1.06.57-2.36.86-2.9,1.99-1.12,2.26,1.12,5.87,1.45,8.34.26,1.97-1.8,2.65-1.45,5.08.5,3.44,1.73,7.62,1.81,10.7.08,2.93-1.43,7.59-1.81,11.06.6,5.92,1.21,11.85,1.81,17.77,1.13,6.87-.92,13.46.36,19.76.6,1.45,1.21,2.9,1.81,4.35-.57.35-.51.39-.73,1.09-2.2-.02-2.78.89-4.71,1.27-2.05-.06-4.11-.12-6.16-.18-1.15.6-2.3,1.21-3.45,1.81-1.27-.48-2.54-.97-3.81-1.45-1.39.18-2.78.36-4.17.54l-.18-.18c-.79-.73-1.57-1.45-2.36-2.18-1.17-.59-2.64-.54-3.63-1.09-.54-1.51-1.09-3.02-1.63-4.53-.47-2.29.65-6.67-.36-8.7-.42-.36-.85-.73-1.27-1.09.3-1.33.6-2.66.91-3.99-.48-2.42-.97-4.84-1.45-7.25.18-1.39.36-2.78.54-4.17-.36-.6-.73-1.21-1.09-1.81.92-.33,1.04-.64,1.45-1.45-.43-1.21-1.01-2.09-.73-2.9l.91-.73c-.61-1.19-1.18-1.76-2.18-2.54.47-.89,1-1.15,1.63-1.81l-.18-.91h-1.09c.13-1.87.14-2.33-.18-3.81.91-.79,1.81-1.57,2.72-2.36v-.73l-.91-.54c-1.07-.22-1.49.27-2.54.54l-.18-.36c.86-3.47-1.14-8.76.73-11.97,1.77-.23,3.76.01,4.9-1.99l-.36-.54c-2.18.07-4.67-.88-5.26-2.9.76-.36.95-.63,1.09-1.63-.36-1.03-.73-2.06-1.09-3.08l.91-1.09c-.42-3.18-1.77-5.86-1.99-8.34.42-.42.85-.85,1.27-1.27-.24-.66-.48-1.33-.73-1.99.54-.06,1.09-.12,1.63-.18,1.21-3.2-1.5-3.4-1.81-6.71l.73-.54c1.21-1.83-1.26-3.47-1.27-5.44-.01-5.74,2.08-7.8.36-12.33.88-.24.71-.22,1.09-.91-.54-1.57-1.09-3.14-1.63-4.71.32-1.07,1.35-2.39,1.09-4.17-.66-3.2-1.33-6.41-1.99-9.61-.36-2.43.39-4-.18-6.71,1-.21,1.35-.56,1.81-1.27-.19-1.15-.81-1.29-1.27-1.81.24-.79.48-1.57.73-2.36-.42-.6-.85-1.21-1.27-1.81,3.08-1.52.54-5.26-.18-6.89l1.09-.91c-.23-.43-.53-10.21-.36-10.7.54-.66,1.09-1.33,1.63-1.99-1.94-4.2-.43-8.25-.36-12.69,1.54-.2,2.84-.41,3.45-1.63-.3-.42-.6-.85-.91-1.27v-.18c1.51-.06,3.02-.12,4.53-.18.24-.48.48-.97.73-1.45l-1.27-1.27c.4-.36.58-.41,1.27-.54.4.9.58,1.5,1.81,1.63l5.08-2.54c-.12-.48-.24-.97-.36-1.45,2.15.34,2.25,1.87,4.17,2.18,2.22-1.05,9.79-1.59,13.05-1.81Z" fill-rule="evenodd"/>
  <path d="M469.47,1124.68c1.33,1.95,2.31,1.1,4.32,1.92,6.8,2.77,9.59.48,16.08-.96,5.32-1.18,11.61-.09,16.6-.96,4.83-.84,13.36,1.55,16.56-.72,3.66-2.06,1.44-24.11,3.6-27.6,3.4-4.27,13.85-.37,18.48.72,2.62.61,4.12-.67,6.24,0,2.22,6.96,1.43,11.63-3.6,16.08.09,1.58.62,3.43,1.2,3.84,1.18.26,3.09-.64,4.56-.48l.96,1.2c-.42,1.36-1.71,1.66-1.44,3.6.15,1.07,1.38,1.45.96,3.12-.78,3.13-6.6,10.64-8.64,13.2-1.93,2.43-.75,5.81-3.84,7.2-3.71-1.56-7.28,1.4-11.52,2.16h-8.64c-1.68.44-3.15,2.25-5.76,1.68-2.16-.72-4.32-1.44-6.48-2.16-4.52-.76-6.63,2.43-10.08,3.12-3.84-.16-8.68-.32-12.52-.48-2.96.96-5.92,1.92-8.88,2.88-5.17,1.02-10.52-1.32-14.88-1.68-3.11-.26-7.03-.7-10.08.24-.69.21-1.14,1.23-2.4.96-2.42-.53-4.36-2.12-7.44-1.92-.47.81.62.71-.44.96-.66-2.97-4.27-3.97-6-6,.4-.97,1.01-1.87.72-2.88-.6-1.24-1.46-1.32-2.4-2.16" fill-rule="evenodd"/>
  <path d="M529.09,993.59c-4.37-2.21-7.43,1.57-11.28.96-8.04-1.27-16.57-.75-25.68-.48-2.16-.48-4.32-.96-6.48-1.44-2.23.39-5.51,1.59-7.68,1.92-5.12.77-8.69-1.69-12.24.72-.01.04-.44,12.25-.24,12.72.56.64,1.12,1.28,1.68,1.92-4.18,1.54-9-.82-12.96-1.68-2-.43-3.12,2.03-4.56,2.4-1.95.49-3.31-1.37-4.8-1.68-1.68.4-3.36.8-5.04,1.2-.14-2.8-1.43-3.54-1.92-6,2.17-1.78.98-6.19,2.4-8.4.8-.32,1.6-.64,2.4-.96.15-2.01-.05-4.42-.72-6,.72-1.28,1.44-2.56,2.16-3.84-.48-3.12-.96-6.24-1.44-9.36,1.75-.54,2.57-1.64,2.88-3.6-.66-1.05-1.16-1.83-1.44-3.36,1.96.04,1.6.9,3.36.72,3.94-.41,5.97-2.11,9.36-2.88,2.63-.6,5.22,1.65,8.64.96,4.02-.82,8.73-2.89,14.16-1.92,1.84.64,3.68,1.28,5.52,1.92h5.76c11.59,1.78,20.09,1.42,30.72.72,4.4.56,8.8,1.12,13.2,1.68" fill-rule="evenodd"/>
  <path d="M494.05,1077.67c-2.37,1.44-2.4,6.12-3.55,8.61-.92,1.99-3.24,1.41-4.33,3.87-1.55,3.49-2.86,8.1-4.59,11.02-1.65,2.78-5.79,6.22-8.18,9.23-2.91,5.87-5.83,11.73-8.74,17.6-2.98,7.06-8.75,11.98-11.26,18.6-.29,1.7-.58,3.41-.87,5.11-.73,0-.7.06-1.31.59-2.04-1.31-3.11-.8-5.13-1.59-1.88-1.26-3.75-2.52-5.63-3.79-1.42-.11-2.85-.22-4.27-.34-.9-1.19-1.79-2.39-2.69-3.58-1.4-.65-2.8-1.29-4.2-1.94l-.06-.28c-.31-1.14-.61-2.27-.92-3.41-.74-1.23-2.14-2.05-2.74-3.14.38-1.72.76-3.45,1.14-5.18.91-2.4,4.52-5.82,4.77-8.31-.18-.59-.36-1.17-.54-1.76,1.06-1.06,2.12-2.12,3.18-3.18.97-2.53,1.94-5.07,2.91-7.6.98-1.19,1.97-2.37,2.95-3.56.02-.78.03-1.55.05-2.33,1.05.23,1.35.02,2.2-.5.31-1.38.29-2.53,1.03-3.12l1.27-.14c.13-1.46-.07-2.33-.53-3.64.96-.55,1.6-.48,2.58-.73l.36-.95-1.01-.64c1.22-1.66,1.5-2.09,2.07-3.65,1.3-.2,2.61-.4,3.91-.6l.43-.67-.52-1.04c-.87-.84-1.54-.62-2.68-.98l.04-.44c2.83-2.72,4.08-8.82,7.7-10.71,1.78.82,3.49,2.22,5.73,1.02l-.02-.72c-2.08-1.21-3.83-3.56-3.19-5.79.92.11,1.25-.03,1.97-.88.27-1.17.53-2.34.8-3.51l1.48-.48c1.48-3.2,1.8-6.49,3.04-8.93.64-.15,1.28-.29,1.93-.44.17-.76.33-1.52.5-2.28.54.26,1.08.53,1.62.79,3-2.26.6-4.04,2.25-7.31l.99-.08c2.2-.99.86-3.97,2.01-5.81,3.36-5.35,6.51-6.04,7.57-11.26.95.29.79.21,1.54-.2.42-1.78.83-3.56,1.25-5.34.92-.8,2.65-1.43,3.46-3.24,1.26-3.37,2.52-6.74,3.78-10.11,1.09-2.48,2.72-3.49,3.77-6.35,1.05.39,1.58.27,2.43-.12.5-1.18,0-1.68-.12-2.43.69-.59,1.37-1.18,2.06-1.77-.04-.81-.08-1.62-.12-2.43,3.76.4,3.59-4.57,3.88-6.52l1.54-.2c.04-.53,5.5-9.81,5.94-10.17.9-.3,1.79-.6,2.69-.9.66-5.05,4.45-7.93,7.11-12.02,1.55.71,2.88,1.28,4.16.5-.03-.57-.07-1.14-.1-1.71l.11-.17c1.44.83,2.88,1.66,4.32,2.49.51-.31,1.02-.62,1.53-.92l-.44-1.93c.58-.1.78-.05,1.5.24-.15,1.07-.34,1.73.73,2.58,2.07.21,4.14.41,6.21.62.17-.52.34-1.04.51-1.56,1.8,1.58.99,3.06,2.6,4.47,2.68.33,10.04,4.27,13.21,5.98-3,4.5-8.38,4.81-10.47,10.61-1.91,5.32-2.31,12.74-6.2,17.31-1.68,1.97-4.5,2.65-5.77,3.91-.58,1.29-1.15,2.57-1.73,3.86-1.08.97-2.16,1.94-3.25,2.9-1.49,1.87-.89,3.62-2.56,5.93-3.19,4.42-7.37,9.89-10.08,14.86-.9,1.65-4.17,9.09-4.52,9.41-.76.7-1.59.61-2.5,1.72-.22,1.69-.08,3.58.57,5.08" fill-rule="evenodd"/>
</svg>