<?xml version="1.0" encoding="UTF-8"?>
<svg id="Layer_1" data-name="Layer 1" xmlns="http://www.w3.org/2000/svg" viewBox="0 0 1241.69 1190.55">
  <path d="M354.29,535.69c.05-.52.1-1.09.13-1.73-1.05-2.27-2.28-3.73-2.88-6.83-1.42-1.81-1.08-2.54-.24-4.42-1.91-1.9-4.07-8.51-5.76-7.63-.83-2.39-.45-3.31-.24-6.43-1.74-.55-5.22,2.67-6.72-1.2-2.14.44-1.94,2.54-3.36,3.61-2.16.27-4.32.54-6.48.8-4.29,1.88-10.24,13.19-16.08,10.44-1.26,2.18-1.46,4.8-3.12,6.43-3.52,1.34-7.04,2.68-10.56,4.02-3.61,2.16-7.67,8.18-11.28,8.84v2.01c-2.17,3.53-4.19-.21-7.2,2.01-1.62,1.19-3.47,4.16-5.04,5.22-.08.13-.16.27-.24.4-1.79.32-3.52-1.19-5.28-.4-.31,1.84-.37,1.7,0,3.61-2.8,6.03-9.16,6.75-12.48,12.85-.98,1.79-.45,3.7-1.92,4.82-.08.13-.16.27-.24.4h-5.28c-4.28,3.16-6.33,9.47-12.48,10.44-.19,1.66.07,2.76-.48,4.82-4.8,1.81-14.08,5.17-17.28,9.64-.8,1.34-1.6,2.68-2.4,4.02-.88.27-1.76.54-2.64.8-4.35,5.22-7.81,11.52-13.2,13.66-.56,2.41-1.12,4.82-1.68,7.23-4.88,8.16-13.75,6.54-17.52,15.26-.69,1.54.51,3.21-.24,5.62-1.36,2.54-2.72,5.09-4.08,7.63-.64,3.64.69,16.24,2.09,24.88.3-.12.61-.24.91-.36.26,0,.49.23.85.15.74-.16,1.6-.82,2.69-.87.43-.02.76.52,1.26.58.52-.14,1.04-.28,1.56-.42.09.19.18.39.27.58.79.03,1.32-.32,2.09-.51.73.64,2.24.47,3.53.3,1.48-.04,2.97-.09,4.45-.13.68.11,1.07.5,1.81.56.78-.78,2.14-.76,3.07-.66.75.08,2.6-.11,3.24.28.65.4,3.22,3.89,3.4,4.83-.14.56-.27,1.12-.41,1.68,0,.47.42.6.36.93-.25,1.82-2.51,2.57-3.07,4.42.05.45.09.9.14,1.35-1.14.95-1.5,2.35-2.15,3.68-.19.14-.38.28-.58.43l-.28.91c-.43,1.08-2.42,2.66-3.43,3.5.02.29.1.45.18.63,1.33.26,2.67.15,3.93-.54,2.45,2.11,3.16,5.04,5.28,7.23,5.12,3.35,10.24,6.69,15.36,10.04,4.65,2.27,10.05,4.99,11.52,10.04,2.9.86,5.28.35,7.92,2.41v3.61c2,.54,4,1.07,6,1.61,1.61,1.55,1.87,5.1,3.36,6.02,3.81,2.35,7.79,1.08,10.56,2.01,1.34.45,1.75,2.21,2.64,2.81,1.52.13,3.04.27,4.56.4,4.03,2.2,1.93,3.02,7.92,2.81.24,1.2.48,2.41.72,3.61,1.28-.54,2.56-1.07,3.84-1.61,4.48,6.62,10.07,8,17.28,10.04.16,1.2.32,2.41.48,3.61,5.99-1.19,13.35,7.75,18.72,11.65,2.06,1.49,5.04,4.16,7.92,3.21,1.04-.54,2.08-1.07,3.12-1.61,1.84.41,2.69,3.78,4.08,4.82,2.24.54,4.48,1.07,6.72,1.61,1.82.99,1.69,3.6,4.08,4.02.56-1.07,1.12-2.14,1.68-3.21,2.22.14,2.4.83,3.6,2.41,1.13-4.2,3.37-7.78,6-11.65,0,0,42.06-119.7-3.01-238.06Z" fill-rule="evenodd"/>
  <path d="M266.51,174.24c7.21,1.35,7.41,5.58,13.44,7.44.47,1.75.43,3.9,1.2,5.76.51,1.24,2,1.97,2.64,3.36-.17,1.35-.93,2.28-.24,3.84,1.19,2.71,3.16,4.24,2.4,8.4-.64-.08-1.28-.16-1.92-.24-.84,2.99.37,6.8.48,10.08-1.22.01-.86-.11-1.68.24-.23,2.22.73,3.67,1.2,5.28.51,1.75-.49,6.93,0,10.56-2.73.29-2.21,1.95-3.84,2.88-1.28.08-2.56.16-3.84.24-1.31.57-2.81,3.12-4.08,4.08-2.03-4.8-7.09.61-9.84-.24-.29-1.14-.51-1.65-1.44-2.16-2.61-.72-3.26.98-4.8,1.92-.64-3.6-1.28-7.2-1.92-10.8-1.2-1.28-2.4-2.56-3.6-3.84-.93-2.29-.19-5.24-1.92-8.64-1.72-.28-5.52-.67-6.96-1.44-.56-.56-1.12-1.12-1.68-1.68-1.44.16-2.88.32-4.32.48-4.06-1.46-4.24.23-7.2-.24-1.05-.17-2.31-1.12-3.36-1.44-1.92-.59-11.69,2.19-13.44,2.4-4.92.6-11.55-2.37-13.68,2.16-2.19-.63-6.41-2.71-8.16-.24-3.17,5.46,1.16,9.95,0,16.32-.08,15.12-.16,30.24-.24,45.36.64,4.08,1.28,8.16,1.92,12.24-.56,1.2-1.12,2.4-1.68,3.6-1.3,5.39,2.24,9.15,3.12,13.2v7.92c-.41,1.05-1.68,1.85-1.68,3.12-.5.91,1.62,2.9,2.64,3.36,1.52-.32,3.04-.64,4.56-.96l-.24.96.72.96c4.5,1.67,10.31-1.3,15.36.96,4.13-1.01,6.42-1.55,9.36-.24,2.97-.66,4.19-2.27,5.52-.72.29.6-.15.24.48.48,1.6.64,3.18.75,4.8,0,.24,1.09.31,1.16.96,2.16,2.48.64,12.34,1.46,14.4-.48,1.02-.78.85-1.84,1.44-2.64,2.68.73,6.63,2.21,9.6.24-.11-3.71.74-4.12,2.4-6.24-.8-2.72-1.6-5.44-2.4-8.16-.58-2.35.02-4.57-.48-5.76.74-.43,1.42-.03,2.16-.48.72-1.2,1.44-2.4,2.16-3.6,1.64-1.42,2.4.1,4.32-.72l2.4-2.4,1.2.96c.8.48,1.6.96,2.4,1.44,2.56-1.04,5.12-2.08,7.68-3.12.64.88,1.28,1.76,1.92,2.64h.96c.64-.64,1.28-1.28,1.92-1.92,2.32,1.41,1.38,4.62,3.12,6.96,2.81,3.77,1.82,6.05,2.88,10.32.39,1.59,1.67,2.99,1.68,5.04.01,1.86-1.09,3.6-.96,5.52.16,2.8.32,5.6.48,8.4-.2,1.4-1.49,1.68-1.92,2.64-.56,2.24-1.12,4.48-1.68,6.72-1.16-.13-1.48-.4-2.16.24-1.38,1.81-2.02,3.65-3.12,5.76-2.12-.07-2.28.25-2.88,1.68.7,4.24-3.08,2-5.76,3.36-9.54,4.85-20.85-2.1-29.52,2.4-.4.8-.8,1.6-1.2,2.4-3.92.08-7.84.16-11.76.24-1.68-.64-3.36-1.28-5.04-1.92-1.36.48-2.72.96-4.08,1.44-2.16-.24-4.32-.48-6.48-.72-.64.48-1.28.96-1.92,1.44-1.44-.4-2.88-.8-4.32-1.2-1.17-.22-2.7,1.14-3.36,1.44-2.08.94-4.17-.93-5.28-1.2-1.68.24-3.36.48-5.04.72-4.89.86-11.44.32-15.84-.48-1.68.08-3.36.16-5.04.24-3.73-.94-8.07-4.15-12.72-5.28-.13-3.66-2.92-11.52-5.04-13.44.78-2.11,2.42-3.93,2.88-5.28.82-2.41-.67-5.43-1.2-7.44-.43-1.62.7-1.94.96-3.6-.86-1.35-1.24-2.53-2.64-3.36l.48-.48c.68-.99,1.13-.65,1.44-2.16-3.07-1.97-.17-7.42-3.36-11.76,1.87-3.44,2.28-14.48.24-16.8,0,0,1.72-9.14,1.68-9.36-.56-2-1.12-4-1.68-6-.56-10.35-1.26-21.34,2.16-32.16-.43-2.1-2-2.46-2.16-5.04.8-1.12,1.6-2.24,2.4-3.36-.84-3.56-1.49-5.39-2.64-8.64.92-.11,1.44-.2,1.92-.72,1.93-3.46-1.31-7.58-.72-9.84.56-.96,1.12-1.92,1.68-2.88.01-1.99-1.52-2.57-.96-4.08,1.56-.96,4.56-8.93,4.8-10.32-.24-1.92-.48-3.84-.72-5.76,1.69-6.76,14.35-7.48,19.92-5.76,3.54-2.86,10.42-.44,14.64-.96l.24-1.2c2.37.69,6.16.49,8.64,1.2,1.29-.32,2.51-1.31,4.56-.96,1.52.32,3.04.64,4.56.96,1.52-.32,3.04-.64,4.56-.96,3.62.87,9.44,3.2,13.92,2.16.16-.8.32-1.6.48-2.4h.24c7.4,1.21,8.51,4.3,15.12-.96,1.16.31,12.73,2.84,13.2,2.64l1.44-1.2c-.06-1.71-.39-1.66-.96-2.64l.72-.24Z" fill-rule="evenodd"/>
  <path d="M392.26,181.16c1.02.36,2.08,1.09,2.64,1.92,4.71,6.69.55,16.5,1.2,24.24.25,2.99.78,15.37,1.44,17.76-.96,2.8-1.92,5.6-2.88,8.4-.37,2.25.88,7.22,1.68,8.64-.16,3.36-.32,6.72-.48,10.08-.82,5.21,1.43,9.78,1.92,14.16-2.35,2.79.16,7.06-3.12,9.12.38,6.02,7.93,11.49,2.64,17.76l-1.2-.72c-.53.81-.46.43-.48,1.44.64-.08,1.28-.16,1.92-.24.05,1.18-.11,16.81-.48,17.76-1.07.33-.94.38-1.44,1.2,2.71,9.3,1.65,16.5,2.64,25.2-6.6.81-5.41,1.04-8.88,5.28-.85,1.04-2.48.32-4.08.72-1.34.33-1.12,1.48-1.92,1.92-3.6,1.98-10.65-1.64-12.72-2.88.76-5.42-.22-18.93-2.64-24.72.64-.4,1.28-.8,1.92-1.2-2.2-11.92,2.25-23.94-2.88-35.52,3.77-3.1,2.72-5.98,3.84-10.08l-1.2-.72c-2.76,1.21-5.09,2.34-8.16,2.88h-5.04c-1.45.79-2.62,2.34-4.8,2.64-1.84-.56-3.68-1.12-5.52-1.68-1.49,1.76-3.01,4.37-6.72,3.84-1.36-.24-2.72-.48-4.08-.72-1.36,1.04-2.72,2.08-4.08,3.12,1.94,8.64.18,15.62-.24,24.96.56,7.76,1.12,15.52,1.68,23.28-.32,1.84-.64,3.68-.96,5.52.34,1.49,1.69,2.58,1.68,3.84-3.45.09-7.07,3.02-7.2,6.48-1.57-.64-2.84-.92-4.32-.72-.82.59-1.31,1.05-1.2,1.92-2,.07-12.91-1.93-13.44-2.64-1.94-2.58-.47-16.01-1.2-19.68-.37-1.86-2.01-2.16-2.16-4.32v-.24c1.35-.89,1.76-1.47,2.4-3.12-.48-1.28-.96-2.56-1.44-3.84-.53-1.78.56-4.66,1.2-6.48-.16-6.56-.32-13.12-.48-19.68-.64-.96-1.28-1.92-1.92-2.88,1.28-3.59.38-5.25,0-8.4-.14-1.15,1.5-2.04,1.2-4.08-.36-2.42-1.96-5.56-2.16-8.4-.04-.52.68-2.68.96-3.84-.24-4.96-.48-9.92-.72-14.88.8-2.24,1.6-4.48,2.4-6.72.45-2.12-.02-6.04.24-7.68.31-1.96-1.1-4.84-1.44-6.24.24-1.28.48-2.56.72-3.84-.56-2.08-1.12-4.16-1.68-6.24-.49-2.88,1.81-5.57,2.16-7.92-.4-2.08-.8-4.16-1.2-6.24.64-1.2,1.28-2.4,1.92-3.6v-.24c-.48-1.76-.96-3.52-1.44-5.28,1.09-.28,3.2-3.1,3.36-5.04,2.71-.06,8.27-.88,10.08.24,1.94-.84,7.87-4.13,9.6-2.88,1.33,1.26,4.57,14.89,3.84,17.76-.48,1.9-2.24,3.74-2.64,5.28.8,4.4,1.6,8.8,2.4,13.2,1.08,6.21-2.4,9.91.48,14.64,3.12,1.44,6.24,2.88,9.36,4.32,2.32-.08,4.64-.16,6.96-.24,1.65-.14,5.44.11,6,.96,2.56-.4,5.12-.8,7.68-1.2,6.99-1.01,15.59,3.13,14.64-6.96-1.6-.82-2.63-2.87-3.36-4.56,1.13-3.5-.11-6.13-.72-8.88.48-1.6.96-3.2,1.44-4.8-.08-1.76-.16-3.52-.24-5.28v-.24c.64-1.04,1.28-2.08,1.92-3.12-1.78-3.03-3.35-4.33-3.36-8.88,4.66-2.86,5.28-7.63,8.16-12.24,3.66.13,8.87,1.21,12-.48Z" fill-rule="evenodd"/>
  <path d="M541.83,343.95v-4.65c-.7-1.13-1.41-2.25-2.11-3.38-.6-2.23,1.25-4.1,1.48-5.49-.21-1.06-.42-2.11-.63-3.17-1.48.14-2.96.28-4.43.42-.56-.79-.81-.87-.84-2.32,1.27-.7,2.53-1.41,3.8-2.11.14-.21.28-.42.42-.63-.55-.24-1.3-.25-1.69-.63-.92-.61-1.01-2.4-1.06-3.8.21-.35.42-.7.63-1.06,1.41.07,2.82.14,4.22.21-.91-.28-1.83-.56-2.74-.84-.35-.35-.7-.7-1.06-1.06.1-2.2.92-2.4,1.9-3.59-.68-.29-.7-.23-1.9-.21-.14-.91-.28-1.83-.42-2.74-3.84,1.03-7.31-.4-11.82-.42-.14-.28-.28-.56-.42-.84v-.21c.49-.49.99-.99,1.48-1.48,3.11-.63,7.48-.15,11.19-.21-.14-.56-.28-1.13-.42-1.69.84-.35,1.69-.7,2.53-1.06-.13-1.4-.9-2.18.63-4.01h-1.48c-1.14-1.64-1.63-2.66-.63-4.65-1-.77-1.63-2.31-2.11-3.59.97-1.01,1.62-1.38,3.38-1.69-.96-1.15-2.28-1.8-1.27-3.8-.49-.14-.99-.28-1.48-.42-.91-1.53-1.25-4.11-.21-5.91.49-.35.99-.7,1.48-1.06.25-.98-.91-1.84.21-2.74,1.06-.21,2.11-.42,3.17-.63-.52-.78-1.65-.36-2.11-1.06-2.77-4.16-3.38-3.33-2.53-9.29.36-2.51.76-3.69,2.96-4.22-.77-.77-1.55-1.55-2.32-2.32-1.56-2.56-.45-8.01-.84-11.4-.64-5.51-1.29-19.22,1.06-25.76.7-.28,1.41-.56,2.11-.84-1.11-1.99-2.76-2.03-4.01-4.01.5-1.62.39-2.47,2.53-2.53-1.04-1.8-1.97-2.19-2.96-4.86.52-.66.29-.74,1.27-1.06-.49-.77-.99-1.55-1.48-2.32.15-1.22.34-1.18.84-1.9-.35-.42-.7-.84-1.06-1.27.5-.74.56-.88,1.69-1.06-.63-2.18-1.27-4.36-1.9-6.55.84-.35,1.69-.7,2.53-1.06-.46-2.2-.82-1.93-.42-4.43-1.13-.06-1.6-.19-2.11-.84-.81-1.03-.44-2.48-.21-3.59.91-.51.83-.47,2.11-.42-1.12-6.19-2.79-15.1-2.32-21.75.24-3.49,1.14-8.15.42-11.19-.65-2.76-2.7-3.08-3.59-5.07-.43-.97-.62-6.52-.42-8.45-1.73-1.74-4.21-2.66-5.91-4.43.19-1.58.75-1.94,2.32-2.11-1.69-1.37-6.79-.83-9.29-.84-2.47,2.98-7.29,1.27-11.19,1.48-6.9.37-32.17-.13-35.68,2.74-1.98-.25-3.35-2.29-5.07-2.74-1.34-.36-5.56,1.78-6.76,1.48-4.05-1.03-7.24-1.97-11.4-.42-3.33-3.08-8.63-1.72-13.94-.21-.56-.56-1.13-1.13-1.69-1.69-.21.07-.42.14-.63.21-2.93,1.48-3.62,1.57-7.81,1.48-.51-1.02-.94-1.57-2.53-2.11-.07.07-.14.14-.21.21.28.35.56.7.84,1.06-1.46,1.65-3.54,2.43-5.7,3.38-.63-.63-1.27-1.27-1.9-1.9h-.84c.14.42.28.84.42,1.27-.77,1.45-1.83,1.89-3.8,2.11.63.87,1.01,1.16,1.06,2.74-.21.35-.42.7-.63,1.06-.91.07-1.83.14-2.74.21-1.54,5.03-2.48,9.62-.42,14.15-.05,1.95-.75,1.61-1.69,2.53.55.33-.22,11.69,0,13.3-.49.07-.99.14-1.48.21.33.89.66.94,1.48,1.27.56,1.93,1.19,2.86.42,5.28-.42.78-.54.8-1.48,1.06.47,1.95,2.51,6.18,1.9,8.45-.49.49-.99.99-1.48,1.48-.06.13-.31,4.54-.42,5.49.28,2.39.56,4.79.84,7.18-.12,4.38,2.37,8.01-.21,11.19.46,1.69,1.63,2.95,1.69,4.43.36,1.2-.76,1.57-1.69,2.11.6,1.36,1.87,2.43,1.9,4.22-.49,1.06-.99,2.11-1.48,3.17.07,2.74.14,5.49.21,8.23.54,2.28,1.86,2.16,1.69,5.28-3.42,1.6.39,4.24,1.69,6.12v1.27c-.8.58-1.64.91-2.96,1.06.21.49.42.99.63,1.48-.56.7-1.13,1.41-1.69,2.11,1.87,3.7,1.66,7.38,2.32,10.98-.49.21-.99.42-1.48.63.38.98,1.12.92,1.48,1.69.87,1.85-.53,3-.63,5.07.07.14.14.28.21.42,3.71.61,4.31.86,6.12,3.17-.07.28-.14.56-.21.84-1,1.46-4.25.46-5.49,2.11-1.54,2.36.45,7.52-.42,9.92v.63c1.45-.09,1.88-.01,3.17.21.57,2.97-.94,3.2-2.96,4.65-.18,1.2-.23,2.62.42,3.8.77.63,1.55,1.27,2.32,1.9v.21c-.8.52-1.31.8-2.11.84-.07.21-.14.42-.21.63.84,1.23,1.54,1.72,2.11,3.38-.63.28-1.27.56-1.9.84.39,1.38.81,2.47,1.06,3.8-.73.36-.97.49-1.69.42-.91,1.04.51,2.57,1.48,3.59-2.37,5.02.67,9.25,0,13.3-.28,1.7,1.95,5.98-.21,6.97.56,1.13,1.13,2.25,1.69,3.38.21,3.1.42,6.19.63,9.29,1.55,2,3.71,2.6,5.07,5.07,1.79.38,3.31-.46,5.49,0,1.83.84,3.66,1.69,5.49,2.53,5.55-4.04,18.37-4.62,24.28-2.53.59.22.11.35.63,0,4.32-2.9,8.37,1.45,11.82,1.48,1.96.99,3.54-.67,4.01-1.9,4.47.03,4.68,2.26,8.23,2.11.7-.7,1.41-1.41,2.11-2.11,2.24.31,3.47,2.18,5.49,2.53,2.11-.35,4.22-.7,6.33-1.06,8.04,2.02,6.69,3.48,14.99,0,2.61,1.69,10.16,4.2,13.09,1.48.77.49.96.72,1.27,1.69,2.37-.58,7.84-.98,9.29-2.11,1.06.42,2.11.84,3.17,1.27.84-1.13,1.69-2.25,2.53-3.38,1.41-.14,2.82-.28,4.22-.42,3.92-1.8,1.23-2.64,7.39-2.74v-.42c-1.24.19-3.14-.22-4.01-1.48ZM507.84,314.39c-1.44.89-13.23,1.37-14.15,1.06-.99-.49-1.97-.99-2.96-1.48-2.6.56-5.21,1.13-7.81,1.69-1.45-.34-1.6-1.88-4.01-1.48-4,.66-9.45,2.93-12.46.84h-.21c-1.34.84-2.67,1.69-4.01,2.53-1.82.73-8.87-2-10.56-2.53-2.14-.68-5.27,1.45-8.02.21-2.09-1.98.14-9.13-.63-13.09-.45-2.29-1.78-8.14-.63-11.61.58-1.75,3.22-4.68,2.53-6.97-.56-.49-1.13-.99-1.69-1.48-1.74-3.33-1.6-12.44-.42-15.2-.51-2.05-2.89-4.57-3.59-6.55v-4.43c1.39-7.07,1.16-18.61.42-25.34-.49-4.43-.51-9.12,1.27-12.25-.2-2.01-1.26-1.49-1.69-2.74-.94-2.74.52-15.24,1.06-18.37.93-5.47-1-10.21-1.69-13.72-.67-3.39,1.46-5.72,1.9-7.81-.28-1.76-.56-3.52-.84-5.28,2.02-2.46,6.68-4.1,11.19-2.74,1.76.53,2.86,2.16,5.7,1.69,9.04-1.51,16.18-1.18,23.44-3.17,2-.55,3.82.77,5.28,1.06,4.12.8,7.85.14,11.61-.21.07-.35.14-.7.21-1.06.4.34,2.42,3.71,2.53,4.01-.07,3.87-.14,7.74-.21,11.61.35,2.04.7,4.08,1.06,6.12-.63,1.27-1.27,2.53-1.9,3.8.68.75,3.21,7.15,2.96,8.87-.28,1.13-.56,2.25-.84,3.38.49.7.99,1.41,1.48,2.11-.21,1.34-.42,2.67-.63,4.01.45,1.16,1.6,4.37,1.9,6.33-.84.7-1.69,1.41-2.53,2.11-.65,2.56-.1,3.63,1.06,5.28-.77.77-1.55,1.55-2.32,2.32.38,1.42,1.79,1.6,2.96,2.11.08,5.5,1.41,8.87-1.27,13.72.42.28.84.56,1.27.84,1.18,3.3-3.33,6.33,1.27,9.92-1.21,2.05-1.5,4.79-.84,8.02.7.28,1.41.56,2.11.84-.49,3.1-.99,6.19-1.48,9.29.28,2.39.56,4.79.84,7.18.7,2.46,1.41,4.93,2.11,7.39.35,2.56-1.59,8.66-.84,11.82.28,1.17,1.48,11.59,1.9,12.25.6.93,1.46.95,1.9,2.32-.75.93-1.44,1.23-1.69,2.74Z" fill-rule="evenodd"/>
  <path d="M654.04,212.18c.39-1.94-.31-7.35-1.2-9.36.88-1.93.79-2.75.96-4.08.47-3.72-2.21-9.59-4.32-11.04-.9-.38-12.98-1.25-13.2-1.2-.75.18-1.66,1.12-3.12.72-1.84-.56-3.68-1.12-5.52-1.68-1.42.56-4,1.25-6.24.72-5.4-1.29-10.22-3.67-17.04-3.6-2.46,2.51-5.58.94-8.4,1.68-1.76.8-3.52,1.6-5.28,2.4-1.36-.48-2.72-.96-4.08-1.44-1.92-.28-3.57,1.54-5.28,2.16-4.12-1.77-13.3-.14-16.8.96-.43.27-.56,2.7-.72,4.32-.88.4-1.76.8-2.64,1.2-.4,1.34,1.42,2.73,1.2,4.56-.23,1.95-1.11,2.96-1.68,4.8-.83,2.65.7,5.84-.24,7.92-.56.56-1.12,1.12-1.68,1.68-1.21,3.21,2.66,6.8,1.92,8.4-.48,5.12-.96,10.24-1.44,15.36-.88,2.4-1.76,4.8-2.64,7.2.12,5.19.45,11.01-.24,16.56-.8,6.43,2.5,22.72-.72,26.16,3.92,6.45.03,10.91.72,18.48.33,3.61-.75,13.81-1.68,18.24,1.63,4.38,1.6,8.3,2.16,12.96.46,3.86-1.63,8.41,0,12,1.34,2.26,10.95,2.15,13.44,2.88,3.28-2.43,5.87-2.11,7.92-6.24,1.13-.46,2.4-.05,3.84.48.16-.56.32-1.12.48-1.68-.47-1.84-1.12-4.12-1.44-6,3.64-4.56.57-6.78,1.2-12.72.32-1.52.64-3.04.96-4.56-.52-3.43-1.67-6.44-.96-9.6.48-.96.96-1.92,1.44-2.88,1.05-3.54,1.5-19.14.48-23.04.8-.24,1.6-.48,2.4-.72,1.04,1.97,2.9,4.39,4.8,5.76.72.24,1.44.48,2.16.72.56,1.52,1.12,3.04,1.68,4.56,1.88,3.3,3.96,7.05,7.68,8.64-.4.81-.68,1.59-1.68,2.4v.72c.64.16,1.28.32,1.92.48.08.08.16.16.24.24.72,1.36,1.44,2.72,2.16,4.08,1.21,1.68,3.92,2.2,5.04,4.08.48,1.36.96,2.72,1.44,4.08,1.14,1.48,3.29,1.39,4.08,3.36.72,3.28,1.44,6.56,2.16,9.84,1.25,2.68,8.01,9.87,10.32,12.24,1.39,0,2.55.03,3.6-.72.87-.86.15-2.71,1.44-4.08,1.07-1.14,2.3-.64,3.84-1.44v-.24c1.37-.92.98-3.19,2.16-4.08,1.04-.32,2.08-.64,3.12-.96.54-.54.62-.82.48-1.44.02-1.99-3.71-4.26-2.88-6.96.5-.5.62-.45,1.68-.48-.92-1.54-2.05-2.7-2.88-4.56.29-1.25.27-1.12,1.68-1.2.03-4.78-6.68-8.76-9.36-12-3.19-3.85-3.98-9.83-6.96-13.92-2.12-2.9-6.33-3.08-8.88-5.52-.72-2-1.44-4-2.16-6-2.73-3.88-5.61-1.51-6.72-8.16-2.54-1.73-2.78-4.96.72-6.24.8.24,1.6.48,2.4.72,1.26-1.44,2.12-2.59,3.6-3.84h.96c.65,1.19.9,3.66,1.92,4.56,1.65-.84,2.75-.08,4.8-.72,1.44-.72,2.88-1.44,4.32-2.16,1.76.08,3.52.16,5.28.24,2.89-.72,6.44-2.03,9.36-3.6,2.81-.11,3.51.62,4.56,2.16h.48c1.27-.99,2.27-2.18,4.08-2.64.48-1.41,1.58-9.68,1.2-11.52-.4-2.96-.8-5.92-1.2-8.88.64-2.32,1.28-4.64,1.92-6.96.4-3.13-1.14-5.77-.24-10.32,1.04-4.08,2.08-8.16,3.12-12.24ZM628.84,243.62c-2.11,1.3-6.83-.03-9.84.24-6.55.6-26.57-1.24-31.68-4.56-3.11-2.02-1.41-6.78-2.88-7.92-.4-.4-.8-.8-1.2-1.2,5.7-6.18,1.07-14.31,1.44-21.36,4.21-2.13,8.02.77,13.44.48,2.96-.16,5.86-1.33,8.64-1.92,5.78-1.22,6.39,1.42,11.52-1.44,3.94.15,10.07-.1,12.72,2.64-2.09,3.35-2.04,6.84-.96,10.32-2.54,2.77.21,11.36-1.44,15.6-.16.08-.32.16-.48.24,1.23,1.37,2.57,1.93,3.6,3.6-.14,1.59-1.93,4.59-2.88,5.28Z" fill-rule="evenodd"/>
  <path d="M777.57,339.82c-9.17.49-18.06,2.07-25.68,4.32-1.2-.88-2.4-1.76-3.6-2.64-3.12.91-2.68,1.4-4.32,3.6-3.85.7-8.48-4.54-11.76-1.68-1.2-.64-2.4-1.28-3.6-1.92-2,.16-4,.32-6,.48-9.63-1.26-20.6-1.18-30-.48-5.28-.56-10.56-1.12-15.84-1.68-1.52-.72-3.04-1.44-4.56-2.16-.6-4.06-3.84-9.8-6-12.96.88-1.82,2.17-2.72,2.4-4.32.28-1.17-.6-1.87-1.2-2.88l1.68-1.68-.24-1.2c-1.03-.2-1.58-.34-2.16-.96l.96-.96c.32-.88.64-1.76.96-2.64-3.72-7.72,2.9-13.91-1.92-19.2,1.37-.5,1.52-1.42,2.16-2.64-4.71-12.15,2.45-29.32-.96-41.28-.54-1.88,2.03-3.26,1.44-5.52-.41-1.55-2.35-2.13-3.36-3.12,1.12-.16,2.24-.32,3.36-.48.16-.48.32-.96.48-1.44-.37-4.17-2.68-4.36-4.56-7.2,4.74-.86,1.43-5.58,3.6-6.96.84.89.73.47,1.68-.24.82-3.64-.44-4.13-.48-8.16.64-.56,1.28-1.12,1.92-1.68-.43-2.83-1.92-5.8,0-8.88,1.41-.14,1.57-.29,2.16-1.2-.25-1.57-.22-4.22-2.16-5.28.24-1.06.16-.96.96-1.44,3.01-1.11,4.89-1.09,6.96-2.88-.16-.72-.32-1.44-.48-2.16l.72-.72c3.76-1.49,7.15.18,9.36.96,2.42.85,5.31-.91,6.96-.96-.24,2.56-.48,5.12-.72,7.68.96,3.36,1.92,6.72,2.88,10.08-.72,1.44-1.44,2.88-2.16,4.32.4,1.36.8,2.72,1.2,4.08-.4,3.44-.8,6.88-1.2,10.32-.82,15.04,3.49,31.8.96,46.56-.48,5.6-.96,11.2-1.44,16.8-.36,1.35-1.56,4.03-1.2,6.24.48,1.2.96,2.4,1.44,3.6.15,2.31-1.68,3-.72,6,.64.96,1.28,1.92,1.92,2.88.72,2.21-.91,6.06.96,7.92l.96.96c3.36-.6,6.94-1.08,10.32.72,2.23,1.19,3.64,3.64,7.92,2.88,7.76-1.84,15.52-3.68,23.28-5.52,2.96-.24,5.92-.48,8.88-.72,6.17-.98,20.48,2.94,22.08-.48.08-1.04.16-2.08.24-3.12.96-.88,1.92-1.76,2.88-2.64-.98-7.94-1.41-17.06.72-24.24l-.24-.24c-.98-3.22-1.28-5.72,0-8.64-.36-1.21-1.86-1.89-1.44-3.12.5-.89,1.36-1.3,1.2-2.16-.23-1.35-2.06-2.38-2.4-4.08.64-2.88,1.28-5.76,1.92-8.64-.4-3.76-.8-7.52-1.2-11.28.48-2.96.96-5.92,1.44-8.88-.48-1.68-.96-3.36-1.44-5.04,1.6-.25,1.72-.85,2.64-1.68-.23-4.65-2.95-5.39.48-8.4-1.64-4.28-3.17-5.53-.96-10.8-1.36-.86-2.72-3.83-2.88-6.48,5.27-3.09-1.33-7.89,0-12.72,1.31-4.77,2.49-9.08,1.92-14.16h.48c2.28-.82,5.28,1.04,6.72,1.92-.23,1.67-.36,2.36.48,3.84,4.27-.06,8.63-1.7,11.76.48.38,2.92,2.35,5.34,2.16,7.68-.72,2.88-1.44,5.76-2.16,8.64-.72,3.42,1.27,6.14.96,8.4-.14,1.04-1.57,2.07-.96,3.84l2.16,2.16c.32,1.76.64,3.52.96,5.28-4.21,1.14-.87,4.15-1.2,6.72-.17,1.36-1.55,2.46-1.2,4.56.31,1.85,4.03,9.94,3.84,11.76-.36,3.47-3.1,6.93-4.08,9.6-.78,2.13,1.11,2.82,1.44,3.84,1.04,3.24-.99,6.13.24,8.16v.48c-1.66.41-1.88,1.12-2.64,2.4.57,2.34,1,4.16,2.88,5.76l-.24.48c-1.8.22-2.69,1.08-3.6,2.16.9,1.59,1.41,2.78,2.4,4.08h-.48l-1.44,1.44c.61,4.26,4.39,4.63,5.04,9.12-.8,1.04-1.6,2.08-2.4,3.12-.81,2.21.65,2.98.72,4.8-.24,5.36-.48,10.72-.72,16.08-.16,3.12-.32,6.24-.48,9.36-.8.72-1.6,1.44-2.4,2.16-.82,1.68.73,3.13-.48,4.56-1.55,1.83-6.39,1.63-4.32,5.04.8.32,1.6.64,2.4.96l-.24.48c-2,.32-3.63,1.4-6.24.96-2.08-.35-4.4-1.38-6.96-.72v.24c.16.8.32,1.6.48,2.4Z" fill-rule="evenodd"/>
  <path d="M920.77,166.35c1.99.14,2.78-.12,4.32-.72.95-2.65.45-5,.24-8.4,3.16-1.39,2.58-2.63,3.12-6.24,4.03-.57,5.51-5.18,10.08-6,1.54,1.8,7.44,5.9,9.84,6.72,2.52.86,6.13.56,7.92,2.16.64,1.28,1.28,2.56,1.92,3.84,1.51,2.18,4.28,3.45,5.52,6,.32,1.52.64,3.04.96,4.56,1.18,2.11,4.07,3.59,5.52,5.76-.13,2-1.25,2.44-1.44,3.84.32.72.64,1.44.96,2.16-.24,1.6-.48,3.2-.72,4.8-3.69.83-.04,4.26-.48,6.72-.2,1.1-1.41,1.66-1.68,3.12,1.27,1.2,1.74,2.7,1.68,5.28-.96.4-1.92.8-2.88,1.2-.43,3.6,3.87,5.62,3.12,9.12-.72,1.6-1.44,3.2-2.16,4.8.18,1.46,1.9,2.51,1.68,4.56v.72c-.72,1.59-2.29,2.26-2.16,4.8.48,2.64.96,5.28,1.44,7.92-.34,2.17-2.92,11.18-2.16,13.44.55,1.63,1.82,2.51,1.92,5.04-1.34.51-1.03.87-1.2,1.92.81.58,3.78,6.38,3.84,7.92-.95,2.35-2.38,3.54-3.84,5.28.98,2.1,2.46,2.97,2.64,6l-1.44,1.2c.95,1.26,1.77,7.22,1.2,10.56-.32,1.52-.64,3.04-.96,4.56.72.72,1.44,1.44,2.16,2.16-2.11,5.87-.33,5.39,1.44,10.08l.72,9.36c-.01,2.85-2.06,4.66-2.88,8.16-.65,2.79,4.11,7.12,2.64,9.36-1.65,3.24-5.24,3.4-9.6,4.56-12.34,3.29-14.13,2.51-21.84-6l.24-1.2c1.08-.16,1.56-.37,2.16-.96-1.65-4.51-1.14-10.3-2.64-15.36-.8-1.84-1.6-3.68-2.4-5.52-.52-2.69.96-4.37,1.2-6.48.21-1.8-1.06-2.18-1.44-3.12.32-2.72.64-5.44.96-8.16-.48-1.04-.96-2.08-1.44-3.12-.99-4.6,3.4-7.86,2.16-11.04-.68-1.07-1.73-1.34-2.88-1.92.08-4.8.16-9.6.24-14.4-.56-2-1.12-4-1.68-6-.18-2.44,1.71-3.93,2.4-5.52,1.55-3.54-1.44-6.43-1.92-7.92-.57-1.75.97-3.2,1.2-4.32.32-1.56-2.82-13.87-3.36-14.64h-1.92c-2.41,1.19-1.68,4.39-3.6,5.76-.72.08-1.44.16-2.16.24-.64,1.28-1.28,2.56-1.92,3.84-1.46,1.93-3.8,3.47-5.28,5.52-1.04,2.16-2.08,4.32-3.12,6.48-1.13,1.66-3.75,1.97-4.8,3.84-.98,1.74-.98,3.98-1.92,5.52-1.12.24-2.24.48-3.36.72-2.67,6.47-2.38,9.2-7.44,13.44.24,1.2.48,2.4.72,3.6-.7.56-.55.42-.72.96h-.96c-1.1-4.01-3.6-2.66-6.72-4.08-1.76-5.45-5-3.82-6.96-6.96-1.48-2.37-2.91-5.91-5.76-6.72-1.47-.42-3.12.8-4.56.72-1.63-1.81-1.87-2.42-4.56-3.36.24-1.98.25-2.27-.72-3.84-1.42-.14-2.01-.27-2.64-1.2v-2.4c-.64-1.93-2.55-2.22-3.6-3.6-.88-2-1.76-4-2.64-6-1.35-1.05-3.75-.59-4.8-1.92-2.29-2.7.1-6.02-3.36-7.68-1.53-.61-2.91.45-4.08.96v-.48c-1.9-3.94-.91-4.61-4.08-7.44-1.32,0-1.92.05-2.4.96-3.39,2.28-.01,18.94-.48,23.28-.26,2.42.62,5.55.96,8.88-.48,4.16-.96,8.32-1.44,12.48.4,1.84.8,3.68,1.2,5.52.43,2.72.66,8.07,1.2,11.76-.48,1.84-.96,3.68-1.44,5.52-.58,4.7,1.42,12.82,2.4,18.72.45,2.7-1.72,4.01-.72,8.16.88.56,1.76,1.12,2.64,1.68.26,3,.79,6.43-.48,9.36l-1.92,1.92c.4,2.88.8,5.76,1.2,8.64-.4,4.16-.8,8.32-1.2,12.48-5.19,2.19-4.28.76-9.84-.24-1.92.24-3.84.48-5.76.72-9.46-1.47-11.4-6.47-12.96-14.16-.67-3.3-2.83-5.17-2.88-8.4.72-.48,1.44-.96,2.16-1.44.07-3.77-.8-6.6-1.68-9.36,1.38-.24,1.39-.37,1.92-1.44-2.15-5.58-1.82-12.38-3.12-18,2.33-1.81-.76-5.82,0-7.92,1.34-3.69-1.46-8.81-.48-13.68.48-2.39,1.81-4.56,1.44-7.2-.21-1.48-1.58-2.87-2.4-3.84,1.81-3.01-.94-5.18-1.68-7.68,1.43.02,1.55.1,2.16-1.2,2.49-4.65-1.35-13.58.48-19.2.45-1.38,1.37-1.77,1.44-4.08-.72-.64-1.44-1.28-2.16-1.92.22-2.38,1.48-2.15,2.16-3.6,2.05-4.38-1.19-7.71-1.92-10.8.64-.24,1.28-.48,1.92-.72.82-4.68.47-5.62-.72-9.6-.73-2.44,2.3-3.2.24-7.2.62-.59,1.36-.75,2.4-.96.67-4.35,2.58-7.34,3.6-10.56,1.08-3.4-.37-5.24,1.44-7.68,4.62-.88,5.8-4.2,12-3.12l-.72-.72c1.86-2.61,2.4-2.31,5.52-3.84.96-1.12,1.92-2.24,2.88-3.36,1.83-1.44,6.9-1.47,9.12-.96.32.72.64,1.44.96,2.16,1.32.06,1.72.05,2.64.48-.03,1.69-.04,1.65.48,2.88,2.69.77,6.82-.34,7.92.96,1.21.93,1,2.78,1.2,4.56,2.87.81,6.19,2.95,7.44,5.28.32,1.28.64,2.56.96,3.84,1.44.88,2.88,1.76,4.32,2.64-.15,6.62,9.88,7.54,12,12.72,1.55-.09,2.75-.2,3.36.72,1.36,3.32,1.82,4.13,5.52,5.04.11,3.41,3.39,6.13,5.76,7.92,1.12-.16,2.24-.32,3.36-.48.77-1.58.9-2.63.48-4.56,2.93-.38,1.26-1.05,2.4-3.12.24-.44,2.21-1.31,2.64-1.68-.25-4.02,1.21-4.74,1.92-7.68,1.29.12,1.49.19,2.4-.24,1.21-4.88,3.54-8.18,4.08-12.96,1.48.26,1.66.08,2.4-.96-.12-1.83-.73-2.45-1.44-3.6l.24-.24c.85.31.8.66,1.44,0,2.15-1.4,2.27-4.16,2.16-7.44Z" fill-rule="evenodd"/>
  <path d="M1095.62,312.01c-.81-1.45-2.48-2.41-3.84-3.36-1.84.08-3.68.16-5.52.24-12.59,2.41-28.89,4.7-42.24,4.56-3.22-.03-6.48,1.48-8.88,2.4-4.93,1.89-9.83-1.89-12.48-3.36-.74.91-1.21,1.82-1.44,3.6-.48.08-.96.16-1.44.24-2.32-1.6-4.24-1.64-6.48-3.12-1.21-.8-1.39-2.29-3.36-3.36-.5-3.08,2.11-4.84,1.92-7.68-.56-1.68-1.12-3.36-1.68-5.04-.71-5.82-.4-17.84,1.44-24.48,4.16.24,8.32.48,12.48.72,7.91-1.44,19.83-2.56,27.84-1.92,5.03.4,6.66-3.68,11.76-.24,1.69-.46,4.88-.53,5.76-1.2,1.69-1.28,1.82-2.66,3.84-3.36.49-3.01-.42-5.86-.96-10.32.32-1.76.64-3.52.96-5.28-2.08-2.56-4.16-5.12-6.24-7.68-1.44.16-2.88.32-4.32.48-1.04-.37-2.64-2.22-4.8-1.44-1.13.41-1.58,2.23-3.6,1.92-1.36-.8-2.72-1.6-4.08-2.4-1.52.8-3.04,1.6-4.56,2.4-2-.32-4-.64-6-.96-2.94.1-4.29,2.3-7.68.48-.16.56-.32,1.12-.48,1.68-3.34.77-4.92-.63-8.16-1.2-4.41-.78-7.5,3.43-12.24.96-.72-.46-.4-.04-.72-.96-.26-1.25,1.35-3.65,1.68-5.04.45-1.87-.89-3.12-.72-4.8.8-2.08,1.6-4.16,2.4-6.24-.95-1.24-1.63-2.28-2.4-3.84.87-1.03,1.57-1.04,2.88-1.68.72-.46.4-.04.72-.96-3.75-1.75-1.24-5.21-2.88-9.12-.54-1.3-1.61-2.31-2.16-4.32,2.47-3.12,15.4-5.2,20.88-2.4,3.81-3.88,7.36.38,13.44-1.2,1.74-.45,4.73-1.98,7.2-1.44,2,.48,4,.96,6,1.44,3.12-.72,6.24-1.44,9.36-2.16,3.2-.69,6.26.3,9.84-.48,8.52-1.86,8.53,3.16,15.36-3.36.25-1.37.13-3.42-.24-5.28-.93-4.63.97-8.8-1.44-12.24-1.01-1.44-2.6-1.07-4.08-1.44-5.49-1.37-9.28-.85-15.84-.96-1.76.16-3.52.32-5.28.48-1.28-.64-2.56-1.28-3.84-1.92-2.79,4.7-15.17,1.64-19.68,2.16-3.97.45-7.47,1.77-11.52,2.16-7.36-.48-14.72-.96-22.08-1.44-2.24.72-4.48,1.44-6.72,2.16-4.15.83-9.56-.03-12.72,2.64.45.92.7,1.39.72,2.88-.56.72-1.12,1.44-1.68,2.16-.4.16-.8.32-1.2.48.8,2.24,1.6,4.48,2.4,6.72-.08,1.2-.16,2.4-.24,3.6-.72.72-1.44,1.44-2.16,2.16.16,2.16.32,4.32.48,6.48-.56.32-1.12.64-1.68.96-1.22.97.18,13.26.48,14.64.19.9-1.32,2.73-1.2,3.6.4,2.56.8,5.12,1.2,7.68-.4,1.76-.8,3.52-1.2,5.28.57,2.34,1.33,3.08,1.68,5.04-1.39,3.86-2.13,14.89.48,17.52-.23.87.02.49-.48.96-.71.42-1.85.09-3.12.24-.74,1.72.11,3.11-.48,5.52.1,2.2,2.11,3.85,3.12,5.52-.51,1.16-.28,1.32-1.92,1.44.35,1.88,1.89,2.71.24,4.32-.51.86-.83.92-2.16.96.69,1.37,1.44,2.06,2.64,2.88-.16.48-.32.96-.48,1.44-.24.24-.48.48-.72.72-.32-.08-.64-.16-.96-.24.28,1.79.79,1.86,1.68,2.88-.18,1.35-.19,1.92-1.2,2.4-.05,1.21,1.75,1.71,2.16,3.12-.92.44-.73.38-.72.72.21,1.75-.2,2.04-1.92,2.4,1.58,3.29,4.78,7.83,4.32,12.24-.87.5-2.79.55-3.36,1.44h-.48c.65.63,1.82,1.01,2.88,1.2.64,3.7,1.84,5.73,2.4,9.12.46,2.83-.51,3.48-.48,6.48,4.08-.17,5.95,4,8.64,5.52,2.16.32,4.32.64,6.48.96,7.75,2.55,9.14,3.87,17.28,2.16,2.52,1.01,8.35,2.59,12,1.92,2.91-.54,3.97-2.7,6.24-3.36,2.08.24,4.16.48,6.24.72,3.91-.84,9.88-1.13,14.4-2.64.88-.56,1.76-1.12,2.64-1.68,4.4.72,8.8,1.44,13.2,2.16,1.44-.56,2.88-1.12,4.32-1.68,2.64-.46,8.46,1.11,11.52-.96,1.47-1,.94-2.91,3.36-2.64,1.26-.25,2.08.25,3.36.72,1.29-1.16-.77-17.58-1.68-19.2ZM994.1,319.69c-.08.32-.16.64-.24.96-.38-.47-.33-.33-.48-1.2h.72v.24ZM1004.66,239.29c-.08.16-.16.32-.24.48-.16-.32-.32-.64-.48-.96-.66-.65-.63-.49-.48-1.44.95.34,1.81.87,1.2,1.92Z" fill-rule="evenodd"/>
  <path d="M589.04,622.83c-1.54,5.43-.33,11.5-1.14,17.07-2.15,14.89-1.27,28.42.28,44.38-.57,3.03-1.14,6.07-1.71,9.1-1.29,5.63-1.55,12.98-.57,18.78.44,2.63,2.28,4.77,2.56,6.83v.28c-.47,1.42-.95,2.85-1.42,4.27.47,2.66.95,5.31,1.42,7.97-.47,1.04-.95,2.09-1.42,3.13.99,5.26,1.73,13.29,0,19.35-3.75-.7-5.85,1.36-8.53,2.28-.19-.66-.38-1.33-.57-1.99-3.22.02-3.98,1.19-6.54,1.71-2.81-3.33-8.47-4.16-11.66-5.12-.55-3.98-1-9.21,0-11.95-1.35-.34-2.17-2.15-3.41-3.41.26-2.65,1.86-6.52.85-9.96-.98-3.34-2.82-9.2-3.13-12.52.57-4.17,1.14-8.35,1.71-12.52-.63-3.55-2.7-7.26-3.98-9.96.19-4.65.38-9.29.57-13.94l-1.42-1.42c-4.17.19-8.35.38-12.52.57-.68-.23-1.45-1.87-3.13-1.14-2.62,1.14-16.25,1.29-21.62.28-4.36.38-8.73.76-13.09,1.14-5.69-.52-11.94,2.92-14.79-1.42-8.42,2.94-21.81-.08-30.73.28-4.93.09-9.86.19-14.79.28-2.93.58-5.35,2.54-8.25,2.28-2.84-.26-4.97-1.48-7.11-1.99-4.46-.09-8.91-.19-13.37-.28-5.97-.85-11.95-1.71-17.92-2.56-4.08.19-8.16.38-12.23.57-5.4-1.04-13.28-2.31-18.21-4.27-6.05-2.4-9.93-8.32-15.65-10.24-1.11-7.2,2.4-15.11,6.26-18.49,4.39.11,8.41,2.17,11.95-.28,1.95-1.36,1.85-4.05,4.55-4.84,2.5,3.76,5.99-.85,7.97,0,.9.62.97.87,1.14,2.28,2.18.11,2.07-.45,3.41-1.71.64,3.48.98,4.51,1.99,7.97,1.73-.08,1.8-.21,2.56-1.14.93-.89.78-2.82,1.14-4.27h.28c1.82.58,5.03,1.76,6.54-.57,2.07.51,2.3,1.46,4.84,1.71.95-.87.69-1.31,2.28-1.71,5.27,2.63,6.91-.22,11.95.57,1.71.66,3.41,1.33,5.12,1.99.87-1.23,1.96-2.47,3.7-2.84,1.9,1.42,3.79,2.85,5.69,4.27,1.69-.9,1.75-1.79,4.27-1.99.76.57,1.52,1.14,2.28,1.71,2.13-.17,4.05-3.18,5.41-1.99l1.14.57c1.33-.47,2.66-.95,3.98-1.42l.57,1.14c1.96-.39,5.28-1.35,6.26-1.42l.85,1.42h.85c.93-.95,1.44-2.04,2.28-3.13.85,1.33,1.71,2.66,2.56,3.98h2.28c.76-1.04,1.52-2.09,2.28-3.13.22,1.52.47,2.28,1.71,2.84l.28.57c1.53-.76,1.76-1.85,3.13-2.56,1.02,3.64,7.46,2.74,9.39,1.14.43,1.78.85,2.36,2.28,3.13h1.14c.96-1.26,1.75-2.19,2.28-3.98,2.13,1.26,6.55,2.48,9.96,1.71,1.33-.76,2.66-1.52,3.98-2.28.58,1,.56.96,1.99,1.14-.96,2.41-.03,3.23,2.28,3.98,5.54-3.82,3.65-.55,9.1-2.28,1.64-.52,1.55-1.77,3.13-1.99.83,1.25,22.34,4.06,27.03,3.13,1.71-.38,3.41-.76,5.12-1.14,1.52.66,3.03,1.33,4.55,1.99,3.84-5.35,2.22-11.55-.28-17.07,1.06-2.46,3.64-5.03,2.56-9.39-.78-3.12-3.9-7.51-2.28-12.8,1.14-8.53,2.28-17.07,3.41-25.6,1.6-5.09,6.75-5.89,7.97-10.81.98-3.98-2.62-6.29-2.84-10.24.65-1.35,1.18-2.21,2.56-2.84,4.95-1.48,6.39,3.78,11.95,1.71,1.37,1.29,1.67,2.37,4.27,2.56l.57-.28c.14-1.02-.43-.39.57-1.14l.85,1.14c-1.08,5.55,2.91,11.08,4.27,15.65.76,4.08,1.52,8.16,2.28,12.23-.09,3.6-.19,7.21-.28,10.81-.88,7.45-.45,19.87,2.28,26.17Z" fill-rule="evenodd"/>
  <path d="M628.79,636.96c3.84-6.98,2.22-15.07-.28-22.29,1.06-3.21,3.64-6.57,2.56-12.26-.78-4.08-3.9-9.81-2.28-16.72,1.14-11.14,2.28-22.29,3.41-33.43,1.6-6.65,6.75-7.69,7.97-14.12.98-5.19-2.62-8.21-2.84-13.37.65-1.76,1.18-2.89,2.56-3.71,4.95-1.94,6.39,4.93,11.95,2.23,1.37,1.68,1.67,3.09,4.27,3.34l.57-.37c.14-1.33-.43-.51.57-1.49.28.5.57.99.85,1.49-1.08,7.25,2.91,14.46,4.27,20.43.76,5.32,1.52,10.65,2.28,15.97-.09,4.7-.19,9.41-.28,14.12-.88,9.73-.45,25.95,2.28,34.17-1.54,7.09-.33,15.01-1.14,22.29-2.15,19.44-1.27,37.11.28,57.95-.57,3.96-1.14,7.92-1.71,11.89-1.29,7.35-1.55,16.94-.57,24.52.44,3.43,2.28,6.23,2.56,8.91v.37c-.47,1.86-.95,3.71-1.42,5.57.47,3.47.95,6.93,1.42,10.4-.47,1.36-.95,2.72-1.42,4.09.99,6.87,1.73,17.35,0,25.26-3.75-.91-5.85,1.78-8.53,2.97-.19-.87-.38-1.73-.57-2.6-3.22.02-3.98,1.56-6.54,2.23-2.81-4.35-8.47-5.43-11.66-6.69-.55-5.2-1-12.03,0-15.6-1.35-.44-2.17-2.81-3.41-4.46.26-3.46,1.86-8.51.85-13-.98-4.35-2.82-12.01-3.13-16.34.57-5.45,1.14-10.9,1.71-16.34-.63-4.63-2.7-9.48-3.98-13,.19-6.07.38-12.13.57-18.2l-1.42-1.86" fill-rule="evenodd"/>
  <path d="M741.47,683.95c-.68-.23-1.45-1.87-3.13-1.14-2.62,1.14-16.25,1.29-21.62.28-4.36.38-8.73.76-13.09,1.14-5.69-.52-11.94,2.92-14.79-1.42-8.42,2.94-21.81-.08-30.73.28-4.93.09-9.86.19-14.79.28-2.93.58-5.35,2.54-8.25,2.28-2.84-.26-4.97-1.48-7.11-1.99-4.46-.09-8.91-.19-13.37-.28-5.97-.85-11.95-1.71-17.92-2.56-4.08.19-8.16.38-12.23.57-5.4-1.04-13.28-2.31-18.21-4.27-6.05-2.4-9.93-8.32-15.65-10.24-1.11-7.2,2.4-15.11,6.26-18.49,4.39.11,8.41,2.17,11.95-.28,1.95-1.36,1.85-4.05,4.55-4.84,2.5,3.76,5.99-.85,7.97,0,.9.62.97.87,1.14,2.28,2.18.11,2.07-.45,3.41-1.71.64,3.48.98,4.51,1.99,7.97,1.73-.08,1.8-.21,2.56-1.14.93-.89.78-2.82,1.14-4.27h.28c1.82.58,5.03,1.76,6.54-.57,2.07.51,2.3,1.46,4.84,1.71.95-.87.69-1.31,2.28-1.71,5.27,2.63,6.91-.22,11.95.57,1.71.66,3.41,1.33,5.12,1.99.87-1.23,1.96-2.47,3.7-2.84,1.9,1.42,3.79,2.85,5.69,4.27,1.69-.9,1.75-1.79,4.27-1.99.76.57,1.52,1.14,2.28,1.71,2.13-.17,4.05-3.18,5.41-1.99l1.14.57c1.33-.47,2.66-.95,3.98-1.42l.57,1.14c1.96-.39,5.28-1.35,6.26-1.42l.85,1.42h.85c.93-.95,1.44-2.04,2.28-3.13.85,1.33,1.71,2.66,2.56,3.98h2.28c.76-1.04,1.52-2.09,2.28-3.13.22,1.52.47,2.28,1.71,2.84l.28.57c1.53-.76,1.76-1.85,3.13-2.56,1.02,3.64,7.46,2.74,9.39,1.14.43,1.78.85,2.36,2.28,3.13h1.14c.96-1.26,1.75-2.19,2.28-3.98,2.13,1.26,6.55,2.48,9.96,1.71,1.33-.76,2.66-1.52,3.98-2.28.58,1,.56.96,1.99,1.14-.96,2.41-.03,3.23,2.28,3.98,5.54-3.82,3.65-.55,9.1-2.28,1.64-.52,1.55-1.77,3.13-1.99.83,1.25,22.34,4.06,27.03,3.13" fill-rule="evenodd"/>
  <path d="M967.68,683.95c-.93-.23-1.97-1.87-4.26-1.14-3.57,1.14-22.1,1.29-29.41.28-5.93.38-11.87.76-17.8,1.14-7.74-.52-16.24,2.92-20.13-1.42-11.46,2.94-29.67-.08-41.8.28-6.71.09-13.42.19-20.13.28-3.99.58-7.28,2.54-11.22,2.28-3.86-.26-6.77-1.48-9.68-1.99-6.06-.09-12.13-.19-18.19-.28-8.13-.85-16.26-1.71-24.38-2.56-5.55.19-11.1.38-16.64.57-7.35-1.04-18.07-2.31-24.77-4.27-8.23-2.4-13.51-8.32-21.29-10.24-1.51-7.2,3.26-15.11,8.51-18.49,5.98.11,11.44,2.17,16.26-.28,2.66-1.36,2.52-4.05,6.19-4.84,3.4,3.76,8.15-.85,10.84,0,1.22.62,1.32.87,1.55,2.28,2.96.11,2.81-.45,4.64-1.71.86,3.48,1.33,4.51,2.71,7.97,2.35-.08,2.44-.21,3.48-1.14,1.26-.89,1.06-2.82,1.55-4.27h.39c2.48.58,6.84,1.76,8.9-.57,2.82.51,3.13,1.46,6.58,1.71,1.3-.87.94-1.31,3.1-1.71,7.17,2.63,9.4-.22,16.26.57,2.32.66,4.64,1.33,6.97,1.99,1.19-1.23,2.66-2.47,5.03-2.84,2.58,1.42,5.16,2.85,7.74,4.27,2.3-.9,2.38-1.79,5.81-1.99,1.03.57,2.06,1.14,3.1,1.71,2.9-.17,5.5-3.18,7.35-1.99l1.55.57c1.81-.47,3.61-.95,5.42-1.42l.77,1.14c2.67-.39,7.18-1.35,8.51-1.42.39.47.77.95,1.16,1.42h1.16c1.26-.95,1.96-2.04,3.1-3.13,1.16,1.33,2.32,2.66,3.48,3.98h3.1c1.03-1.04,2.06-2.09,3.1-3.13.3,1.52.63,2.28,2.32,2.84l.39.57c2.08-.76,2.39-1.85,4.26-2.56,1.38,3.64,10.15,2.74,12.77,1.14.58,1.78,1.15,2.36,3.1,3.13h1.55c1.3-1.26,2.38-2.19,3.1-3.98,2.9,1.26,8.91,2.48,13.55,1.71,1.81-.76,3.61-1.52,5.42-2.28.78,1,.76.96,2.71,1.14-1.31,2.41-.05,3.23,3.1,3.98,7.54-3.82,4.96-.55,12.39-2.28,2.23-.52,2.11-1.77,4.26-1.99,1.13,1.25,30.39,4.06,36.77,3.13" fill-rule="evenodd"/>
  <path d="M706.76,648.59c3.84-5.46,2.22-11.79-.28-17.44,1.06-2.51,3.64-5.14,2.56-9.59-.78-3.19-3.9-7.68-2.28-13.08,1.14-8.72,2.28-17.44,3.41-26.16,1.6-5.2,6.75-6.02,7.97-11.04.98-4.06-2.62-6.43-2.84-10.46.65-1.38,1.18-2.26,2.56-2.91,4.95-1.51,6.39,3.86,11.95,1.74,1.37,1.32,1.67,2.42,4.27,2.62l.57-.29c.14-1.04-.43-.4.57-1.16l.85,1.16c-1.08,5.67,2.91,11.31,4.27,15.98.76,4.17,1.52,8.33,2.28,12.5-.09,3.68-.19,7.36-.28,11.04-.88,7.61-.45,20.3,2.28,26.74-1.54,5.55-.33,11.75-1.14,17.44-2.15,15.21-1.27,29.04.28,45.34-.57,3.1-1.14,6.2-1.71,9.3-1.29,5.75-1.55,13.26-.57,19.18.44,2.68,2.28,4.88,2.56,6.98v.29c-.47,1.45-.95,2.91-1.42,4.36.47,2.71.95,5.43,1.42,8.14-.47,1.07-.95,2.13-1.42,3.2.99,5.37,1.73,13.58,0,19.76-3.75-.71-5.85,1.39-8.53,2.33-.19-.68-.38-1.36-.57-2.03-3.22.02-3.98,1.22-6.54,1.74-2.81-3.4-8.47-4.25-11.66-5.23-.55-4.07-1-9.41,0-12.21-1.35-.35-2.17-2.2-3.41-3.49.26-2.7,1.86-6.66.85-10.17-.98-3.41-2.82-9.39-3.13-12.79.57-4.26,1.14-8.53,1.71-12.79-.63-3.63-2.7-7.42-3.98-10.17.19-4.75.38-9.49.57-14.24l-1.42-1.45" fill-rule="evenodd"/>
  <path d="M468.63,636.96c3.84-6.98,2.22-15.07-.28-22.29,1.06-3.21,3.64-6.57,2.56-12.26-.78-4.08-3.9-9.81-2.28-16.72,1.14-11.14,2.28-22.29,3.41-33.43,1.6-6.65,6.75-7.69,7.97-14.12.98-5.19-2.62-8.21-2.84-13.37.65-1.76,1.18-2.89,2.56-3.71,4.95-1.94,6.39,4.93,11.95,2.23,1.37,1.68,1.67,3.09,4.27,3.34l.57-.37c.14-1.33-.43-.51.57-1.49.28.5.57.99.85,1.49-1.08,7.25,2.91,14.46,4.27,20.43.76,5.32,1.52,10.65,2.28,15.97-.09,4.7-.19,9.41-.28,14.12-.88,9.73-.45,25.95,2.28,34.17-1.54,7.09-.33,15.01-1.14,22.29-2.15,19.44-1.27,37.11.28,57.95-.57,3.96-1.14,7.92-1.71,11.89-1.29,7.35-1.55,16.94-.57,24.52.44,3.43,2.28,6.23,2.56,8.91v.37c-.47,1.86-.95,3.71-1.42,5.57.47,3.47.95,6.93,1.42,10.4-.47,1.36-.95,2.72-1.42,4.09.99,6.87,1.73,17.35,0,25.26-3.75-.91-5.85,1.78-8.53,2.97-.19-.87-.38-1.73-.57-2.6-3.22.02-3.98,1.56-6.54,2.23-2.81-4.35-8.47-5.43-11.66-6.69-.55-5.2-1-12.03,0-15.6-1.35-.44-2.17-2.81-3.41-4.46.26-3.46,1.86-8.51.85-13-.98-4.35-2.82-12.01-3.13-16.34.57-5.45,1.14-10.9,1.71-16.34-.63-4.63-2.7-9.48-3.98-13,.19-6.07.38-12.13.57-18.2l-1.42-1.86" fill-rule="evenodd"/>
  <path d="M781.29,644.79c3.84-6.98,2.22-15.07-.28-22.29,1.06-3.21,3.64-6.57,2.56-12.26-.78-4.08-3.9-9.81-2.28-16.72,1.14-11.14,2.28-22.29,3.41-33.43,1.6-6.65,6.75-7.69,7.97-14.12.98-5.19-2.62-8.21-2.84-13.37.65-1.76,1.18-2.89,2.56-3.71,4.95-1.94,6.39,4.93,11.95,2.23,1.37,1.68,1.67,3.09,4.27,3.34l.57-.37c.14-1.33-.43-.51.57-1.49.28.5.57.99.85,1.49-1.08,7.25,2.91,14.46,4.27,20.43.76,5.32,1.52,10.65,2.28,15.97-.09,4.7-.19,9.41-.28,14.12-.88,9.73-.45,25.95,2.28,34.17-1.54,7.09-.33,15.01-1.14,22.29-2.15,19.44-1.27,37.11.28,57.95-.57,3.96-1.14,7.92-1.71,11.89-1.29,7.35-1.55,16.94-.57,24.52.44,3.43,2.28,6.23,2.56,8.91v.37c-.47,1.86-.95,3.71-1.42,5.57.47,3.47.95,6.93,1.42,10.4-.47,1.36-.95,2.72-1.42,4.09.99,6.87,1.73,17.35,0,25.26-3.75-.91-5.85,1.78-8.53,2.97-.19-.87-.38-1.73-.57-2.6-3.22.02-3.98,1.56-6.54,2.23-2.81-4.35-8.47-5.43-11.66-6.69-.55-5.2-1-12.03,0-15.6-1.35-.44-2.17-2.81-3.41-4.46.26-3.46,1.86-8.51.85-13-.98-4.35-2.82-12.01-3.13-16.34.57-5.45,1.14-10.9,1.71-16.34-.63-4.63-2.7-9.48-3.98-13,.19-6.07.38-12.13.57-18.2l-1.42-1.86" fill-rule="evenodd"/>
  <path d="M1045.01,559.82c3.61-.58,7.67-5.83,11.28-7.73,3.52-1.17,7.04-2.34,10.56-3.51,1.66-1.43,1.86-3.71,3.12-5.62,5.84,2.4,11.79-7.48,16.08-9.13,2.16-.23,4.32-.47,6.48-.7,1.42-.94,1.22-2.78,3.36-3.16,1.5,3.39,4.98.58,6.72,1.05-.21,2.73-.59,3.53.24,5.62,1.69-.77,2.01-.43,3.12.7.42,3.92.73,4.31,2.64,5.97-.84,1.64-1.18,2.28.24,3.86.6,2.7,1.83,3.99,2.88,5.97-.21,3.88-1.16,5.07-.72,8.43,1.05.5,2.01.68,2.4,1.4l.24,1.4c-3.48,5.84-10,5.27-14.88,9.13-1.66,1.31-2.33,4.74-3.84,5.97-2.24,0-4.48,0-6.72,0-1.76.7-2.15,2.85-3.36,4.21-1.2-.51-1.7-.49-2.88.35-1.37,6.29-6.39,5.92-10.32,9.48-1.78,1.62-1.46,4.25-3.12,5.97-2.66-1.45-11.15,7.98-14.4,9.83-2.88,1.29-5.76,2.58-8.64,3.86-2.05,1.45-3.07,5.39-4.8,7.38-2.76,3.17-6.13,5.9-9.12,8.43-3.52,1.99-7.04,3.98-10.56,5.97-1.29,1.21-2.67,3.77-3.84,5.27-1.52.59-3.04,1.17-4.56,1.76-1.03.71-1.08,2.28-2.16,3.51-2.5-1.74-13.42,4.07-14.16,9.13-1.79.18-3.2-.26-5.04.35-.44,2.08-.17,3.05-1.2,3.86-3.23,1.88-4.87,2.91-6.24,7.38l.48.7c2.37,7.78,18.68,3.83,24.72,9.83.32.82.64,1.64.96,2.46.62.83,6.57,1.5,6.72,1.4,5.52,3.75,11.04,7.49,16.56,11.24,3.91,2.28,8.45,2.47,12.72,4.92,5.12,2.94,9.11,9.89,13.68,12.99,3.39,2.31,11.18.78,15.36,3.16,3.49,1.98,6.99,5.75,11.04,7.73,4.88,1.52,9.76,3.04,14.64,4.57,3.86,2.45,5.37,4.75,10.08,2.81.14,2.22.56,2.54,1.2,3.86,1.04-.12,2.08-.23,3.12-.35.62,5.07.62,7.7.24,12.99.16,1.29.32,2.58.48,3.86-.31,2.42-1.25,2.94-1.44,5.97.56.59,1.12,1.17,1.68,1.76-.72,1.17-1.44,2.34-2.16,3.51.24,1.05.48,2.11.72,3.16-2.63,3.38-4.87,6.51-6,10.18-1.2-1.38-1.38-1.98-3.6-2.11-.56.94-1.12,1.87-1.68,2.81-2.39-.36-2.26-2.64-4.08-3.51-2.24-.47-4.48-.94-6.72-1.4-1.39-.91-2.24-3.86-4.08-4.21-1.04.47-2.08.94-3.12,1.4-2.88.83-5.86-1.51-7.92-2.81-5.37-3.41-12.73-11.22-18.72-10.18-.16-1.05-.32-2.11-.48-3.16-7.21-1.78-12.8-3-17.28-8.78-1.28.47-2.56.94-3.84,1.4-.24-1.05-.48-2.11-.72-3.16-5.99.18-3.89-.53-7.92-2.46-1.52-.12-3.04-.23-4.56-.35-.89-.53-1.3-2.07-2.64-2.46-2.77-.81-6.75.3-10.56-1.76-1.49-.81-1.75-3.91-3.36-5.27-2-.47-4-.94-6-1.4,0-1.05,0-2.11,0-3.16-2.64-1.8-5.02-1.36-7.92-2.11-1.47-4.42-6.87-6.8-11.52-8.78-5.12-2.93-10.24-5.85-15.36-8.78-2.12-1.91-2.83-4.48-5.28-6.32-3.9,1.86-8.49-1.08-11.52-3.51-2.44-1.95-9.03-5-10.56-8.08-1.58-3.17-4.76-24.18-3.84-28.8,1.36-2.22,2.72-4.45,4.08-6.67.75-2.11-.45-3.57.24-4.92,3.77-7.62,12.64-6.21,17.52-13.35.56-2.11,1.12-4.21,1.68-6.32,5.39-1.87,8.85-7.38,13.2-11.94.88-.23,1.76-.47,2.64-.7.8-1.17,1.6-2.34,2.4-3.51,3.2-3.91,12.48-6.85,17.28-8.43.55-1.8.29-2.76.48-4.21,6.15-.85,8.2-6.37,12.48-9.13,1.76,0,3.52,0,5.28,0l.24-.35c1.47-.98.94-2.65,1.92-4.21,3.32-5.34,9.68-5.97,12.48-11.24-.37-1.67-.31-1.55,0-3.16,1.76-.69,3.49.64,5.28.35l.24-.35c1.57-.93,3.42-3.52,5.04-4.57,3.01-1.94,5.03,1.33,7.2-1.76,0-.59,0-1.17,0-1.76Z" fill-rule="evenodd"/>
  <path d="M119.03,241.67c.04,1.8,2.14,3.28,1.46,4.76-.38.1-.67.35-1,.54.05.43.1.87.15,1.3-.68-.27-1.45,0-1.84.46.03,1.46-.57,2.26-1,3.14-.24.5.06,1.08-.15,1.53h-.77c-.44,1.5-3.32,5.55-3.07,6.6-.5,0-.71.07-1,.23-.11.64-.18.79.08,1.3-.37.22-.26.56-.54.84-.26.08-.51.15-.77.23-.41.36-.51,1.5-.54,2.38-.43-.1-.6-.19-1.15-.08-.02.66.21,1.44-.15,1.92-.28.37-.57.3-.69.92.19.26.27.37.15.77-.3.05-.69.34-1.23.46v.38c.21.26.58.48.46.84-.31.23-.61.46-.92.69-.39.64.02.81-.54,1.3.32.56.18,1.51.54,1.84.48.45,1.16.53,1.61,1-.16.27-.23.35-.15.69l.15.08c1.24-.2,1.22.92,1.92,1.38.53.35,1.28.41,1.76.77-.01.6.07.6.38,1,.54.02.67.07,1.07.31.28,1.19,1.21,3.24,2.99,2.84-.04.78.8,1.78,1.53,1.99-.03.31-.05.61-.08.92.48.3,1.08.47,1.3,1,1.11-.01,2.84,1.45,3.22,1.92l-.08.15c-.26.2-.51.41-.77.61-.03.52-.06.46,0,1,.41.13.82.26,1.23.38-.21.71.21,1.39,1,1.38.36-.13.72-.26,1.07-.38,0,.37.01.49.15.84,1.31.12,1.58,1.66,2.45,2.3.18-.08.36-.15.54-.23l.23.08c-.15.31-.31.61-.46.92.31.78,1.25.7,2.07.61-.16.57-.37.75-.31,1.3-.54.1-.86.35-1.15.69v.31l.38.46c1.15.26,1.79-.13,2.91-.31.31.43.8.39,1.3.61.07.68-.01,1.37.23,1.84.28.05.56.1.84.15-.23.43-.46.87-.69,1.3.82.41,1.31.93,1.92,1.53.54,0,.53.01.92-.15.05,1.07.42,1.44,1.15,1.61-.14,1.78.96,1.27,1.07,2.22l.08.31c-1.06.63-1.22,1.57-1.84,2.45-.36.23-.72.46-1.07.69-.25.41.1.44-.31.61-.89.46-2.37.39-3.07.61-.67.22-1.39.99-1.92,1.15-.82.25-1.7-1.55-2.76-.61l-.23-.23c-.04-.55-.18-.57-.46-.84-.65.07-1.34.4-1.84,0,.15-1.3-.31-1.83-1-2.76h-.08c-.37.26-.43.51-.69.69-.28-.29-.46-.66-1-.69l-.31.15c-.71-.99.11-1.54-1.23-2.22-.26.15-.51.31-.77.46.05-.47.12-.73.46-.92.1-.82-.15-1.04-.54-1.61-1.03-.05-1.13-.71-2.22-.84-.27.27-.42.48-.61.84l-.23-.15v-.31c.35-.18.45-.48.46-1-.25-.43-.51-.6-.84-.92-.54.02-1.12.21-1.23.08-.18-.08-.36-.15-.54-.23.35-1.52.04-2.18-1.07-3.07-.68.04-.97.43-1.23.31l-.31-.08c-.01-1.53-.75-2.96-1.84-3.83-.44.1-.27.19-.61.08-.2-.34-.51-.34-1.07-.31l-.08-.38c.34-.26.47-.37.54-.92-.46-.5-.54-.63-1.46-.69.06-.44.18-.77-.15-1-.56-.18-1.03.1-1.46-.23v-.77c-.55-.08-.74-.17-1.07-.54.13-.23.16-.5.15-.92-1.34-.48-.97-1.96-2.68-2.07-.23.15-.46.31-.69.46l-.15-.08c-.14-.35-.25-.37-.54-.54.01-.81.36-1.14.08-1.61l-.31-.23c-.56.06-1.3-.08-1.69.08-.4,1.25-.88.7-1.76,1.38-.26.64-.51,1.28-.77,1.92-.36.2-.72.41-1.07.61-.17.15-.06.04-.15.31.13.28.26.56.38.84-.71.23-.89,1.05-1,1.84-.28-.13-.31-.12-.69-.08.04.32.14,1.54-.15,2.15-.38.08-.77.15-1.15.23-.07.33-.24,1.67-.61,1.92-.38.08-.77.15-1.15.23-.32,1.38-1.22,2.66-2.3,3.3v1.46c-.43-.1-.48-.18-.92-.15.02,1.67-.79,2.08-1.46,2.99-.41.56.22.88-.08,1.38-.77.97-1.53,1.94-2.3,2.91.13.26.26.51.38.77-1.44.96-.75,1.89-1.69,2.91-.31.15-.61.31-.92.46-.18.59-.36,1.18-.54,1.76-.41.61-1.24.88-1.69,1.53.1.18.2.36.31.54-.3.45-.57.22-1,.54-.13.33-.26.66-.38,1-.96-.42-1.1.11-1.92.31-.46-.69-3.77-.5-4.91-.08-.37-.72-1.06-.86-1.76-1.23.21-.31.42-.57.31-1-.16-.43-.67-.53-1.07-.92.05-.68-.81-2.24-.38-3.22.2-.47.73-.55.77-1.46-.88-2.03.78-.93,1.15-2.68.85.17,1.4-.42,2.22-.15.03-.21-.05-.12.15-.31-.14-.51-.27-1.6-.84-1.92.26-.5.79-1.18,1.07-1.53.26.11.15.1.46.08.07-.47.02-.74-.08-1.15,1.39-.25.42-.93.92-1.61.4-.38,1.06-.19,1.61-.54.29-.26.21-.5.15-1,.61-.16.85-.9.84-1.38-.41-.5-.79-.98-1.61-1.07l.08-.23.15-.15c.9-.16,2.87-.48,3.22-1.15v-1.15c.51.03.55.11.84,0,.56-1.58-.27-1.46,1.23-2.3.25-1.34.16-2.72.23-3.91.74.65.88.88,1.69.23.05-.56.1-1.12.15-1.69.28-.05.56-.1.84-.15.1-.31.2-.61.31-.92.18.15.36.31.54.46l.46-.15c-.09-1.09.57-1.7.54-2.76-.28-.18-.56-.36-.84-.54h.15c.39-.44,1.79-1.05,2.53-1.15.21-1.4.4-1.98-.23-2.99.91-.2,2.17-1.17,1.23-2.22-.23-.13-.46-.26-.69-.38-.19-.44.24-.63-.31-1.07h-.38c.05-.46.1-.92.15-1.38-.34-.35-.88-.6-1.15-1,1.18-.87-2.35-2.48-3.14-2.22l-.46.15-.08-.15c-.04-.79-.83-.61-1.15-1.07-.86-1.61-.47-.91-1.99-1.76.32-1.16-.96-1.32-1.92-1.46l-.08-.15c.23-.38.23-.69.15-1.07-.18-.13-.36-.26-.54-.38-.31.08-.61.15-.92.23-.06-.85-.79-1.38-1.61-1.46.18-.32.2-.42.15-.84-.49-.48-1.25-.61-1.69-1.15.08-.61.04-.77-.23-1.15-.32-.06-.46-.07-.61-.31-.6-.62-.9-1.89-1.53-2.68-.36-.31-.72-.61-1.07-.92.03-.33.05-.66.08-1-.36-.31-.72-.61-1.07-.92-.26.15-.51.31-.77.46-.11-2.57-.65-1.8-2.3-2.53.68-1.57-1.12-2.28-1.84-2.99l.08-.31c.36-.03.72-.05,1.07-.08.12-.28.13-.36.08-.69-.43-.18-.78-.07-1.23-.23-.45-.16-.63-.61-1.3-.77.25-.33.37-.37.38-1-.68-.3-.81-.72-1.76-1,.08-.58-.26-.85-.77-1.07.26-.59.27-.73.08-1.3.28-.1.56-.2.84-.31l.08-.46c-.2-.31-.41-.61-.61-.92v-.08c.76-.16.74-.81,1.15-1.3.27.08.41.18.69.08.4-.22.46-.73.77-.92.18.03.36.05.54.08.44-.1.39-.45.69-.61.04-.02.76.05,1,0,.15-.31.31-.61.46-.92.23-.15.6.07.84-.23.1-.33.2-.66.31-1,.76-.34.78.56,1.76-.08.8.32,1.26.71,2.15.84v.38c-.18.1-.36.2-.54.31.03.2.05.41.08.61.58.23,1.91.36,2.3.54.7.33.71,1.1,1.69,1.38-.1,1.51,1.43,1.75,1.07,2.53.47.86,1.39,1.1,1.92,1.84.67.94.82,1.83,1.69,2.53.44.36,1.22.17,1.53.31-.32,1.59.93.98,1.69,1.61.16.43-.22.67.08,1,.27.77.77.42,1.46.77.56.28.26.71.54,1.15.36.28.72.56,1.07.84h.15c.42.57.49,1.57,1.07,2.22.85.95,2.09,1.21,2.99,1.99.47.41.52,1.03.92,1.53.4.5,1.11.51,1.61.92.1.28.2.56.31.84.38.36.77.72,1.15,1.07h1.07c.03.18.05.36.08.54.46.22.98.29,1.53.23.23-.51.22-.5.15-1.23,1.64-.35,1.09-3.87,3.37-4.45.03-.5.78-3.38,1-3.6.12-.14,1.02-.67,1.3-.84l-.08-.23c-.13-.2-.26-.41-.38-.61.38-.23.77-.46,1.15-.69-.06-.76-.29-1.13-.54-1.69h.77l.92-.92c.29-.58-.08-1.17.08-1.69.33-.31.66-.61,1-.92.13-.54.26-1.07.38-1.61.36-.26.72-.51,1.07-.77.05-.33.1-.66.15-1,.33-.15.66-.31,1-.46.44-.47.02-1.3.61-1.69.5-.21.71-.27,1.07-.54.01-.69-.35-1.69.15-2.15.45-.7,1.56-.27,1.76-1.07l.31.15c.97.73,1.72,1.28,2.61,2.15.79,0,1.11-.22,1.46,0,.63,1.48,2.29.84,2.84,3.22h.77Z" fill="#feff99" fill-rule="evenodd"/>
  <path d="M296.88,582.01c.03,1.13,1.35,2.06.92,2.99-.24.06-.42.22-.63.34.03.27.06.55.1.82-.42-.17-.91,0-1.16.29.02.92-.36,1.42-.63,1.98-.15.31.04.68-.1.96h-.48c-.28.94-2.09,3.49-1.93,4.15-.31,0-.45.04-.63.14-.07.4-.11.5.05.82-.23.14-.16.35-.34.53-.16.05-.32.1-.48.14-.26.23-.32.94-.34,1.49-.27-.06-.37-.12-.72-.05-.01.41.13.91-.1,1.21-.18.23-.36.19-.43.58.12.16.17.23.1.48-.19.03-.43.21-.77.29v.24c.13.16.36.3.29.53-.19.14-.39.29-.58.43-.25.41.02.51-.34.82.2.35.11.95.34,1.16.3.28.73.33,1.01.63-.1.17-.14.22-.1.43l.1.05c.78-.13.76.58,1.21.87.33.22.81.26,1.11.48,0,.38.05.38.24.63.34.01.42.05.67.19.18.75.76,2.04,1.88,1.78-.02.49.5,1.12.96,1.25-.02.19-.03.39-.05.58.3.19.68.3.82.63.7,0,1.78.91,2.02,1.21l-.05.1c-.16.13-.32.26-.48.39-.02.33-.04.29,0,.63.26.08.51.16.77.24-.13.45.13.87.63.87.22-.08.45-.16.67-.24,0,.23,0,.31.1.53.82.08.99,1.05,1.54,1.45.11-.05.23-.1.34-.14l.14.05c-.1.19-.19.39-.29.58.19.49.79.44,1.3.39-.1.36-.23.47-.19.82-.34.06-.54.22-.72.43v.19l.24.29c.72.16,1.13-.08,1.83-.19.2.27.5.24.82.39.04.42,0,.86.14,1.16.18.03.35.06.53.1-.14.27-.29.55-.43.82.52.26.82.59,1.21.96.34,0,.33,0,.58-.1.03.67.27.91.72,1.01-.09,1.12.6.8.67,1.4l.05.19c-.67.4-.77.99-1.16,1.54-.22.14-.45.29-.67.43-.16.26.06.28-.19.39-.56.29-1.49.24-1.93.39-.42.14-.87.62-1.21.72-.52.16-1.07-.98-1.74-.39l-.14-.14c-.03-.34-.11-.36-.29-.53-.41.04-.84.25-1.16,0,.09-.82-.19-1.15-.63-1.74h-.05c-.23.16-.27.32-.43.43-.17-.18-.29-.41-.63-.43l-.19.1c-.45-.62.07-.97-.77-1.4-.16.1-.32.19-.48.29.03-.3.08-.46.29-.58.06-.52-.09-.65-.34-1.01-.65-.03-.71-.45-1.4-.53-.17.17-.26.3-.39.53l-.14-.1v-.19c.22-.12.28-.3.29-.63-.16-.27-.32-.38-.53-.58-.34.01-.7.13-.77.05-.11-.05-.23-.1-.34-.14.22-.95.02-1.37-.67-1.93-.43.03-.61.27-.77.19l-.19-.05c0-.96-.47-1.86-1.16-2.41-.28.06-.17.12-.39.05-.13-.21-.32-.21-.67-.19l-.05-.24c.21-.16.3-.23.34-.58-.29-.31-.34-.4-.92-.43.04-.28.11-.49-.1-.63-.35-.11-.65.07-.92-.14v-.48c-.35-.05-.47-.11-.67-.34.08-.14.1-.31.1-.58-.84-.3-.61-1.23-1.69-1.3-.14.1-.29.19-.43.29l-.1-.05c-.09-.22-.15-.23-.34-.34,0-.51.23-.72.05-1.01l-.19-.14c-.35.04-.82-.05-1.06.05-.25.78-.55.44-1.11.87-.16.4-.32.8-.48,1.21-.22.13-.45.26-.67.39-.11.1-.04.02-.1.19.08.18.16.35.24.53-.44.14-.56.66-.63,1.16-.17-.08-.2-.08-.43-.05.02.2.09.97-.1,1.35-.24.05-.48.1-.72.14-.04.21-.15,1.05-.39,1.21-.24.05-.48.1-.72.14-.2.87-.77,1.67-1.45,2.07v.92c-.27-.06-.3-.11-.58-.1,0,1.05-.5,1.31-.92,1.88-.26.35.14.55-.05.87-.48.61-.96,1.22-1.45,1.83.08.16.16.32.24.48-.9.61-.47,1.19-1.06,1.83-.19.1-.39.19-.58.29-.11.37-.23.74-.34,1.11-.26.38-.78.56-1.06.96.06.11.13.23.19.34-.19.29-.36.14-.63.34-.08.21-.16.42-.24.63-.6-.26-.69.07-1.21.19-.29-.43-2.37-.31-3.09-.05-.23-.45-.67-.54-1.11-.77.13-.19.27-.36.19-.63-.1-.27-.42-.33-.67-.58.03-.43-.51-1.41-.24-2.02.13-.29.46-.35.48-.92-.55-1.27.49-.58.72-1.69.53.11.88-.27,1.4-.1.02-.13-.03-.07.1-.19-.09-.32-.17-1.01-.53-1.21.16-.32.5-.74.67-.96.16.07.09.06.29.05.04-.3.01-.47-.05-.72.87-.16.26-.59.58-1.01.25-.24.66-.12,1.01-.34.18-.16.14-.31.1-.63.38-.1.54-.57.53-.87-.26-.32-.49-.61-1.01-.67l.05-.14.1-.1c.57-.1,1.81-.3,2.02-.72v-.72c.32.02.35.07.53,0,.35-.99-.17-.92.77-1.45.16-.84.1-1.71.14-2.46.47.41.55.55,1.06.14.03-.35.06-.71.1-1.06.18-.03.35-.06.53-.1.06-.19.13-.39.19-.58.11.1.23.19.34.29l.29-.1c-.06-.69.36-1.07.34-1.74-.18-.11-.35-.23-.53-.34h.1c.24-.28,1.12-.66,1.59-.72.14-.88.25-1.24-.14-1.88.57-.13,1.36-.74.77-1.4-.14-.08-.29-.16-.43-.24-.12-.28.15-.4-.19-.67h-.24c.03-.29.06-.58.1-.87-.21-.22-.55-.37-.72-.63.74-.54-1.48-1.56-1.98-1.4l-.29.1-.05-.1c-.02-.5-.52-.38-.72-.67-.54-1.01-.29-.58-1.25-1.11.2-.73-.6-.83-1.21-.92l-.05-.1c.14-.24.14-.44.1-.67-.11-.08-.23-.16-.34-.24-.19.05-.39.1-.58.14-.04-.53-.5-.87-1.01-.92.11-.2.13-.26.1-.53-.31-.3-.79-.38-1.06-.72.05-.39.03-.48-.14-.72-.2-.04-.29-.04-.39-.19-.38-.39-.57-1.19-.96-1.69-.22-.19-.45-.39-.67-.58.02-.21.03-.42.05-.63-.22-.19-.45-.39-.67-.58-.16.1-.32.19-.48.29-.07-1.62-.41-1.13-1.45-1.59.43-.98-.7-1.44-1.16-1.88l.05-.19c.22-.02.45-.03.67-.05.07-.18.08-.22.05-.43-.27-.12-.49-.05-.77-.14-.29-.1-.39-.38-.82-.48.16-.21.23-.23.24-.63-.43-.19-.51-.45-1.11-.63.05-.36-.16-.54-.48-.67.16-.37.17-.46.05-.82.18-.06.35-.13.53-.19l.05-.29c-.13-.19-.26-.39-.39-.58v-.05c.48-.1.47-.51.72-.82.17.05.26.11.43.05.25-.14.29-.46.48-.58.11.02.23.03.34.05.27-.07.24-.28.43-.39.02-.01.48.03.63,0,.1-.19.19-.39.29-.58.14-.09.38.05.53-.14.06-.21.13-.42.19-.63.48-.21.49.35,1.11-.05.5.2.79.44,1.35.53v.24c-.11.06-.23.13-.34.19.02.13.03.26.05.39.36.15,1.2.22,1.45.34.44.2.45.69,1.06.87-.06.95.9,1.1.67,1.59.3.54.88.69,1.21,1.16.42.59.51,1.15,1.06,1.59.28.23.77.11.96.19-.2,1,.59.62,1.06,1.01.1.27-.14.42.05.63.17.48.48.26.92.48.35.18.16.44.34.72.22.18.45.35.67.53h.1c.26.36.31.99.67,1.4.54.6,1.31.76,1.88,1.25.3.26.33.65.58.96.25.31.7.32,1.01.58.06.18.13.35.19.53.24.22.48.45.72.67h.67c.02.11.03.23.05.34.29.14.62.18.96.14.15-.32.14-.31.1-.77,1.03-.22.69-2.43,2.12-2.8.02-.32.49-2.13.63-2.27.08-.09.64-.42.82-.53l-.05-.14c-.08-.13-.16-.26-.24-.39.24-.14.48-.29.72-.43-.04-.48-.18-.71-.34-1.06h.48l.58-.58c.18-.36-.05-.73.05-1.06.21-.19.42-.39.63-.58.08-.34.16-.68.24-1.01.22-.16.45-.32.67-.48.03-.21.06-.42.1-.63.21-.1.42-.19.63-.29.28-.3.01-.82.39-1.06.32-.13.45-.17.67-.34,0-.43-.22-1.06.1-1.35.29-.44.98-.17,1.11-.67l.19.1c.61.46,1.08.81,1.64,1.35.49,0,.7-.14.92,0,.4.93,1.44.53,1.78,2.02h.48Z" fill="#feff99" fill-rule="evenodd"/>
  <path d="M870.42,651.91c3.84-5.46,2.22-11.79-.28-17.44,1.06-2.51,3.64-5.14,2.56-9.59-.78-3.19-3.9-7.68-2.28-13.08,1.14-8.72,2.28-17.44,3.41-26.16,1.6-5.2,6.75-6.02,7.97-11.04.98-4.06-2.62-6.43-2.84-10.46.65-1.38,1.18-2.26,2.56-2.91,4.95-1.51,6.39,3.86,11.95,1.74,1.37,1.32,1.67,2.42,4.27,2.62l.57-.29c.14-1.04-.43-.4.57-1.16l.85,1.16c-1.08,5.67,2.91,11.31,4.27,15.98.76,4.17,1.52,8.33,2.28,12.5-.09,3.68-.19,7.36-.28,11.04-.88,7.61-.45,20.3,2.28,26.74-1.54,5.55-.33,11.75-1.14,17.44-2.15,15.21-1.27,29.04.28,45.34-.57,3.1-1.14,6.2-1.71,9.3-1.29,5.75-1.55,13.26-.57,19.18.44,2.68,2.28,4.88,2.56,6.98v.29c-.47,1.45-.95,2.91-1.42,4.36.47,2.71.95,5.43,1.42,8.14-.47,1.07-.95,2.13-1.42,3.2.99,5.37,1.73,13.58,0,19.76-3.75-.71-5.85,1.39-8.53,2.33-.19-.68-.38-1.36-.57-2.03-3.22.02-3.98,1.22-6.54,1.74-2.81-3.4-8.47-4.25-11.66-5.23-.55-4.07-1-9.41,0-12.21-1.35-.35-2.17-2.2-3.41-3.49.26-2.7,1.86-6.66.85-10.17-.98-3.41-2.82-9.39-3.13-12.79.57-4.26,1.14-8.53,1.71-12.79-.63-3.63-2.7-7.42-3.98-10.17.19-4.75.38-9.49.57-14.24l-1.42-1.45" fill-rule="evenodd"/>
  <path d="M1197.03,225.92c.05,1.89,2.25,3.44,1.53,4.99-.4.1-.7.36-1.05.56.05.46.11.91.16,1.37-.71-.28-1.52,0-1.93.48.03,1.53-.6,2.36-1.05,3.3-.25.53.07,1.13-.16,1.61h-.8c-.46,1.57-3.48,5.82-3.22,6.91-.52,0-.74.07-1.05.24-.12.68-.19.83.08,1.37-.39.23-.27.58-.56.88-.27.08-.54.16-.8.24-.43.38-.53,1.57-.56,2.49-.45-.1-.62-.2-1.21-.08-.02.69.22,1.51-.16,2.01-.3.39-.6.31-.72.96.2.27.28.39.16.8-.31.05-.72.35-1.29.48v.4c.22.27.61.51.48.88-.32.24-.64.48-.96.72-.41.68.03.85-.56,1.37.34.59.19,1.58.56,1.93.51.47,1.21.56,1.69,1.05-.17.28-.24.36-.16.72l.16.08c1.3-.21,1.27.96,2.01,1.45.55.37,1.34.43,1.85.8-.01.63.08.63.4,1.05.57.02.7.08,1.13.32.3,1.24,1.27,3.39,3.14,2.98-.04.82.84,1.87,1.61,2.09-.03.32-.05.64-.08.96.5.32,1.13.5,1.37,1.05,1.17-.01,2.98,1.52,3.38,2.01l-.08.16c-.27.21-.54.43-.8.64-.03.55-.06.48,0,1.05.43.13.86.27,1.29.4-.22.74.22,1.46,1.05,1.45.38-.13.75-.27,1.13-.4,0,.39.01.52.16.88,1.37.13,1.66,1.74,2.57,2.41.19-.08.38-.16.56-.24l.24.08c-.16.32-.32.64-.48.96.32.81,1.31.74,2.17.64-.17.6-.38.78-.32,1.37-.57.1-.9.36-1.21.72v.32l.4.48c1.21.27,1.88-.14,3.06-.32.33.45.84.41,1.37.64.07.71-.01,1.44.24,1.93.29.05.59.11.88.16-.24.46-.48.91-.72,1.37.86.43,1.37.98,2.01,1.61.57,0,.55.01.96-.16.05,1.13.44,1.51,1.21,1.69-.15,1.86,1,1.33,1.13,2.33l.08.32c-1.11.66-1.28,1.64-1.93,2.57-.38.24-.75.48-1.13.72-.26.43.1.46-.32.64-.93.48-2.48.41-3.22.64-.7.23-1.46,1.03-2.01,1.21-.86.27-1.79-1.63-2.89-.64l-.24-.24c-.04-.57-.19-.6-.48-.88-.68.07-1.4.42-1.93,0,.15-1.37-.32-1.92-1.05-2.89h-.08c-.39.27-.45.54-.72.72-.29-.31-.48-.69-1.05-.72l-.32.16c-.74-1.04.11-1.61-1.29-2.33-.27.16-.54.32-.8.48.05-.49.13-.77.48-.96.1-.86-.16-1.09-.56-1.69-1.08-.05-1.19-.74-2.33-.88-.29.28-.44.5-.64.88l-.24-.16v-.32c.37-.19.47-.5.48-1.05-.26-.45-.54-.63-.88-.96-.57.02-1.17.22-1.29.08-.19-.08-.38-.16-.56-.24.37-1.59.04-2.28-1.13-3.22-.71.04-1.02.45-1.29.32l-.32-.08c-.01-1.61-.79-3.1-1.93-4.02-.46.11-.29.2-.64.08-.21-.36-.54-.36-1.13-.32l-.08-.4c.35-.27.5-.39.56-.96-.49-.52-.57-.66-1.53-.72.07-.46.19-.81-.16-1.05-.58-.19-1.08.11-1.53-.24v-.8c-.58-.08-.78-.18-1.13-.56.14-.24.17-.52.16-.96-1.41-.5-1.01-2.06-2.81-2.17-.24.16-.48.32-.72.48l-.16-.08c-.14-.36-.26-.38-.56-.56.01-.85.38-1.2.08-1.69l-.32-.24c-.58.06-1.36-.08-1.77.08-.42,1.31-.92.74-1.85,1.45-.27.67-.54,1.34-.8,2.01-.38.21-.75.43-1.13.64-.18.16-.07.04-.16.32.13.29.27.59.4.88-.74.24-.94,1.1-1.05,1.93-.29-.14-.33-.13-.72-.08.04.34.15,1.61-.16,2.25-.4.08-.8.16-1.21.24-.07.35-.25,1.75-.64,2.01-.4.08-.8.16-1.21.24-.33,1.45-1.28,2.78-2.41,3.46v1.53c-.45-.11-.5-.19-.96-.16.02,1.75-.83,2.18-1.53,3.14-.43.58.24.92-.08,1.45-.8,1.02-1.61,2.04-2.41,3.06.13.27.27.54.4.8-1.5,1.01-.78,1.98-1.77,3.06-.32.16-.64.32-.96.48-.19.62-.38,1.23-.56,1.85-.43.64-1.3.93-1.77,1.61.11.19.21.38.32.56-.31.48-.6.23-1.05.56-.13.35-.27.7-.4,1.05-1-.44-1.15.11-2.01.32-.49-.72-3.96-.52-5.15-.08-.39-.75-1.11-.9-1.85-1.29.22-.32.44-.59.32-1.05-.17-.45-.71-.56-1.13-.96.05-.72-.85-2.35-.4-3.38.21-.49.77-.58.8-1.53-.92-2.13.82-.97,1.21-2.81.89.18,1.46-.44,2.33-.16.04-.21-.05-.12.16-.32-.15-.54-.28-1.68-.88-2.01.27-.53.83-1.23,1.13-1.61.27.11.16.1.48.08.07-.5.02-.78-.08-1.21,1.46-.26.44-.98.96-1.69.42-.4,1.11-.2,1.69-.56.3-.27.23-.52.16-1.05.63-.17.89-.94.88-1.45-.43-.53-.82-1.02-1.69-1.13l.08-.24.16-.16c.95-.17,3.01-.51,3.38-1.21v-1.21c.53.03.58.12.88,0,.58-1.65-.28-1.53,1.29-2.41.26-1.4.17-2.85.24-4.1.78.69.92.92,1.77.24.05-.59.11-1.18.16-1.77.29-.05.59-.11.88-.16.11-.32.21-.64.32-.96.19.16.38.32.56.48l.48-.16c-.1-1.15.6-1.78.56-2.89-.29-.19-.59-.38-.88-.56h.16c.4-.46,1.87-1.11,2.65-1.21.23-1.47.42-2.07-.24-3.14.95-.21,2.27-1.23,1.29-2.33-.24-.13-.48-.27-.72-.4-.2-.46.25-.67-.32-1.13h-.4c.05-.48.11-.96.16-1.45-.35-.36-.92-.62-1.21-1.05,1.24-.91-2.46-2.6-3.3-2.33l-.48.16-.08-.16c-.04-.83-.87-.64-1.21-1.13-.9-1.69-.49-.96-2.09-1.85.34-1.22-1-1.38-2.01-1.53l-.08-.16c.24-.4.24-.73.16-1.13-.19-.13-.38-.27-.56-.4-.32.08-.64.16-.96.24-.06-.89-.83-1.45-1.69-1.53.18-.34.21-.44.16-.88-.51-.51-1.31-.64-1.77-1.21.08-.64.04-.81-.24-1.21-.34-.06-.48-.07-.64-.32-.63-.65-.95-1.98-1.61-2.81-.38-.32-.75-.64-1.13-.96.03-.35.05-.7.08-1.05-.38-.32-.75-.64-1.13-.96-.27.16-.54.32-.8.48-.12-2.7-.68-1.89-2.41-2.65.71-1.64-1.17-2.4-1.93-3.14l.08-.32c.38-.03.75-.05,1.13-.08.12-.29.14-.37.08-.72-.45-.19-.82-.08-1.29-.24-.48-.17-.66-.63-1.37-.8.26-.35.39-.39.4-1.05-.71-.32-.85-.76-1.85-1.05.09-.61-.27-.89-.8-1.13.27-.61.29-.76.08-1.37.29-.11.59-.21.88-.32l.08-.48c-.21-.32-.43-.64-.64-.96v-.08c.8-.17.78-.85,1.21-1.37.29.09.43.19.72.08.42-.23.49-.76.8-.96.19.03.38.05.56.08.46-.11.41-.47.72-.64.04-.02.8.06,1.05,0,.16-.32.32-.64.48-.96.24-.16.63.08.88-.24.11-.35.21-.7.32-1.05.8-.36.82.59,1.85-.08.84.34,1.32.74,2.25.88v.4c-.19.11-.38.21-.56.32.03.21.05.43.08.64.61.24,2,.37,2.41.56.73.34.75,1.15,1.77,1.45-.1,1.58,1.5,1.84,1.13,2.65.5.91,1.46,1.16,2.01,1.93.7.99.86,1.92,1.77,2.65.46.38,1.28.18,1.61.32-.34,1.67.98,1.03,1.77,1.69.17.45-.23.7.08,1.05.28.81.81.44,1.53.8.58.29.27.74.56,1.21.38.29.75.59,1.13.88h.16c.44.59.51,1.65,1.13,2.33.89,1,2.19,1.27,3.14,2.09.5.43.55,1.08.96,1.61.42.52,1.16.54,1.69.96.11.29.21.59.32.88.4.38.8.75,1.21,1.13h1.13c.03.19.05.38.08.56.48.23,1.03.3,1.61.24.24-.54.23-.52.16-1.29,1.72-.36,1.15-4.05,3.54-4.66.03-.53.82-3.55,1.05-3.78.13-.15,1.07-.7,1.37-.88l-.08-.24c-.13-.21-.27-.43-.4-.64.4-.24.8-.48,1.21-.72-.07-.8-.3-1.19-.56-1.77h.8l.96-.96c.31-.61-.08-1.22.08-1.77.35-.32.7-.64,1.05-.96.13-.56.27-1.13.4-1.69.38-.27.75-.54,1.13-.8.05-.35.11-.7.16-1.05.35-.16.7-.32,1.05-.48.46-.5.02-1.36.64-1.77.53-.22.75-.28,1.13-.56.01-.72-.36-1.78.16-2.25.48-.73,1.64-.28,1.85-1.13l.32.16c1.01.76,1.8,1.35,2.73,2.25.82,0,1.16-.23,1.53,0,.66,1.55,2.4.88,2.98,3.38h.8Z" fill="#feff99" fill-rule="evenodd"/>
</svg>