<svg width="793" height="222" viewBox="0 0 793 222" fill="none" xmlns="http://www.w3.org/2000/svg">
<path d="M678.094 175.553C679.665 178.936 677.37 182.916 673.845 182.916H625.468C621.944 182.916 619.654 178.943 621.232 175.553L645.418 123.685C647.17 119.934 652.156 119.934 653.902 123.685L678.094 175.553ZM562.76 214.296C561.189 217.68 563.478 221.659 567.002 221.659H732.304C735.835 221.659 738.131 217.68 736.553 214.296L653.902 37.0534C652.15 33.3025 647.164 33.3025 645.418 37.0534L562.76 214.296Z" fill="#111111"></path>
<path fill-rule="evenodd" clip-rule="evenodd" d="M679.744 174.779C681.799 179.202 678.887 184.746 673.845 184.746H625.468C620.423 184.746 617.522 179.206 619.583 174.777L643.769 122.908C646.176 117.757 653.148 117.75 655.551 122.908M655.551 122.908L679.744 174.779L655.551 122.908ZM653.902 123.685C652.156 119.934 647.17 119.934 645.418 123.685L621.232 175.553C619.654 178.943 621.944 182.916 625.468 182.916H673.845C677.37 182.916 679.665 178.936 678.094 175.553L653.902 123.685ZM647.066 37.8302L564.41 215.07C564.41 215.071 564.411 215.07 564.41 215.07C563.322 217.416 565 219.829 567.002 219.829H732.304C734.32 219.829 735.995 217.412 734.904 215.073L652.254 37.8314M562.76 214.296L645.418 37.0534C647.164 33.3025 652.15 33.3025 653.902 37.0534L736.553 214.296C738.131 217.68 735.835 221.659 732.304 221.659H567.002C563.478 221.659 561.189 217.68 562.76 214.296ZM647.066 37.8302C648.157 35.4885 651.155 35.4822 652.254 37.8314L647.066 37.8302Z" fill="#111111"></path>
<path d="M752.503 152.016C754.949 157.519 751.375 163.992 745.888 163.992H670.567C665.08 163.992 661.516 157.53 663.972 152.016L701.628 67.65C704.356 61.549 712.119 61.549 714.837 67.65L752.503 152.016Z" fill="black"></path>
<path d="M733.357 141.313C734.944 144.696 732.625 148.676 729.064 148.676H680.188C676.627 148.676 674.314 144.703 675.909 141.313L700.343 89.4446C702.114 85.6937 707.151 85.6937 708.915 89.4446L733.357 141.313ZM616.834 180.056C615.246 183.439 617.559 187.419 621.12 187.419H788.126C791.693 187.419 794.012 183.439 792.418 180.056L708.915 2.81318C707.145 -0.937727 702.107 -0.937727 700.343 2.81318L616.834 180.056Z" fill="#FFCF30"></path>
<path d="M788.698 109.742C790.655 113.968 787.796 118.939 783.406 118.939H723.15C718.76 118.939 715.909 113.977 717.874 109.742L747.998 44.9618C750.181 40.2771 756.391 40.2771 758.566 44.9618L788.698 109.742Z" fill="#FFCF30"></path>
<path d="M0 214.87C0 217.496 2.11016 219.86 4.74786 219.86H69.1078C120.015 219.86 161.691 178.633 161.691 127.69C161.691 77.2719 120.015 36.0449 69.1078 36.0449H4.74786C2.11016 36.0449 0 38.4083 0 41.0342V214.87ZM41.1481 180.996V74.646H66.4701C96.2761 74.646 117.905 98.0168 117.905 127.69C117.905 157.625 96.2761 180.996 66.4701 180.996H41.1481Z" fill="#111111"></path>
<path d="M190.007 214.87C190.007 217.496 192.117 219.86 195.019 219.86H304.22C307.121 219.86 309.231 217.496 309.231 214.87V186.248C309.231 183.622 307.121 181.259 304.22 181.259H231.155V145.809H291.295C293.933 145.809 296.307 143.708 296.307 140.819V112.197C296.307 109.571 293.933 107.207 291.295 107.207H231.155V74.646H304.22C307.121 74.646 309.231 72.2827 309.231 69.6568V41.0342C309.231 38.4083 307.121 36.0449 304.22 36.0449H195.019C192.117 36.0449 190.007 38.4083 190.007 41.0342V214.87Z" fill="#111111"></path>
<path d="M340.603 214.87C340.603 217.496 342.714 219.86 345.615 219.86H444.793C447.694 219.86 449.804 217.496 449.804 214.87V186.248C449.804 183.622 447.694 181.259 444.793 181.259H382.015V41.0342C382.015 38.4083 379.641 36.0449 377.004 36.0449H345.615C342.714 36.0449 340.603 38.4083 340.603 41.0342V214.87Z" fill="#111111"></path>
<path d="M485.059 214.87C485.059 217.496 487.433 219.86 490.07 219.86H521.723C524.361 219.86 526.734 217.496 526.734 214.87V74.646H564.454C567.355 74.646 569.465 72.2827 569.465 69.6568V41.0342C569.465 38.4083 567.355 36.0449 564.454 36.0449H447.34C444.438 36.0449 442.328 38.4083 442.328 41.0342V69.6568C442.328 72.2827 444.438 74.646 447.34 74.646H485.059V214.87Z" fill="#111111"></path>
</svg>